<ttFont>
<head>
    <!-- Most of this table will be recalculated by the compiler -->
    <tableVersion value="1.0"/>
    <fontRevision value="1.0"/>
    <checkSumAdjustment value="0x54f7807f"/>
    <magicNumber value="0x5f0f3cf5"/>
    <flags value="00000000 00001011"/>
    <unitsPerEm value="1000"/>
    <created value="Mon Apr  8 19:23:50 2019"/>
    <modified value="Mon Apr  8 19:23:51 2019"/>
    <xMin value="-145"/>
    <yMin value="-274"/>
    <xMax value="1090"/>
    <yMax value="1006"/>
    <macStyle value="00000000 00000010"/>
    <lowestRecPPEM value="6"/>
    <fontDirectionHint value="2"/>
    <indexToLocFormat value="0"/>
    <glyphDataFormat value="0"/>
  </head>
    <TTGlyph name=".notdef" xMin="60" yMin="-100" xMax="454" yMax="750">
      <contour>
        <pt x="60" y="-100" on="1"/>
        <pt x="60" y="750" on="1"/>
        <pt x="454" y="750" on="1"/>
        <pt x="454" y="-100" on="1"/>
      </contour>
    </TTGlyph>
    <TTGlyph name="A" xMin="-44" yMin="0" xMax="585" yMax="700">
      <contour>
        <pt x="-44" y="0" on="1"/>
        <pt x="372" y="700" on="1"/>
        <pt x="463" y="700" on="1"/>
        <pt x="585" y="0" on="1"/>
        <pt x="508" y="0" on="1"/>
        <pt x="472" y="220" on="1"/>
        <pt x="168" y="220" on="1"/>
        <pt x="41" y="0" on="1"/>
      </contour>
      <contour>
        <pt x="203" y="281" on="1"/>
        <pt x="462" y="281" on="1"/>
        <pt x="404" y="631" on="1"/>
      </contour>
    </TTGlyph>
    <TTGlyph name="AE" xMin="-44" yMin="0" xMax="947" yMax="700">
      <contour>
        <pt x="-44" y="0" on="1"/>
        <pt x="373" y="700" on="1"/>
        <pt x="947" y="700" on="1"/>
        <pt x="933" y="632" on="1"/>
        <pt x="481" y="632" on="1"/>
        <pt x="519" y="387" on="1"/>
        <pt x="751" y="387" on="1"/>
        <pt x="736" y="320" on="1"/>
        <pt x="530" y="320" on="1"/>
        <pt x="569" y="68" on="1"/>
        <pt x="813" y="68" on="1"/>
        <pt x="799" y="0" on="1"/>
        <pt x="505" y="0" on="1"/>
        <pt x="471" y="220" on="1"/>
        <pt x="166" y="220" on="1"/>
        <pt x="37" y="0" on="1"/>
      </contour>
      <contour>
        <pt x="201" y="281" on="1"/>
        <pt x="461" y="281" on="1"/>
        <pt x="406" y="631" on="1"/>
      </contour>
    </TTGlyph>
    <TTGlyph name="Aacute" xMin="-44" yMin="0" xMax="623" yMax="918">
      <component glyphName="A" x="0" y="0" flags="0x204"/>
      <component glyphName="acute" x="140" y="212" flags="0x4"/>
    </TTGlyph>
    <TTGlyph name="Abreve" xMin="-44" yMin="0" xMax="611" yMax="931">
      <component glyphName="A" x="0" y="0" flags="0x204"/>
      <component glyphName="breve" x="104" y="212" flags="0x4"/>
    </TTGlyph>
    <TTGlyph name="Acircumflex" xMin="-44" yMin="0" xMax="585" yMax="918">
      <component glyphName="A" x="0" y="0" flags="0x204"/>
      <component glyphName="circumflex" x="105" y="212" flags="0x4"/>
    </TTGlyph>
    <TTGlyph name="Adieresis" xMin="-44" yMin="0" xMax="585" yMax="908">
      <component glyphName="A" x="0" y="0" flags="0x204"/>
      <component glyphName="dieresis" x="95" y="212" flags="0x4"/>
    </TTGlyph>
    <TTGlyph name="Agrave" xMin="-44" yMin="0" xMax="585" yMax="918">
      <component glyphName="A" x="0" y="0" flags="0x204"/>
      <component glyphName="grave" x="109" y="212" flags="0x4"/>
    </TTGlyph>
    <TTGlyph name="Amacron" xMin="-44" yMin="0" xMax="587" yMax="875">
      <component glyphName="A" x="0" y="0" flags="0x204"/>
      <component glyphName="macron" x="104" y="212" flags="0x4"/>
    </TTGlyph>
    <TTGlyph name="Aogonek" xMin="-44" yMin="-232" xMax="586" yMax="700">
      <contour>
        <pt x="-44" y="0" on="1"/>
        <pt x="372" y="700" on="1"/>
        <pt x="463" y="700" on="1"/>
        <pt x="585" y="1" on="1"/>
        <pt x="586" y="0" on="1"/>
        <pt x="520" y="-36" on="0"/>
        <pt x="455" y="-104" on="0"/>
        <pt x="455" y="-139" on="1"/>
        <pt x="455" y="-161" on="0"/>
        <pt x="489" y="-187" on="0"/>
        <pt x="515" y="-187" on="1"/>
        <pt x="525" y="-187" on="0"/>
        <pt x="551" y="-182" on="0"/>
        <pt x="561" y="-178" on="1"/>
        <pt x="565" y="-218" on="1"/>
        <pt x="552" y="-225" on="0"/>
        <pt x="517" y="-232" on="0"/>
        <pt x="499" y="-232" on="1"/>
        <pt x="456" y="-232" on="0"/>
        <pt x="404" y="-189" on="0"/>
        <pt x="404" y="-154" on="1"/>
        <pt x="404" y="-113" on="0"/>
        <pt x="465" y="-36" on="0"/>
        <pt x="526" y="0" on="1"/>
        <pt x="508" y="0" on="1"/>
        <pt x="472" y="220" on="1"/>
        <pt x="168" y="220" on="1"/>
        <pt x="41" y="0" on="1"/>
      </contour>
      <contour>
        <pt x="203" y="281" on="1"/>
        <pt x="462" y="281" on="1"/>
        <pt x="404" y="631" on="1"/>
      </contour>
    </TTGlyph>
    <TTGlyph name="Aring" xMin="-44" yMin="0" xMax="585" yMax="1006">
      <component glyphName="A" x="0" y="0" flags="0x204"/>
      <component glyphName="ring" x="104" y="212" flags="0x4"/>
    </TTGlyph>
    <TTGlyph name="Atilde" xMin="-44" yMin="0" xMax="619" yMax="908">
      <component glyphName="A" x="0" y="0" flags="0x204"/>
      <component glyphName="tilde" x="109" y="212" flags="0x4"/>
    </TTGlyph>
    <TTGlyph name="B" xMin="34" yMin="0" xMax="627" yMax="700">
      <contour>
        <pt x="183" y="700" on="1"/>
        <pt x="442" y="700" on="1"/>
        <pt x="527" y="700" on="0"/>
        <pt x="627" y="617" on="0"/>
        <pt x="627" y="545" on="1"/>
        <pt x="627" y="477" on="0"/>
        <pt x="543" y="377" on="0"/>
        <pt x="474" y="359" on="1"/>
        <pt x="528" y="343" on="0"/>
        <pt x="589" y="269" on="0"/>
        <pt x="589" y="217" on="1"/>
        <pt x="589" y="170" on="0"/>
        <pt x="552" y="90" on="0"/>
        <pt x="486" y="33" on="0"/>
        <pt x="394" y="0" on="0"/>
        <pt x="341" y="0" on="1"/>
        <pt x="34" y="0" on="1"/>
      </contour>
      <contour>
        <pt x="429" y="634" on="1"/>
        <pt x="244" y="634" on="1"/>
        <pt x="193" y="394" on="1"/>
        <pt x="395" y="394" on="1"/>
        <pt x="464" y="394" on="0"/>
        <pt x="550" y="472" on="0"/>
        <pt x="550" y="532" on="1"/>
        <pt x="550" y="579" on="0"/>
        <pt x="486" y="634" on="0"/>
      </contour>
      <contour>
        <pt x="340" y="66" on="1"/>
        <pt x="416" y="66" on="0"/>
        <pt x="513" y="151" on="0"/>
        <pt x="513" y="218" on="1"/>
        <pt x="513" y="270" on="0"/>
        <pt x="440" y="331" on="0"/>
        <pt x="377" y="331" on="1"/>
        <pt x="179" y="331" on="1"/>
        <pt x="123" y="66" on="1"/>
      </contour>
    </TTGlyph>
    <TTGlyph name="C" xMin="76" yMin="-11" xMax="710" yMax="710">
      <contour>
        <pt x="406" y="58" on="1"/>
        <pt x="464" y="58" on="0"/>
        <pt x="576" y="105" on="0"/>
        <pt x="619" y="147" on="1"/>
        <pt x="659" y="95" on="1"/>
        <pt x="604" y="44" on="0"/>
        <pt x="470" y="-11" on="0"/>
        <pt x="401" y="-11" on="1"/>
        <pt x="332" y="-11" on="0"/>
        <pt x="213" y="40" on="0"/>
        <pt x="126" y="128" on="0"/>
        <pt x="76" y="249" on="0"/>
        <pt x="76" y="320" on="1"/>
        <pt x="76" y="400" on="0"/>
        <pt x="136" y="542" on="0"/>
        <pt x="237" y="648" on="0"/>
        <pt x="375" y="710" on="0"/>
        <pt x="451" y="710" on="1"/>
        <pt x="534" y="710" on="0"/>
        <pt x="667" y="646" on="0"/>
        <pt x="710" y="584" on="1"/>
        <pt x="653" y="534" on="1"/>
        <pt x="621" y="584" on="0"/>
        <pt x="512" y="640" on="0"/>
        <pt x="447" y="640" on="1"/>
        <pt x="386" y="640" on="0"/>
        <pt x="278" y="591" on="0"/>
        <pt x="199" y="505" on="0"/>
        <pt x="153" y="389" on="0"/>
        <pt x="153" y="323" on="1"/>
        <pt x="153" y="266" on="0"/>
        <pt x="191" y="168" on="0"/>
        <pt x="258" y="98" on="0"/>
        <pt x="352" y="58" on="0"/>
      </contour>
    </TTGlyph>
    <TTGlyph name="Cacute" xMin="76" yMin="-11" xMax="710" yMax="918">
      <component glyphName="C" x="0" y="0" flags="0x204"/>
      <component glyphName="acute" x="175" y="212" flags="0x4"/>
    </TTGlyph>
    <TTGlyph name="Ccaron" xMin="76" yMin="-11" xMax="710" yMax="922">
      <component glyphName="C" x="0" y="0" flags="0x204"/>
      <component glyphName="caron" x="140" y="212" flags="0x4"/>
    </TTGlyph>
    <TTGlyph name="Ccedilla" xMin="76" yMin="-239" xMax="710" yMax="710">
      <contour>
        <pt x="406" y="58" on="1"/>
        <pt x="464" y="58" on="0"/>
        <pt x="576" y="105" on="0"/>
        <pt x="619" y="147" on="1"/>
        <pt x="659" y="95" on="1"/>
        <pt x="604" y="44" on="0"/>
        <pt x="470" y="-11" on="0"/>
        <pt x="401" y="-11" on="1"/>
        <pt x="400" y="-11" on="1"/>
        <pt x="376" y="-66" on="1"/>
        <pt x="414" y="-70" on="0"/>
        <pt x="457" y="-107" on="0"/>
        <pt x="457" y="-138" on="1"/>
        <pt x="457" y="-181" on="0"/>
        <pt x="390" y="-239" on="0"/>
        <pt x="341" y="-239" on="1"/>
        <pt x="307" y="-239" on="0"/>
        <pt x="251" y="-217" on="0"/>
        <pt x="235" y="-197" on="1"/>
        <pt x="266" y="-167" on="1"/>
        <pt x="281" y="-183" on="0"/>
        <pt x="317" y="-199" on="0"/>
        <pt x="339" y="-199" on="1"/>
        <pt x="372" y="-199" on="0"/>
        <pt x="411" y="-169" on="0"/>
        <pt x="411" y="-144" on="1"/>
        <pt x="411" y="-123" on="0"/>
        <pt x="377" y="-99" on="0"/>
        <pt x="347" y="-99" on="1"/>
        <pt x="319" y="-99" on="1"/>
        <pt x="359" y="-9" on="1"/>
        <pt x="298" y="-2" on="0"/>
        <pt x="194" y="54" on="0"/>
        <pt x="118" y="141" on="0"/>
        <pt x="76" y="255" on="0"/>
        <pt x="76" y="320" on="1"/>
        <pt x="76" y="400" on="0"/>
        <pt x="136" y="542" on="0"/>
        <pt x="237" y="648" on="0"/>
        <pt x="375" y="710" on="0"/>
        <pt x="451" y="710" on="1"/>
        <pt x="534" y="710" on="0"/>
        <pt x="667" y="646" on="0"/>
        <pt x="710" y="584" on="1"/>
        <pt x="653" y="534" on="1"/>
        <pt x="621" y="584" on="0"/>
        <pt x="512" y="640" on="0"/>
        <pt x="447" y="640" on="1"/>
        <pt x="386" y="640" on="0"/>
        <pt x="278" y="591" on="0"/>
        <pt x="199" y="505" on="0"/>
        <pt x="153" y="389" on="0"/>
        <pt x="153" y="323" on="1"/>
        <pt x="153" y="266" on="0"/>
        <pt x="191" y="168" on="0"/>
        <pt x="258" y="98" on="0"/>
        <pt x="352" y="58" on="0"/>
      </contour>
    </TTGlyph>
    <TTGlyph name="Ccircumflex" xMin="76" yMin="-11" xMax="710" yMax="918">
      <component glyphName="C" x="0" y="0" flags="0x204"/>
      <component glyphName="circumflex" x="139" y="212" flags="0x4"/>
    </TTGlyph>
    <TTGlyph name="Cdotaccent" xMin="76" yMin="-11" xMax="710" yMax="915">
      <component glyphName="C" x="0" y="0" flags="0x204"/>
      <component glyphName="dotaccent" x="256" y="212" flags="0x4"/>
    </TTGlyph>
    <TTGlyph name="D" xMin="34" yMin="0" xMax="681" yMax="700">
      <contour>
        <pt x="34" y="0" on="1"/>
        <pt x="183" y="700" on="1"/>
        <pt x="382" y="700" on="1"/>
        <pt x="449" y="700" on="0"/>
        <pt x="560" y="655" on="0"/>
        <pt x="638" y="574" on="0"/>
        <pt x="681" y="460" on="0"/>
        <pt x="681" y="391" on="1"/>
        <pt x="681" y="311" on="0"/>
        <pt x="619" y="168" on="0"/>
        <pt x="514" y="62" on="0"/>
        <pt x="371" y="0" on="0"/>
        <pt x="291" y="0" on="1"/>
      </contour>
      <contour>
        <pt x="379" y="631" on="1"/>
        <pt x="243" y="631" on="1"/>
        <pt x="124" y="69" on="1"/>
        <pt x="302" y="69" on="1"/>
        <pt x="364" y="69" on="0"/>
        <pt x="475" y="119" on="0"/>
        <pt x="556" y="205" on="0"/>
        <pt x="603" y="323" on="0"/>
        <pt x="603" y="389" on="1"/>
        <pt x="603" y="497" on="0"/>
        <pt x="479" y="631" on="0"/>
      </contour>
    </TTGlyph>
    <TTGlyph name="Dcaron" xMin="34" yMin="0" xMax="681" yMax="922">
      <component glyphName="D" x="0" y="0" flags="0x204"/>
      <component glyphName="caron" x="132" y="212" flags="0x4"/>
    </TTGlyph>
    <TTGlyph name="Dcroat" xMin="37" yMin="0" xMax="711" yMax="700">
      <contour>
        <pt x="64" y="0" on="1"/>
        <pt x="131" y="317" on="1"/>
        <pt x="37" y="317" on="1"/>
        <pt x="51" y="383" on="1"/>
        <pt x="146" y="383" on="1"/>
        <pt x="213" y="700" on="1"/>
        <pt x="412" y="700" on="1"/>
        <pt x="479" y="700" on="0"/>
        <pt x="590" y="655" on="0"/>
        <pt x="668" y="574" on="0"/>
        <pt x="711" y="460" on="0"/>
        <pt x="711" y="391" on="1"/>
        <pt x="711" y="311" on="0"/>
        <pt x="649" y="168" on="0"/>
        <pt x="544" y="62" on="0"/>
        <pt x="401" y="0" on="0"/>
        <pt x="321" y="0" on="1"/>
      </contour>
      <contour>
        <pt x="409" y="631" on="1"/>
        <pt x="273" y="631" on="1"/>
        <pt x="220" y="383" on="1"/>
        <pt x="384" y="383" on="1"/>
        <pt x="370" y="317" on="1"/>
        <pt x="207" y="317" on="1"/>
        <pt x="154" y="69" on="1"/>
        <pt x="332" y="69" on="1"/>
        <pt x="394" y="69" on="0"/>
        <pt x="505" y="119" on="0"/>
        <pt x="586" y="205" on="0"/>
        <pt x="633" y="323" on="0"/>
        <pt x="633" y="389" on="1"/>
        <pt x="633" y="497" on="0"/>
        <pt x="509" y="631" on="0"/>
      </contour>
    </TTGlyph>
    <TTGlyph name="E" xMin="34" yMin="0" xMax="651" yMax="700">
      <contour>
        <pt x="34" y="0" on="1"/>
        <pt x="183" y="700" on="1"/>
        <pt x="651" y="700" on="1"/>
        <pt x="636" y="633" on="1"/>
        <pt x="244" y="633" on="1"/>
        <pt x="191" y="387" on="1"/>
        <pt x="464" y="387" on="1"/>
        <pt x="450" y="320" on="1"/>
        <pt x="177" y="320" on="1"/>
        <pt x="123" y="67" on="1"/>
        <pt x="520" y="67" on="1"/>
        <pt x="506" y="0" on="1"/>
      </contour>
    </TTGlyph>
    <TTGlyph name="Eacute" xMin="34" yMin="0" xMax="651" yMax="918">
      <component glyphName="E" x="0" y="0" flags="0x204"/>
      <component glyphName="acute" x="136" y="212" flags="0x4"/>
    </TTGlyph>
    <TTGlyph name="Ebreve" xMin="34" yMin="0" xMax="651" yMax="931">
      <component glyphName="E" x="0" y="0" flags="0x204"/>
      <component glyphName="breve" x="101" y="212" flags="0x4"/>
    </TTGlyph>
    <TTGlyph name="Ecaron" xMin="34" yMin="0" xMax="651" yMax="922">
      <component glyphName="E" x="0" y="0" flags="0x204"/>
      <component glyphName="caron" x="102" y="212" flags="0x4"/>
    </TTGlyph>
    <TTGlyph name="Ecircumflex" xMin="34" yMin="0" xMax="651" yMax="918">
      <component glyphName="E" x="0" y="0" flags="0x204"/>
      <component glyphName="circumflex" x="101" y="212" flags="0x4"/>
    </TTGlyph>
    <TTGlyph name="Edieresis" xMin="34" yMin="0" xMax="651" yMax="908">
      <component glyphName="E" x="0" y="0" flags="0x204"/>
      <component glyphName="dieresis" x="91" y="212" flags="0x4"/>
    </TTGlyph>
    <TTGlyph name="Edotaccent" xMin="34" yMin="0" xMax="651" yMax="915">
      <component glyphName="E" x="0" y="0" flags="0x204"/>
      <component glyphName="dotaccent" x="217" y="212" flags="0x4"/>
    </TTGlyph>
    <TTGlyph name="Egrave" xMin="34" yMin="0" xMax="651" yMax="918">
      <component glyphName="E" x="0" y="0" flags="0x204"/>
      <component glyphName="grave" x="105" y="212" flags="0x4"/>
    </TTGlyph>
    <TTGlyph name="Emacron" xMin="34" yMin="0" xMax="651" yMax="875">
      <component glyphName="E" x="0" y="0" flags="0x204"/>
      <component glyphName="macron" x="101" y="212" flags="0x4"/>
    </TTGlyph>
    <TTGlyph name="Eng" xMin="34" yMin="-207" xMax="732" yMax="700">
      <contour>
        <pt x="516" y="2" on="1"/>
        <pt x="229" y="598" on="1"/>
        <pt x="105" y="0" on="1"/>
        <pt x="34" y="0" on="1"/>
        <pt x="182" y="700" on="1"/>
        <pt x="261" y="700" on="1"/>
        <pt x="540" y="118" on="1"/>
        <pt x="661" y="700" on="1"/>
        <pt x="732" y="700" on="1"/>
        <pt x="565" y="-87" on="1"/>
        <pt x="553" y="-144" on="0"/>
        <pt x="480" y="-207" on="0"/>
        <pt x="427" y="-207" on="1"/>
        <pt x="413" y="-207" on="0"/>
        <pt x="385" y="-203" on="0"/>
        <pt x="376" y="-199" on="1"/>
        <pt x="389" y="-137" on="1"/>
        <pt x="396" y="-140" on="0"/>
        <pt x="416" y="-143" on="0"/>
        <pt x="429" y="-143" on="1"/>
        <pt x="458" y="-143" on="0"/>
        <pt x="492" y="-111" on="0"/>
        <pt x="499" y="-78" on="1"/>
      </contour>
    </TTGlyph>
    <TTGlyph name="Eogonek" xMin="34" yMin="-232" xMax="651" yMax="700">
      <contour>
        <pt x="34" y="0" on="1"/>
        <pt x="183" y="700" on="1"/>
        <pt x="651" y="700" on="1"/>
        <pt x="636" y="633" on="1"/>
        <pt x="244" y="633" on="1"/>
        <pt x="191" y="387" on="1"/>
        <pt x="464" y="387" on="1"/>
        <pt x="450" y="320" on="1"/>
        <pt x="177" y="320" on="1"/>
        <pt x="123" y="67" on="1"/>
        <pt x="520" y="67" on="1"/>
        <pt x="506" y="0" on="1"/>
        <pt x="440" y="-36" on="0"/>
        <pt x="375" y="-104" on="0"/>
        <pt x="375" y="-139" on="1"/>
        <pt x="375" y="-161" on="0"/>
        <pt x="409" y="-187" on="0"/>
        <pt x="435" y="-187" on="1"/>
        <pt x="445" y="-187" on="0"/>
        <pt x="471" y="-182" on="0"/>
        <pt x="481" y="-178" on="1"/>
        <pt x="485" y="-218" on="1"/>
        <pt x="472" y="-225" on="0"/>
        <pt x="437" y="-232" on="0"/>
        <pt x="419" y="-232" on="1"/>
        <pt x="376" y="-232" on="0"/>
        <pt x="324" y="-189" on="0"/>
        <pt x="324" y="-154" on="1"/>
        <pt x="324" y="-113" on="0"/>
        <pt x="385" y="-36" on="0"/>
        <pt x="446" y="0" on="1"/>
      </contour>
    </TTGlyph>
    <TTGlyph name="Eth" xMin="37" yMin="0" xMax="711" yMax="700">
      <contour>
        <pt x="64" y="0" on="1"/>
        <pt x="131" y="317" on="1"/>
        <pt x="37" y="317" on="1"/>
        <pt x="51" y="383" on="1"/>
        <pt x="146" y="383" on="1"/>
        <pt x="213" y="700" on="1"/>
        <pt x="412" y="700" on="1"/>
        <pt x="479" y="700" on="0"/>
        <pt x="590" y="655" on="0"/>
        <pt x="668" y="574" on="0"/>
        <pt x="711" y="460" on="0"/>
        <pt x="711" y="391" on="1"/>
        <pt x="711" y="311" on="0"/>
        <pt x="649" y="168" on="0"/>
        <pt x="544" y="62" on="0"/>
        <pt x="401" y="0" on="0"/>
        <pt x="321" y="0" on="1"/>
      </contour>
      <contour>
        <pt x="409" y="631" on="1"/>
        <pt x="273" y="631" on="1"/>
        <pt x="221" y="383" on="1"/>
        <pt x="384" y="383" on="1"/>
        <pt x="370" y="317" on="1"/>
        <pt x="206" y="317" on="1"/>
        <pt x="154" y="69" on="1"/>
        <pt x="332" y="69" on="1"/>
        <pt x="394" y="69" on="0"/>
        <pt x="505" y="119" on="0"/>
        <pt x="586" y="205" on="0"/>
        <pt x="633" y="323" on="0"/>
        <pt x="633" y="389" on="1"/>
        <pt x="633" y="497" on="0"/>
        <pt x="509" y="631" on="0"/>
      </contour>
    </TTGlyph>
    <TTGlyph name="Euro" xMin="44" yMin="-10" xMax="726" yMax="709">
      <contour>
        <pt x="441" y="310" on="1"/>
        <pt x="414" y="259" on="1"/>
        <pt x="215" y="259" on="1"/>
        <pt x="222" y="165" on="0"/>
        <pt x="326" y="54" on="0"/>
        <pt x="408" y="54" on="1"/>
        <pt x="454" y="54" on="0"/>
        <pt x="545" y="97" on="0"/>
        <pt x="585" y="139" on="1"/>
        <pt x="627" y="97" on="1"/>
        <pt x="577" y="45" on="0"/>
        <pt x="463" y="-10" on="0"/>
        <pt x="403" y="-10" on="1"/>
        <pt x="293" y="-10" on="0"/>
        <pt x="154" y="137" on="0"/>
        <pt x="147" y="259" on="1"/>
        <pt x="44" y="259" on="1"/>
        <pt x="55" y="310" on="1"/>
        <pt x="147" y="310" on="1"/>
        <pt x="148" y="332" on="0"/>
        <pt x="154" y="373" on="0"/>
        <pt x="158" y="393" on="1"/>
        <pt x="72" y="393" on="1"/>
        <pt x="84" y="443" on="1"/>
        <pt x="172" y="443" on="1"/>
        <pt x="192" y="501" on="0"/>
        <pt x="258" y="599" on="0"/>
        <pt x="343" y="670" on="0"/>
        <pt x="444" y="709" on="0"/>
        <pt x="499" y="709" on="1"/>
        <pt x="576" y="709" on="0"/>
        <pt x="693" y="633" on="0"/>
        <pt x="726" y="564" on="1"/>
        <pt x="668" y="529" on="1"/>
        <pt x="643" y="584" on="0"/>
        <pt x="548" y="647" on="0"/>
        <pt x="491" y="647" on="1"/>
        <pt x="410" y="647" on="0"/>
        <pt x="276" y="533" on="0"/>
        <pt x="242" y="443" on="1"/>
        <pt x="515" y="443" on="1"/>
        <pt x="486" y="393" on="1"/>
        <pt x="227" y="393" on="1"/>
        <pt x="222" y="373" on="0"/>
        <pt x="216" y="332" on="0"/>
        <pt x="215" y="310" on="1"/>
      </contour>
    </TTGlyph>
    <TTGlyph name="F" xMin="34" yMin="0" xMax="651" yMax="700">
      <contour>
        <pt x="34" y="0" on="1"/>
        <pt x="183" y="700" on="1"/>
        <pt x="651" y="700" on="1"/>
        <pt x="636" y="633" on="1"/>
        <pt x="244" y="633" on="1"/>
        <pt x="190" y="382" on="1"/>
        <pt x="459" y="382" on="1"/>
        <pt x="445" y="315" on="1"/>
        <pt x="176" y="315" on="1"/>
        <pt x="109" y="0" on="1"/>
      </contour>
    </TTGlyph>
    <TTGlyph name="G" xMin="73" yMin="-10" xMax="752" yMax="711">
      <contour>
        <pt x="743" y="314" on="1"/>
        <pt x="731" y="243" on="0"/>
        <pt x="667" y="124" on="0"/>
        <pt x="575" y="38" on="0"/>
        <pt x="459" y="-10" on="0"/>
        <pt x="394" y="-10" on="1"/>
        <pt x="326" y="-10" on="0"/>
        <pt x="208" y="41" on="0"/>
        <pt x="122" y="129" on="0"/>
        <pt x="73" y="251" on="0"/>
        <pt x="73" y="321" on="1"/>
        <pt x="73" y="400" on="0"/>
        <pt x="133" y="543" on="0"/>
        <pt x="235" y="648" on="0"/>
        <pt x="372" y="711" on="0"/>
        <pt x="448" y="711" on="1"/>
        <pt x="535" y="711" on="0"/>
        <pt x="676" y="643" on="0"/>
        <pt x="723" y="579" on="1"/>
        <pt x="664" y="529" on="1"/>
        <pt x="630" y="581" on="0"/>
        <pt x="512" y="641" on="0"/>
        <pt x="443" y="641" on="1"/>
        <pt x="383" y="641" on="0"/>
        <pt x="275" y="591" on="0"/>
        <pt x="196" y="505" on="0"/>
        <pt x="149" y="389" on="0"/>
        <pt x="149" y="323" on="1"/>
        <pt x="149" y="266" on="0"/>
        <pt x="187" y="169" on="0"/>
        <pt x="254" y="99" on="0"/>
        <pt x="346" y="59" on="0"/>
        <pt x="399" y="59" on="1"/>
        <pt x="448" y="59" on="0"/>
        <pt x="535" y="94" on="0"/>
        <pt x="605" y="157" on="0"/>
        <pt x="654" y="245" on="0"/>
        <pt x="664" y="298" on="1"/>
        <pt x="433" y="298" on="1"/>
        <pt x="444" y="366" on="1"/>
        <pt x="752" y="366" on="1"/>
      </contour>
    </TTGlyph>
    <TTGlyph name="Gbreve" xMin="73" yMin="-10" xMax="752" yMax="931">
      <component glyphName="G" x="0" y="0" flags="0x204"/>
      <component glyphName="breve" x="137" y="212" flags="0x4"/>
    </TTGlyph>
    <TTGlyph name="Gcircumflex" xMin="73" yMin="-10" xMax="752" yMax="918">
      <component glyphName="G" x="0" y="0" flags="0x204"/>
      <component glyphName="circumflex" x="137" y="212" flags="0x4"/>
    </TTGlyph>
    <TTGlyph name="Gcommaaccent" xMin="73" yMin="-274" xMax="752" yMax="711">
      <component glyphName="G" x="0" y="0" flags="0x204"/>
      <component glyphName="commaaccent" x="325" y="0" flags="0x4"/>
    </TTGlyph>
    <TTGlyph name="Gdotaccent" xMin="73" yMin="-10" xMax="752" yMax="915">
      <component glyphName="G" x="0" y="0" flags="0x204"/>
      <component glyphName="dotaccent" x="253" y="212" flags="0x4"/>
    </TTGlyph>
    <TTGlyph name="H" xMin="32" yMin="0" xMax="727" yMax="700">
      <contour>
        <pt x="32" y="0" on="1"/>
        <pt x="181" y="700" on="1"/>
        <pt x="257" y="700" on="1"/>
        <pt x="190" y="387" on="1"/>
        <pt x="584" y="387" on="1"/>
        <pt x="651" y="700" on="1"/>
        <pt x="727" y="700" on="1"/>
        <pt x="578" y="0" on="1"/>
        <pt x="502" y="0" on="1"/>
        <pt x="570" y="318" on="1"/>
        <pt x="176" y="318" on="1"/>
        <pt x="108" y="0" on="1"/>
      </contour>
    </TTGlyph>
    <TTGlyph name="Hbar" xMin="39" yMin="0" xMax="792" yMax="700">
      <contour>
        <pt x="39" y="0" on="1"/>
        <pt x="150" y="521" on="1"/>
        <pt x="66" y="521" on="1"/>
        <pt x="80" y="582" on="1"/>
        <pt x="163" y="582" on="1"/>
        <pt x="188" y="700" on="1"/>
        <pt x="263" y="700" on="1"/>
        <pt x="238" y="582" on="1"/>
        <pt x="633" y="582" on="1"/>
        <pt x="658" y="700" on="1"/>
        <pt x="733" y="700" on="1"/>
        <pt x="708" y="582" on="1"/>
        <pt x="792" y="582" on="1"/>
        <pt x="778" y="521" on="1"/>
        <pt x="695" y="521" on="1"/>
        <pt x="584" y="0" on="1"/>
        <pt x="509" y="0" on="1"/>
        <pt x="577" y="319" on="1"/>
        <pt x="182" y="319" on="1"/>
        <pt x="114" y="0" on="1"/>
      </contour>
      <contour>
        <pt x="196" y="386" on="1"/>
        <pt x="591" y="386" on="1"/>
        <pt x="620" y="521" on="1"/>
        <pt x="225" y="521" on="1"/>
      </contour>
    </TTGlyph>
    <TTGlyph name="Hcircumflex" xMin="32" yMin="0" xMax="727" yMax="918">
      <component glyphName="H" x="0" y="0" flags="0x204"/>
      <component glyphName="circumflex" x="146" y="212" flags="0x4"/>
    </TTGlyph>
    <TTGlyph name="I" xMin="32" yMin="0" xMax="256" yMax="700">
      <contour>
        <pt x="32" y="0" on="1"/>
        <pt x="181" y="700" on="1"/>
        <pt x="256" y="700" on="1"/>
        <pt x="107" y="0" on="1"/>
      </contour>
    </TTGlyph>
    <TTGlyph name="IJ" xMin="32" yMin="-11" xMax="857" yMax="700">
      <component glyphName="I" x="0" y="0" flags="0x4"/>
      <component glyphName="J" x="247" y="0" flags="0x4"/>
    </TTGlyph>
    <TTGlyph name="Iacute" xMin="32" yMin="0" xMax="428" yMax="918">
      <component glyphName="I" x="0" y="0" flags="0x204"/>
      <component glyphName="acute" x="-55" y="212" flags="0x4"/>
    </TTGlyph>
    <TTGlyph name="Ibreve" xMin="32" yMin="0" xMax="416" yMax="931">
      <component glyphName="I" x="0" y="0" flags="0x204"/>
      <component glyphName="breve" x="-91" y="212" flags="0x4"/>
    </TTGlyph>
    <TTGlyph name="Icircumflex" xMin="32" yMin="0" xMax="390" yMax="918">
      <component glyphName="I" x="0" y="0" flags="0x204"/>
      <component glyphName="circumflex" x="-90" y="212" flags="0x4"/>
    </TTGlyph>
    <TTGlyph name="Idieresis" xMin="32" yMin="0" xMax="388" yMax="908">
      <component glyphName="I" x="0" y="0" flags="0x204"/>
      <component glyphName="dieresis" x="-101" y="212" flags="0x4"/>
    </TTGlyph>
    <TTGlyph name="Idotaccent" xMin="32" yMin="0" xMax="302" yMax="915">
      <component glyphName="I" x="0" y="0" flags="0x204"/>
      <component glyphName="dotaccent" x="26" y="212" flags="0x4"/>
    </TTGlyph>
    <TTGlyph name="Igrave" xMin="32" yMin="0" xMax="280" yMax="918">
      <component glyphName="I" x="0" y="0" flags="0x204"/>
      <component glyphName="grave" x="-86" y="212" flags="0x4"/>
    </TTGlyph>
    <TTGlyph name="Imacron" xMin="32" yMin="0" xMax="392" yMax="875">
      <component glyphName="I" x="0" y="0" flags="0x204"/>
      <component glyphName="macron" x="-91" y="212" flags="0x4"/>
    </TTGlyph>
    <TTGlyph name="Iogonek" xMin="-75" yMin="-232" xMax="256" yMax="700">
      <contour>
        <pt x="32" y="0" on="1"/>
        <pt x="181" y="700" on="1"/>
        <pt x="256" y="700" on="1"/>
        <pt x="107" y="0" on="1"/>
        <pt x="41" y="-36" on="0"/>
        <pt x="-24" y="-104" on="0"/>
        <pt x="-24" y="-139" on="1"/>
        <pt x="-24" y="-161" on="0"/>
        <pt x="10" y="-187" on="0"/>
        <pt x="36" y="-187" on="1"/>
        <pt x="46" y="-187" on="0"/>
        <pt x="72" y="-182" on="0"/>
        <pt x="82" y="-178" on="1"/>
        <pt x="86" y="-218" on="1"/>
        <pt x="73" y="-225" on="0"/>
        <pt x="38" y="-232" on="0"/>
        <pt x="20" y="-232" on="1"/>
        <pt x="-23" y="-232" on="0"/>
        <pt x="-75" y="-189" on="0"/>
        <pt x="-75" y="-154" on="1"/>
        <pt x="-75" y="-113" on="0"/>
        <pt x="-14" y="-36" on="0"/>
        <pt x="47" y="0" on="1"/>
      </contour>
    </TTGlyph>
    <TTGlyph name="Itilde" xMin="32" yMin="0" xMax="424" yMax="908">
      <component glyphName="I" x="0" y="0" flags="0x204"/>
      <component glyphName="tilde" x="-86" y="212" flags="0x4"/>
    </TTGlyph>
    <TTGlyph name="J" xMin="11" yMin="-11" xMax="610" yMax="700">
      <contour>
        <pt x="516" y="257" on="1"/>
        <pt x="488" y="129" on="0"/>
        <pt x="342" y="-11" on="0"/>
        <pt x="235" y="-11" on="1"/>
        <pt x="147" y="-11" on="0"/>
        <pt x="28" y="86" on="0"/>
        <pt x="11" y="171" on="1"/>
        <pt x="79" y="196" on="1"/>
        <pt x="93" y="128" on="0"/>
        <pt x="172" y="59" on="0"/>
        <pt x="235" y="59" on="1"/>
        <pt x="311" y="59" on="0"/>
        <pt x="420" y="168" on="0"/>
        <pt x="441" y="264" on="1"/>
        <pt x="534" y="700" on="1"/>
        <pt x="610" y="700" on="1"/>
      </contour>
    </TTGlyph>
    <TTGlyph name="Jcircumflex" xMin="11" yMin="-11" xMax="740" yMax="918">
      <component glyphName="J" x="0" y="0" flags="0x204"/>
      <component glyphName="circumflex" x="260" y="212" flags="0x4"/>
    </TTGlyph>
    <TTGlyph name="K" xMin="34" yMin="0" xMax="689" yMax="700">
      <contour>
        <pt x="34" y="0" on="1"/>
        <pt x="183" y="700" on="1"/>
        <pt x="258" y="700" on="1"/>
        <pt x="189" y="378" on="1"/>
        <pt x="588" y="700" on="1"/>
        <pt x="689" y="700" on="1"/>
        <pt x="263" y="357" on="1"/>
        <pt x="544" y="0" on="1"/>
        <pt x="449" y="0" on="1"/>
        <pt x="182" y="344" on="1"/>
        <pt x="109" y="0" on="1"/>
      </contour>
    </TTGlyph>
    <TTGlyph name="Kcommaaccent" xMin="34" yMin="-274" xMax="689" yMax="700">
      <component glyphName="K" x="0" y="0" flags="0x204"/>
      <component glyphName="commaaccent" x="222" y="0" flags="0x4"/>
    </TTGlyph>
    <TTGlyph name="L" xMin="34" yMin="0" xMax="510" yMax="700">
      <contour>
        <pt x="34" y="0" on="1"/>
        <pt x="183" y="700" on="1"/>
        <pt x="258" y="700" on="1"/>
        <pt x="123" y="68" on="1"/>
        <pt x="510" y="68" on="1"/>
        <pt x="496" y="0" on="1"/>
      </contour>
    </TTGlyph>
    <TTGlyph name="Lacute" xMin="34" yMin="0" xMax="510" yMax="918">
      <component glyphName="L" x="0" y="0" flags="0x204"/>
      <component glyphName="acute" x="-53" y="212" flags="0x4"/>
    </TTGlyph>
    <TTGlyph name="Lcaron" xMin="34" yMin="0" xMax="564" yMax="714">
      <component glyphName="L" x="0" y="0" flags="0x4"/>
      <component glyphName="caronSlovak" x="194" y="0" flags="0x4"/>
    </TTGlyph>
    <TTGlyph name="Lcommaaccent" xMin="34" yMin="-274" xMax="510" yMax="700">
      <component glyphName="L" x="0" y="0" flags="0x204"/>
      <component glyphName="commaaccent" x="219" y="0" flags="0x4"/>
    </TTGlyph>
    <TTGlyph name="Ldot" xMin="34" yMin="0" xMax="510" yMax="700">
      <component glyphName="L" x="0" y="0" flags="0x4"/>
      <component glyphName="dotaccent" x="203" y="-296" flags="0x4"/>
    </TTGlyph>
    <TTGlyph name="Lslash" xMin="-4" yMin="0" xMax="528" yMax="700">
      <contour>
        <pt x="52" y="0" on="1"/>
        <pt x="104" y="243" on="1"/>
        <pt x="-4" y="170" on="1"/>
        <pt x="12" y="246" on="1"/>
        <pt x="120" y="319" on="1"/>
        <pt x="201" y="700" on="1"/>
        <pt x="276" y="700" on="1"/>
        <pt x="207" y="378" on="1"/>
        <pt x="410" y="515" on="1"/>
        <pt x="395" y="439" on="1"/>
        <pt x="191" y="302" on="1"/>
        <pt x="141" y="68" on="1"/>
        <pt x="528" y="68" on="1"/>
        <pt x="514" y="0" on="1"/>
      </contour>
    </TTGlyph>
    <TTGlyph name="M" xMin="34" yMin="0" xMax="851" yMax="700">
      <contour>
        <pt x="380" y="50" on="1"/>
        <pt x="235" y="612" on="1"/>
        <pt x="105" y="0" on="1"/>
        <pt x="34" y="0" on="1"/>
        <pt x="183" y="700" on="1"/>
        <pt x="284" y="700" on="1"/>
        <pt x="409" y="201" on="1"/>
        <pt x="743" y="700" on="1"/>
        <pt x="851" y="700" on="1"/>
        <pt x="702" y="0" on="1"/>
        <pt x="632" y="0" on="1"/>
        <pt x="761" y="609" on="1"/>
      </contour>
    </TTGlyph>
    <TTGlyph name="N" xMin="34" yMin="0" xMax="732" yMax="700">
      <contour>
        <pt x="182" y="700" on="1"/>
        <pt x="260" y="700" on="1"/>
        <pt x="540" y="113" on="1"/>
        <pt x="661" y="700" on="1"/>
        <pt x="732" y="700" on="1"/>
        <pt x="584" y="0" on="1"/>
        <pt x="516" y="0" on="1"/>
        <pt x="229" y="599" on="1"/>
        <pt x="105" y="0" on="1"/>
        <pt x="34" y="0" on="1"/>
      </contour>
    </TTGlyph>
    <TTGlyph name="Nacute" xMin="34" yMin="0" xMax="732" yMax="918">
      <component glyphName="N" x="0" y="0" flags="0x204"/>
      <component glyphName="acute" x="177" y="212" flags="0x4"/>
    </TTGlyph>
    <TTGlyph name="Ncaron" xMin="34" yMin="0" xMax="732" yMax="922">
      <component glyphName="N" x="0" y="0" flags="0x204"/>
      <component glyphName="caron" x="142" y="212" flags="0x4"/>
    </TTGlyph>
    <TTGlyph name="Ncommaaccent" xMin="34" yMin="-274" xMax="732" yMax="700">
      <component glyphName="N" x="0" y="0" flags="0x204"/>
      <component glyphName="commaaccent" x="238" y="0" flags="0x4"/>
    </TTGlyph>
    <TTGlyph name="Ntilde" xMin="34" yMin="0" xMax="732" yMax="908">
      <component glyphName="N" x="0" y="0" flags="0x204"/>
      <component glyphName="tilde" x="146" y="212" flags="0x4"/>
    </TTGlyph>
    <TTGlyph name="O" xMin="75" yMin="-11" xMax="759" yMax="711">
      <contour>
        <pt x="759" y="380" on="1"/>
        <pt x="759" y="301" on="0"/>
        <pt x="700" y="158" on="0"/>
        <pt x="601" y="52" on="0"/>
        <pt x="467" y="-11" on="0"/>
        <pt x="392" y="-11" on="1"/>
        <pt x="325" y="-11" on="0"/>
        <pt x="208" y="40" on="0"/>
        <pt x="124" y="128" on="0"/>
        <pt x="75" y="250" on="0"/>
        <pt x="75" y="320" on="1"/>
        <pt x="75" y="399" on="0"/>
        <pt x="134" y="542" on="0"/>
        <pt x="233" y="648" on="0"/>
        <pt x="367" y="711" on="0"/>
        <pt x="442" y="711" on="1"/>
        <pt x="510" y="711" on="0"/>
        <pt x="626" y="660" on="0"/>
        <pt x="711" y="572" on="0"/>
        <pt x="759" y="450" on="0"/>
      </contour>
      <contour>
        <pt x="683" y="376" on="1"/>
        <pt x="683" y="433" on="0"/>
        <pt x="646" y="530" on="0"/>
        <pt x="580" y="601" on="0"/>
        <pt x="490" y="641" on="0"/>
        <pt x="438" y="641" on="1"/>
        <pt x="379" y="641" on="0"/>
        <pt x="274" y="590" on="0"/>
        <pt x="196" y="504" on="0"/>
        <pt x="151" y="389" on="0"/>
        <pt x="151" y="324" on="1"/>
        <pt x="151" y="268" on="0"/>
        <pt x="188" y="170" on="0"/>
        <pt x="254" y="100" on="0"/>
        <pt x="344" y="59" on="0"/>
        <pt x="397" y="59" on="1"/>
        <pt x="456" y="59" on="0"/>
        <pt x="560" y="109" on="0"/>
        <pt x="638" y="195" on="0"/>
        <pt x="683" y="311" on="0"/>
      </contour>
    </TTGlyph>
    <TTGlyph name="OE" xMin="73" yMin="0" xMax="1090" yMax="700">
      <contour>
        <pt x="378" y="0" on="1"/>
        <pt x="312" y="0" on="0"/>
        <pt x="199" y="47" on="0"/>
        <pt x="118" y="130" on="0"/>
        <pt x="73" y="246" on="0"/>
        <pt x="73" y="314" on="1"/>
        <pt x="73" y="393" on="0"/>
        <pt x="132" y="535" on="0"/>
        <pt x="233" y="639" on="0"/>
        <pt x="370" y="700" on="0"/>
        <pt x="447" y="700" on="1"/>
        <pt x="1090" y="700" on="1"/>
        <pt x="1075" y="632" on="1"/>
        <pt x="616" y="632" on="1"/>
        <pt x="667" y="591" on="0"/>
        <pt x="727" y="462" on="0"/>
        <pt x="727" y="387" on="1"/>
        <pt x="904" y="387" on="1"/>
        <pt x="889" y="320" on="1"/>
        <pt x="721" y="320" on="1"/>
        <pt x="708" y="243" on="0"/>
        <pt x="624" y="111" on="0"/>
        <pt x="564" y="68" on="1"/>
        <pt x="955" y="68" on="1"/>
        <pt x="941" y="0" on="1"/>
      </contour>
      <contour>
        <pt x="374" y="70" on="1"/>
        <pt x="431" y="70" on="0"/>
        <pt x="533" y="120" on="0"/>
        <pt x="609" y="205" on="0"/>
        <pt x="654" y="319" on="0"/>
        <pt x="654" y="383" on="1"/>
        <pt x="654" y="436" on="0"/>
        <pt x="620" y="527" on="0"/>
        <pt x="561" y="593" on="0"/>
        <pt x="479" y="630" on="0"/>
        <pt x="430" y="630" on="1"/>
        <pt x="373" y="630" on="0"/>
        <pt x="271" y="580" on="0"/>
        <pt x="194" y="495" on="0"/>
        <pt x="149" y="381" on="0"/>
        <pt x="149" y="318" on="1"/>
        <pt x="149" y="264" on="0"/>
        <pt x="183" y="173" on="0"/>
        <pt x="242" y="107" on="0"/>
        <pt x="325" y="70" on="0"/>
      </contour>
    </TTGlyph>
    <TTGlyph name="Oacute" xMin="75" yMin="-11" xMax="759" yMax="918">
      <component glyphName="O" x="0" y="0" flags="0x204"/>
      <component glyphName="acute" x="176" y="212" flags="0x4"/>
    </TTGlyph>
    <TTGlyph name="Obreve" xMin="75" yMin="-11" xMax="759" yMax="931">
      <component glyphName="O" x="0" y="0" flags="0x204"/>
      <component glyphName="breve" x="140" y="212" flags="0x4"/>
    </TTGlyph>
    <TTGlyph name="Ocircumflex" xMin="75" yMin="-11" xMax="759" yMax="918">
      <component glyphName="O" x="0" y="0" flags="0x204"/>
      <component glyphName="circumflex" x="141" y="212" flags="0x4"/>
    </TTGlyph>
    <TTGlyph name="Odieresis" xMin="75" yMin="-11" xMax="759" yMax="908">
      <component glyphName="O" x="0" y="0" flags="0x204"/>
      <component glyphName="dieresis" x="131" y="212" flags="0x4"/>
    </TTGlyph>
    <TTGlyph name="Ograve" xMin="75" yMin="-11" xMax="759" yMax="918">
      <component glyphName="O" x="0" y="0" flags="0x204"/>
      <component glyphName="grave" x="145" y="212" flags="0x4"/>
    </TTGlyph>
    <TTGlyph name="Ohungarumlaut" xMin="75" yMin="-11" xMax="759" yMax="918">
      <component glyphName="O" x="0" y="0" flags="0x204"/>
      <component glyphName="hungarumlaut" x="152" y="212" flags="0x4"/>
    </TTGlyph>
    <TTGlyph name="Omacron" xMin="75" yMin="-11" xMax="759" yMax="875">
      <component glyphName="O" x="0" y="0" flags="0x204"/>
      <component glyphName="macron" x="140" y="212" flags="0x4"/>
    </TTGlyph>
    <TTGlyph name="Oslash" xMin="22" yMin="-11" xMax="814" yMax="711">
      <contour>
        <pt x="99" y="-5" on="1"/>
        <pt x="22" y="-5" on="1"/>
        <pt x="141" y="113" on="1"/>
        <pt x="110" y="155" on="0"/>
        <pt x="75" y="261" on="0"/>
        <pt x="75" y="320" on="1"/>
        <pt x="75" y="399" on="0"/>
        <pt x="134" y="542" on="0"/>
        <pt x="233" y="648" on="0"/>
        <pt x="367" y="711" on="0"/>
        <pt x="442" y="711" on="1"/>
        <pt x="505" y="711" on="0"/>
        <pt x="616" y="667" on="0"/>
        <pt x="657" y="627" on="1"/>
        <pt x="736" y="705" on="1"/>
        <pt x="814" y="705" on="1"/>
        <pt x="694" y="586" on="1"/>
        <pt x="725" y="544" on="0"/>
        <pt x="759" y="439" on="0"/>
        <pt x="759" y="380" on="1"/>
        <pt x="759" y="301" on="0"/>
        <pt x="700" y="158" on="0"/>
        <pt x="601" y="52" on="0"/>
        <pt x="467" y="-11" on="0"/>
        <pt x="392" y="-11" on="1"/>
        <pt x="329" y="-11" on="0"/>
        <pt x="219" y="33" on="0"/>
        <pt x="177" y="73" on="1"/>
      </contour>
      <contour>
        <pt x="151" y="324" on="1"/>
        <pt x="151" y="280" on="0"/>
        <pt x="174" y="200" on="0"/>
        <pt x="196" y="168" on="1"/>
        <pt x="604" y="574" on="1"/>
        <pt x="572" y="605" on="0"/>
        <pt x="487" y="641" on="0"/>
        <pt x="438" y="641" on="1"/>
        <pt x="379" y="641" on="0"/>
        <pt x="274" y="590" on="0"/>
        <pt x="196" y="504" on="0"/>
        <pt x="151" y="389" on="0"/>
      </contour>
      <contour>
        <pt x="683" y="376" on="1"/>
        <pt x="683" y="420" on="0"/>
        <pt x="660" y="500" on="0"/>
        <pt x="639" y="532" on="1"/>
        <pt x="230" y="125" on="1"/>
        <pt x="262" y="94" on="0"/>
        <pt x="348" y="59" on="0"/>
        <pt x="397" y="59" on="1"/>
        <pt x="456" y="59" on="0"/>
        <pt x="560" y="109" on="0"/>
        <pt x="638" y="195" on="0"/>
        <pt x="683" y="311" on="0"/>
      </contour>
    </TTGlyph>
    <TTGlyph name="Otilde" xMin="75" yMin="-11" xMax="759" yMax="908">
      <component glyphName="O" x="0" y="0" flags="0x204"/>
      <component glyphName="tilde" x="145" y="212" flags="0x4"/>
    </TTGlyph>
    <TTGlyph name="P" xMin="34" yMin="0" xMax="642" yMax="700">
      <contour>
        <pt x="34" y="0" on="1"/>
        <pt x="183" y="700" on="1"/>
        <pt x="445" y="700" on="1"/>
        <pt x="535" y="700" on="0"/>
        <pt x="642" y="603" on="0"/>
        <pt x="642" y="520" on="1"/>
        <pt x="642" y="469" on="0"/>
        <pt x="605" y="383" on="0"/>
        <pt x="540" y="321" on="0"/>
        <pt x="450" y="286" on="0"/>
        <pt x="397" y="286" on="1"/>
        <pt x="170" y="286" on="1"/>
        <pt x="109" y="0" on="1"/>
      </contour>
      <contour>
        <pt x="432" y="632" on="1"/>
        <pt x="244" y="632" on="1"/>
        <pt x="184" y="352" on="1"/>
        <pt x="394" y="352" on="1"/>
        <pt x="470" y="352" on="0"/>
        <pt x="567" y="443" on="0"/>
        <pt x="567" y="515" on="1"/>
        <pt x="567" y="569" on="0"/>
        <pt x="495" y="632" on="0"/>
      </contour>
    </TTGlyph>
    <TTGlyph name="Q" xMin="75" yMin="-33" xMax="759" yMax="711">
      <contour>
        <pt x="759" y="380" on="1"/>
        <pt x="759" y="290" on="0"/>
        <pt x="684" y="131" on="0"/>
        <pt x="621" y="77" on="1"/>
        <pt x="670" y="3" on="1"/>
        <pt x="616" y="-33" on="1"/>
        <pt x="569" y="39" on="1"/>
        <pt x="529" y="15" on="0"/>
        <pt x="440" y="-11" on="0"/>
        <pt x="392" y="-11" on="1"/>
        <pt x="325" y="-11" on="0"/>
        <pt x="208" y="40" on="0"/>
        <pt x="124" y="128" on="0"/>
        <pt x="75" y="250" on="0"/>
        <pt x="75" y="320" on="1"/>
        <pt x="75" y="399" on="0"/>
        <pt x="134" y="542" on="0"/>
        <pt x="233" y="648" on="0"/>
        <pt x="367" y="711" on="0"/>
        <pt x="442" y="711" on="1"/>
        <pt x="510" y="711" on="0"/>
        <pt x="626" y="660" on="0"/>
        <pt x="711" y="572" on="0"/>
        <pt x="759" y="450" on="0"/>
      </contour>
      <contour>
        <pt x="513" y="240" on="1"/>
        <pt x="582" y="135" on="1"/>
        <pt x="628" y="179" on="0"/>
        <pt x="683" y="304" on="0"/>
        <pt x="683" y="376" on="1"/>
        <pt x="683" y="433" on="0"/>
        <pt x="646" y="530" on="0"/>
        <pt x="580" y="601" on="0"/>
        <pt x="490" y="641" on="0"/>
        <pt x="438" y="641" on="1"/>
        <pt x="379" y="641" on="0"/>
        <pt x="274" y="590" on="0"/>
        <pt x="196" y="504" on="0"/>
        <pt x="151" y="389" on="0"/>
        <pt x="151" y="324" on="1"/>
        <pt x="151" y="268" on="0"/>
        <pt x="188" y="170" on="0"/>
        <pt x="254" y="100" on="0"/>
        <pt x="344" y="59" on="0"/>
        <pt x="397" y="59" on="1"/>
        <pt x="433" y="59" on="0"/>
        <pt x="501" y="79" on="0"/>
        <pt x="531" y="96" on="1"/>
        <pt x="460" y="204" on="1"/>
      </contour>
    </TTGlyph>
    <TTGlyph name="R" xMin="34" yMin="0" xMax="640" yMax="700">
      <contour>
        <pt x="34" y="0" on="1"/>
        <pt x="183" y="700" on="1"/>
        <pt x="446" y="700" on="1"/>
        <pt x="535" y="700" on="0"/>
        <pt x="640" y="604" on="0"/>
        <pt x="640" y="523" on="1"/>
        <pt x="640" y="439" on="0"/>
        <pt x="535" y="319" on="0"/>
        <pt x="451" y="304" on="1"/>
        <pt x="542" y="0" on="1"/>
        <pt x="463" y="0" on="1"/>
        <pt x="375" y="299" on="1"/>
        <pt x="173" y="299" on="1"/>
        <pt x="109" y="0" on="1"/>
      </contour>
      <contour>
        <pt x="435" y="632" on="1"/>
        <pt x="244" y="632" on="1"/>
        <pt x="186" y="363" on="1"/>
        <pt x="397" y="363" on="1"/>
        <pt x="470" y="363" on="0"/>
        <pt x="565" y="450" on="0"/>
        <pt x="565" y="518" on="1"/>
        <pt x="565" y="570" on="0"/>
        <pt x="495" y="632" on="0"/>
      </contour>
    </TTGlyph>
    <TTGlyph name="Racute" xMin="34" yMin="0" xMax="640" yMax="918">
      <component glyphName="R" x="0" y="0" flags="0x204"/>
      <component glyphName="acute" x="131" y="212" flags="0x4"/>
    </TTGlyph>
    <TTGlyph name="Rcaron" xMin="34" yMin="0" xMax="640" yMax="922">
      <component glyphName="R" x="0" y="0" flags="0x204"/>
      <component glyphName="caron" x="97" y="212" flags="0x4"/>
    </TTGlyph>
    <TTGlyph name="Rcommaaccent" xMin="34" yMin="-274" xMax="640" yMax="700">
      <component glyphName="R" x="0" y="0" flags="0x204"/>
      <component glyphName="commaaccent" x="196" y="0" flags="0x4"/>
    </TTGlyph>
    <TTGlyph name="S" xMin="17" yMin="-10" xMax="612" yMax="709">
      <contour>
        <pt x="17" y="131" on="1"/>
        <pt x="68" y="183" on="1"/>
        <pt x="128" y="118" on="0"/>
        <pt x="245" y="54" on="0"/>
        <pt x="308" y="54" on="1"/>
        <pt x="386" y="54" on="0"/>
        <pt x="491" y="136" on="0"/>
        <pt x="491" y="198" on="1"/>
        <pt x="491" y="241" on="0"/>
        <pt x="430" y="294" on="0"/>
        <pt x="356" y="315" on="1"/>
        <pt x="249" y="342" on="1"/>
        <pt x="171" y="362" on="0"/>
        <pt x="92" y="448" on="0"/>
        <pt x="92" y="511" on="1"/>
        <pt x="92" y="600" on="0"/>
        <pt x="225" y="709" on="0"/>
        <pt x="333" y="709" on="1"/>
        <pt x="412" y="709" on="0"/>
        <pt x="558" y="652" on="0"/>
        <pt x="612" y="599" on="1"/>
        <pt x="564" y="544" on="1"/>
        <pt x="515" y="592" on="0"/>
        <pt x="393" y="644" on="0"/>
        <pt x="330" y="644" on="1"/>
        <pt x="256" y="644" on="0"/>
        <pt x="166" y="576" on="0"/>
        <pt x="166" y="521" on="1"/>
        <pt x="166" y="478" on="0"/>
        <pt x="222" y="424" on="0"/>
        <pt x="280" y="408" on="1"/>
        <pt x="385" y="382" on="1"/>
        <pt x="479" y="356" on="0"/>
        <pt x="566" y="273" on="0"/>
        <pt x="566" y="209" on="1"/>
        <pt x="566" y="160" on="0"/>
        <pt x="528" y="79" on="0"/>
        <pt x="460" y="22" on="0"/>
        <pt x="363" y="-10" on="0"/>
        <pt x="306" y="-10" on="1"/>
        <pt x="224" y="-10" on="0"/>
        <pt x="77" y="62" on="0"/>
      </contour>
    </TTGlyph>
    <TTGlyph name="Sacute" xMin="17" yMin="-10" xMax="612" yMax="918">
      <component glyphName="S" x="0" y="0" flags="0x204"/>
      <component glyphName="acute" x="74" y="212" flags="0x4"/>
    </TTGlyph>
    <TTGlyph name="Scaron" xMin="17" yMin="-10" xMax="612" yMax="922">
      <component glyphName="S" x="0" y="0" flags="0x204"/>
      <component glyphName="caron" x="40" y="212" flags="0x4"/>
    </TTGlyph>
    <TTGlyph name="Scedilla" xMin="17" yMin="-239" xMax="612" yMax="709">
      <contour>
        <pt x="17" y="131" on="1"/>
        <pt x="68" y="183" on="1"/>
        <pt x="128" y="118" on="0"/>
        <pt x="245" y="54" on="0"/>
        <pt x="308" y="54" on="1"/>
        <pt x="386" y="54" on="0"/>
        <pt x="491" y="136" on="0"/>
        <pt x="491" y="198" on="1"/>
        <pt x="491" y="241" on="0"/>
        <pt x="430" y="294" on="0"/>
        <pt x="356" y="315" on="1"/>
        <pt x="249" y="342" on="1"/>
        <pt x="171" y="362" on="0"/>
        <pt x="92" y="448" on="0"/>
        <pt x="92" y="511" on="1"/>
        <pt x="92" y="600" on="0"/>
        <pt x="225" y="709" on="0"/>
        <pt x="333" y="709" on="1"/>
        <pt x="412" y="709" on="0"/>
        <pt x="558" y="652" on="0"/>
        <pt x="612" y="599" on="1"/>
        <pt x="564" y="544" on="1"/>
        <pt x="515" y="592" on="0"/>
        <pt x="393" y="644" on="0"/>
        <pt x="330" y="644" on="1"/>
        <pt x="256" y="644" on="0"/>
        <pt x="166" y="576" on="0"/>
        <pt x="166" y="521" on="1"/>
        <pt x="166" y="478" on="0"/>
        <pt x="222" y="424" on="0"/>
        <pt x="280" y="408" on="1"/>
        <pt x="385" y="382" on="1"/>
        <pt x="479" y="356" on="0"/>
        <pt x="566" y="273" on="0"/>
        <pt x="566" y="209" on="1"/>
        <pt x="566" y="160" on="0"/>
        <pt x="528" y="79" on="0"/>
        <pt x="460" y="22" on="0"/>
        <pt x="365" y="-10" on="0"/>
        <pt x="309" y="-10" on="1"/>
        <pt x="284" y="-66" on="1"/>
        <pt x="322" y="-70" on="0"/>
        <pt x="365" y="-107" on="0"/>
        <pt x="365" y="-138" on="1"/>
        <pt x="365" y="-181" on="0"/>
        <pt x="298" y="-239" on="0"/>
        <pt x="249" y="-239" on="1"/>
        <pt x="215" y="-239" on="0"/>
        <pt x="159" y="-217" on="0"/>
        <pt x="143" y="-197" on="1"/>
        <pt x="174" y="-167" on="1"/>
        <pt x="189" y="-183" on="0"/>
        <pt x="225" y="-199" on="0"/>
        <pt x="247" y="-199" on="1"/>
        <pt x="280" y="-199" on="0"/>
        <pt x="319" y="-169" on="0"/>
        <pt x="319" y="-144" on="1"/>
        <pt x="319" y="-123" on="0"/>
        <pt x="285" y="-99" on="0"/>
        <pt x="255" y="-99" on="1"/>
        <pt x="227" y="-99" on="1"/>
        <pt x="267" y="-8" on="1"/>
        <pt x="197" y="-1" on="0"/>
        <pt x="70" y="70" on="0"/>
      </contour>
    </TTGlyph>
    <TTGlyph name="Scircumflex" xMin="17" yMin="-10" xMax="612" yMax="918">
      <component glyphName="S" x="0" y="0" flags="0x204"/>
      <component glyphName="circumflex" x="39" y="212" flags="0x4"/>
    </TTGlyph>
    <TTGlyph name="Scommaaccent" xMin="17" yMin="-274" xMax="612" yMax="709">
      <component glyphName="S" x="0" y="0" flags="0x204"/>
      <component glyphName="commaaccent" x="227" y="0" flags="0x4"/>
    </TTGlyph>
    <TTGlyph name="T" xMin="108" yMin="0" xMax="671" yMax="700">
      <contour>
        <pt x="108" y="632" on="1"/>
        <pt x="123" y="700" on="1"/>
        <pt x="671" y="700" on="1"/>
        <pt x="656" y="632" on="1"/>
        <pt x="421" y="632" on="1"/>
        <pt x="286" y="0" on="1"/>
        <pt x="211" y="0" on="1"/>
        <pt x="346" y="632" on="1"/>
      </contour>
    </TTGlyph>
    <TTGlyph name="Tbar" xMin="108" yMin="0" xMax="671" yMax="700">
      <contour>
        <pt x="139" y="370" on="1"/>
        <pt x="290" y="370" on="1"/>
        <pt x="346" y="632" on="1"/>
        <pt x="108" y="632" on="1"/>
        <pt x="123" y="700" on="1"/>
        <pt x="671" y="700" on="1"/>
        <pt x="656" y="632" on="1"/>
        <pt x="421" y="632" on="1"/>
        <pt x="365" y="370" on="1"/>
        <pt x="517" y="370" on="1"/>
        <pt x="502" y="308" on="1"/>
        <pt x="352" y="308" on="1"/>
        <pt x="286" y="0" on="1"/>
        <pt x="211" y="0" on="1"/>
        <pt x="277" y="308" on="1"/>
        <pt x="124" y="308" on="1"/>
      </contour>
    </TTGlyph>
    <TTGlyph name="Tcaron" xMin="108" yMin="0" xMax="671" yMax="922">
      <component glyphName="T" x="0" y="0" flags="0x204"/>
      <component glyphName="caron" x="89" y="212" flags="0x4"/>
    </TTGlyph>
    <TTGlyph name="Tcedilla" xMin="101" yMin="-239" xMax="671" yMax="700">
      <contour>
        <pt x="108" y="632" on="1"/>
        <pt x="123" y="700" on="1"/>
        <pt x="671" y="700" on="1"/>
        <pt x="656" y="632" on="1"/>
        <pt x="421" y="632" on="1"/>
        <pt x="286" y="0" on="1"/>
        <pt x="271" y="0" on="1"/>
        <pt x="242" y="-66" on="1"/>
        <pt x="280" y="-70" on="0"/>
        <pt x="323" y="-107" on="0"/>
        <pt x="323" y="-138" on="1"/>
        <pt x="323" y="-181" on="0"/>
        <pt x="256" y="-239" on="0"/>
        <pt x="207" y="-239" on="1"/>
        <pt x="173" y="-239" on="0"/>
        <pt x="117" y="-217" on="0"/>
        <pt x="101" y="-197" on="1"/>
        <pt x="132" y="-167" on="1"/>
        <pt x="147" y="-183" on="0"/>
        <pt x="183" y="-199" on="0"/>
        <pt x="205" y="-199" on="1"/>
        <pt x="238" y="-199" on="0"/>
        <pt x="277" y="-169" on="0"/>
        <pt x="277" y="-144" on="1"/>
        <pt x="277" y="-123" on="0"/>
        <pt x="243" y="-99" on="0"/>
        <pt x="213" y="-99" on="1"/>
        <pt x="185" y="-99" on="1"/>
        <pt x="229" y="0" on="1"/>
        <pt x="211" y="0" on="1"/>
        <pt x="346" y="632" on="1"/>
      </contour>
    </TTGlyph>
    <TTGlyph name="Thorn" xMin="34" yMin="0" xMax="614" yMax="700">
      <contour>
        <pt x="34" y="0" on="1"/>
        <pt x="183" y="700" on="1"/>
        <pt x="258" y="700" on="1"/>
        <pt x="227" y="553" on="1"/>
        <pt x="407" y="553" on="1"/>
        <pt x="508" y="553" on="0"/>
        <pt x="614" y="464" on="0"/>
        <pt x="614" y="381" on="1"/>
        <pt x="614" y="277" on="0"/>
        <pt x="475" y="152" on="0"/>
        <pt x="359" y="152" on="1"/>
        <pt x="141" y="152" on="1"/>
        <pt x="109" y="0" on="1"/>
      </contour>
      <contour>
        <pt x="396" y="485" on="1"/>
        <pt x="212" y="485" on="1"/>
        <pt x="155" y="217" on="1"/>
        <pt x="358" y="217" on="1"/>
        <pt x="444" y="217" on="0"/>
        <pt x="539" y="301" on="0"/>
        <pt x="539" y="376" on="1"/>
        <pt x="539" y="431" on="0"/>
        <pt x="468" y="485" on="0"/>
      </contour>
    </TTGlyph>
    <TTGlyph name="U" xMin="76" yMin="-11" xMax="719" yMax="700">
      <contour>
        <pt x="631" y="289" on="1"/>
        <pt x="600" y="145" on="0"/>
        <pt x="440" y="-11" on="0"/>
        <pt x="322" y="-11" on="1"/>
        <pt x="255" y="-11" on="0"/>
        <pt x="153" y="36" on="0"/>
        <pt x="90" y="118" on="0"/>
        <pt x="70" y="234" on="0"/>
        <pt x="85" y="303" on="1"/>
        <pt x="169" y="700" on="1"/>
        <pt x="245" y="700" on="1"/>
        <pt x="159" y="299" on="1"/>
        <pt x="148" y="246" on="0"/>
        <pt x="161" y="158" on="0"/>
        <pt x="205" y="95" on="0"/>
        <pt x="278" y="59" on="0"/>
        <pt x="325" y="59" on="1"/>
        <pt x="410" y="59" on="0"/>
        <pt x="533" y="183" on="0"/>
        <pt x="557" y="293" on="1"/>
        <pt x="644" y="700" on="1"/>
        <pt x="719" y="700" on="1"/>
      </contour>
    </TTGlyph>
    <TTGlyph name="Uacute" xMin="76" yMin="-11" xMax="719" yMax="918">
      <component glyphName="U" x="0" y="0" flags="0x204"/>
      <component glyphName="acute" x="164" y="212" flags="0x4"/>
    </TTGlyph>
    <TTGlyph name="Ubreve" xMin="76" yMin="-11" xMax="719" yMax="931">
      <component glyphName="U" x="0" y="0" flags="0x204"/>
      <component glyphName="breve" x="128" y="212" flags="0x4"/>
    </TTGlyph>
    <TTGlyph name="Ucircumflex" xMin="76" yMin="-11" xMax="719" yMax="918">
      <component glyphName="U" x="0" y="0" flags="0x204"/>
      <component glyphName="circumflex" x="128" y="212" flags="0x4"/>
    </TTGlyph>
    <TTGlyph name="Udieresis" xMin="76" yMin="-11" xMax="719" yMax="908">
      <component glyphName="U" x="0" y="0" flags="0x204"/>
      <component glyphName="dieresis" x="118" y="212" flags="0x4"/>
    </TTGlyph>
    <TTGlyph name="Ugrave" xMin="76" yMin="-11" xMax="719" yMax="918">
      <component glyphName="U" x="0" y="0" flags="0x204"/>
      <component glyphName="grave" x="133" y="212" flags="0x4"/>
    </TTGlyph>
    <TTGlyph name="Uhungarumlaut" xMin="76" yMin="-11" xMax="729" yMax="918">
      <component glyphName="U" x="0" y="0" flags="0x204"/>
      <component glyphName="hungarumlaut" x="140" y="212" flags="0x4"/>
    </TTGlyph>
    <TTGlyph name="Umacron" xMin="76" yMin="-11" xMax="719" yMax="875">
      <component glyphName="U" x="0" y="0" flags="0x204"/>
      <component glyphName="macron" x="128" y="212" flags="0x4"/>
    </TTGlyph>
    <TTGlyph name="Uogonek" xMin="76" yMin="-232" xMax="719" yMax="700">
      <contour>
        <pt x="631" y="289" on="1"/>
        <pt x="605" y="166" on="0"/>
        <pt x="480" y="15" on="0"/>
        <pt x="388" y="-4" on="1"/>
        <pt x="326" y="-39" on="0"/>
        <pt x="265" y="-105" on="0"/>
        <pt x="265" y="-139" on="1"/>
        <pt x="265" y="-161" on="0"/>
        <pt x="299" y="-187" on="0"/>
        <pt x="325" y="-187" on="1"/>
        <pt x="335" y="-187" on="0"/>
        <pt x="361" y="-182" on="0"/>
        <pt x="371" y="-178" on="1"/>
        <pt x="375" y="-218" on="1"/>
        <pt x="362" y="-225" on="0"/>
        <pt x="327" y="-232" on="0"/>
        <pt x="309" y="-232" on="1"/>
        <pt x="266" y="-232" on="0"/>
        <pt x="214" y="-189" on="0"/>
        <pt x="214" y="-154" on="1"/>
        <pt x="214" y="-116" on="0"/>
        <pt x="267" y="-45" on="0"/>
        <pt x="318" y="-11" on="1"/>
        <pt x="252" y="-10" on="0"/>
        <pt x="151" y="37" on="0"/>
        <pt x="90" y="119" on="0"/>
        <pt x="70" y="235" on="0"/>
        <pt x="85" y="303" on="1"/>
        <pt x="169" y="700" on="1"/>
        <pt x="245" y="700" on="1"/>
        <pt x="159" y="299" on="1"/>
        <pt x="148" y="246" on="0"/>
        <pt x="161" y="158" on="0"/>
        <pt x="205" y="95" on="0"/>
        <pt x="278" y="59" on="0"/>
        <pt x="325" y="59" on="1"/>
        <pt x="410" y="59" on="0"/>
        <pt x="533" y="183" on="0"/>
        <pt x="557" y="293" on="1"/>
        <pt x="644" y="700" on="1"/>
        <pt x="719" y="700" on="1"/>
      </contour>
    </TTGlyph>
    <TTGlyph name="Uring" xMin="76" yMin="-11" xMax="719" yMax="1006">
      <component glyphName="U" x="0" y="0" flags="0x204"/>
      <component glyphName="ring" x="128" y="212" flags="0x4"/>
    </TTGlyph>
    <TTGlyph name="Utilde" xMin="76" yMin="-11" xMax="719" yMax="908">
      <component glyphName="U" x="0" y="0" flags="0x204"/>
      <component glyphName="tilde" x="133" y="212" flags="0x4"/>
    </TTGlyph>
    <TTGlyph name="V" xMin="105" yMin="0" xMax="733" yMax="700">
      <contour>
        <pt x="227" y="0" on="1"/>
        <pt x="105" y="700" on="1"/>
        <pt x="181" y="700" on="1"/>
        <pt x="285" y="72" on="1"/>
        <pt x="651" y="700" on="1"/>
        <pt x="733" y="700" on="1"/>
        <pt x="318" y="0" on="1"/>
      </contour>
    </TTGlyph>
    <TTGlyph name="W" xMin="136" yMin="0" xMax="934" yMax="700">
      <contour>
        <pt x="212" y="0" on="1"/>
        <pt x="136" y="0" on="1"/>
        <pt x="136" y="700" on="1"/>
        <pt x="210" y="700" on="1"/>
        <pt x="206" y="124" on="1"/>
        <pt x="497" y="700" on="1"/>
        <pt x="570" y="700" on="1"/>
        <pt x="618" y="124" on="1"/>
        <pt x="857" y="700" on="1"/>
        <pt x="934" y="700" on="1"/>
        <pt x="637" y="0" on="1"/>
        <pt x="560" y="0" on="1"/>
        <pt x="512" y="594" on="1"/>
      </contour>
    </TTGlyph>
    <TTGlyph name="Wacute" xMin="136" yMin="0" xMax="934" yMax="918">
      <component glyphName="W" x="0" y="0" flags="0x204"/>
      <component glyphName="acute" x="254" y="212" flags="0x4"/>
    </TTGlyph>
    <TTGlyph name="Wcircumflex" xMin="136" yMin="0" xMax="934" yMax="918">
      <component glyphName="W" x="0" y="0" flags="0x204"/>
      <component glyphName="circumflex" x="221" y="212" flags="0x4"/>
    </TTGlyph>
    <TTGlyph name="Wdieresis" xMin="136" yMin="0" xMax="934" yMax="908">
      <component glyphName="W" x="0" y="0" flags="0x204"/>
      <component glyphName="dieresis" x="211" y="212" flags="0x4"/>
    </TTGlyph>
    <TTGlyph name="Wgrave" xMin="136" yMin="0" xMax="934" yMax="918">
      <component glyphName="W" x="0" y="0" flags="0x204"/>
      <component glyphName="grave" x="223" y="212" flags="0x4"/>
    </TTGlyph>
    <TTGlyph name="X" xMin="-46" yMin="0" xMax="710" yMax="700">
      <contour>
        <pt x="51" y="0" on="1"/>
        <pt x="-46" y="0" on="1"/>
        <pt x="300" y="367" on="1"/>
        <pt x="127" y="700" on="1"/>
        <pt x="212" y="700" on="1"/>
        <pt x="354" y="422" on="1"/>
        <pt x="615" y="700" on="1"/>
        <pt x="710" y="700" on="1"/>
        <pt x="387" y="359" on="1"/>
        <pt x="574" y="0" on="1"/>
        <pt x="490" y="0" on="1"/>
        <pt x="334" y="304" on="1"/>
      </contour>
    </TTGlyph>
    <TTGlyph name="Y" xMin="107" yMin="0" xMax="717" yMax="700">
      <contour>
        <pt x="224" y="0" on="1"/>
        <pt x="285" y="287" on="1"/>
        <pt x="107" y="700" on="1"/>
        <pt x="187" y="700" on="1"/>
        <pt x="334" y="353" on="1"/>
        <pt x="627" y="700" on="1"/>
        <pt x="717" y="700" on="1"/>
        <pt x="360" y="283" on="1"/>
        <pt x="300" y="0" on="1"/>
      </contour>
    </TTGlyph>
    <TTGlyph name="Yacute" xMin="107" yMin="0" xMax="717" yMax="918">
      <component glyphName="Y" x="0" y="0" flags="0x204"/>
      <component glyphName="acute" x="125" y="212" flags="0x4"/>
    </TTGlyph>
    <TTGlyph name="Ycircumflex" xMin="107" yMin="0" xMax="717" yMax="918">
      <component glyphName="Y" x="0" y="0" flags="0x204"/>
      <component glyphName="circumflex" x="90" y="212" flags="0x4"/>
    </TTGlyph>
    <TTGlyph name="Ydieresis" xMin="107" yMin="0" xMax="717" yMax="908">
      <component glyphName="Y" x="0" y="0" flags="0x204"/>
      <component glyphName="dieresis" x="80" y="212" flags="0x4"/>
    </TTGlyph>
    <TTGlyph name="Ygrave" xMin="107" yMin="0" xMax="717" yMax="918">
      <component glyphName="Y" x="0" y="0" flags="0x204"/>
      <component glyphName="grave" x="94" y="212" flags="0x4"/>
    </TTGlyph>
    <TTGlyph name="Z" xMin="-17" yMin="0" xMax="648" yMax="700">
      <contour>
        <pt x="-17" y="0" on="1"/>
        <pt x="-5" y="54" on="1"/>
        <pt x="533" y="635" on="1"/>
        <pt x="120" y="633" on="1"/>
        <pt x="134" y="700" on="1"/>
        <pt x="648" y="700" on="1"/>
        <pt x="635" y="646" on="1"/>
        <pt x="97" y="65" on="1"/>
        <pt x="522" y="67" on="1"/>
        <pt x="507" y="0" on="1"/>
      </contour>
    </TTGlyph>
    <TTGlyph name="Zacute" xMin="-17" yMin="0" xMax="648" yMax="918">
      <component glyphName="Z" x="0" y="0" flags="0x204"/>
      <component glyphName="acute" x="93" y="212" flags="0x4"/>
    </TTGlyph>
    <TTGlyph name="Zcaron" xMin="-17" yMin="0" xMax="648" yMax="922">
      <component glyphName="Z" x="0" y="0" flags="0x204"/>
      <component glyphName="caron" x="59" y="212" flags="0x4"/>
    </TTGlyph>
    <TTGlyph name="Zdotaccent" xMin="-17" yMin="0" xMax="648" yMax="915">
      <component glyphName="Z" x="0" y="0" flags="0x204"/>
      <component glyphName="dotaccent" x="175" y="212" flags="0x4"/>
    </TTGlyph>
    <TTGlyph name="a" xMin="29" yMin="-7" xMax="468" yMax="495">
      <contour>
        <pt x="191" y="-7" on="1"/>
        <pt x="119" y="-7" on="0"/>
        <pt x="29" y="68" on="0"/>
        <pt x="29" y="130" on="1"/>
        <pt x="29" y="199" on="0"/>
        <pt x="133" y="287" on="0"/>
        <pt x="216" y="287" on="1"/>
        <pt x="263" y="287" on="0"/>
        <pt x="346" y="262" on="0"/>
        <pt x="377" y="240" on="1"/>
        <pt x="390" y="299" on="1"/>
        <pt x="405" y="366" on="0"/>
        <pt x="348" y="435" on="0"/>
        <pt x="279" y="435" on="1"/>
        <pt x="249" y="435" on="0"/>
        <pt x="182" y="417" on="0"/>
        <pt x="139" y="398" on="1"/>
        <pt x="119" y="455" on="1"/>
        <pt x="167" y="475" on="0"/>
        <pt x="252" y="495" on="0"/>
        <pt x="292" y="495" on="1"/>
        <pt x="390" y="495" on="0"/>
        <pt x="481" y="393" on="0"/>
        <pt x="462" y="305" on="1"/>
        <pt x="394" y="0" on="1"/>
        <pt x="323" y="0" on="1"/>
        <pt x="333" y="46" on="1"/>
        <pt x="299" y="19" on="0"/>
        <pt x="228" y="-7" on="0"/>
      </contour>
      <contour>
        <pt x="98" y="138" on="1"/>
        <pt x="98" y="95" on="0"/>
        <pt x="158" y="48" on="0"/>
        <pt x="212" y="48" on="1"/>
        <pt x="248" y="48" on="0"/>
        <pt x="313" y="73" on="0"/>
        <pt x="345" y="98" on="1"/>
        <pt x="366" y="191" on="1"/>
        <pt x="338" y="213" on="0"/>
        <pt x="268" y="233" on="0"/>
        <pt x="223" y="233" on="1"/>
        <pt x="169" y="233" on="0"/>
        <pt x="98" y="179" on="0"/>
      </contour>
    </TTGlyph>
    <TTGlyph name="a.school" xMin="51" yMin="-7" xMax="549" yMax="493">
      <contour>
        <pt x="371" y="0" on="1"/>
        <pt x="381" y="46" on="1"/>
        <pt x="353" y="21" on="0"/>
        <pt x="284" y="-7" on="0"/>
        <pt x="245" y="-7" on="1"/>
        <pt x="203" y="-7" on="0"/>
        <pt x="132" y="27" on="0"/>
        <pt x="80" y="86" on="0"/>
        <pt x="51" y="167" on="0"/>
        <pt x="51" y="214" on="1"/>
        <pt x="51" y="271" on="0"/>
        <pt x="91" y="373" on="0"/>
        <pt x="159" y="449" on="0"/>
        <pt x="251" y="493" on="0"/>
        <pt x="303" y="493" on="1"/>
        <pt x="354" y="493" on="0"/>
        <pt x="435" y="451" on="0"/>
        <pt x="460" y="411" on="1"/>
        <pt x="477" y="488" on="1"/>
        <pt x="549" y="488" on="1"/>
        <pt x="442" y="0" on="1"/>
      </contour>
      <contour>
        <pt x="122" y="220" on="1"/>
        <pt x="122" y="148" on="0"/>
        <pt x="205" y="56" on="0"/>
        <pt x="271" y="56" on="1"/>
        <pt x="305" y="56" on="0"/>
        <pt x="368" y="81" on="0"/>
        <pt x="394" y="105" on="1"/>
        <pt x="448" y="353" on="1"/>
        <pt x="429" y="387" on="0"/>
        <pt x="355" y="429" on="0"/>
        <pt x="312" y="429" on="1"/>
        <pt x="272" y="429" on="0"/>
        <pt x="203" y="396" on="0"/>
        <pt x="152" y="340" on="0"/>
        <pt x="122" y="264" on="0"/>
      </contour>
    </TTGlyph>
    <TTGlyph name="aacute" xMin="29" yMin="-7" xMax="504" yMax="706">
      <component glyphName="a" x="0" y="0" flags="0x204"/>
      <component glyphName="acute" x="21" y="0" flags="0x4"/>
    </TTGlyph>
    <TTGlyph name="aacute.school" xMin="51" yMin="-7" xMax="549" yMax="706">
      <component glyphName="a.school" x="0" y="0" flags="0x204"/>
      <component glyphName="acute" x="53" y="0" flags="0x4"/>
    </TTGlyph>
    <TTGlyph name="abreve" xMin="29" yMin="-7" xMax="492" yMax="719">
      <component glyphName="a" x="0" y="0" flags="0x204"/>
      <component glyphName="breve" x="-15" y="0" flags="0x4"/>
    </TTGlyph>
    <TTGlyph name="abreve.school" xMin="51" yMin="-7" xMax="549" yMax="719">
      <component glyphName="a.school" x="0" y="0" flags="0x204"/>
      <component glyphName="breve" x="18" y="0" flags="0x4"/>
    </TTGlyph>
    <TTGlyph name="acircumflex" xMin="29" yMin="-7" xMax="468" yMax="706">
      <component glyphName="a" x="0" y="0" flags="0x204"/>
      <component glyphName="circumflex" x="-14" y="0" flags="0x4"/>
    </TTGlyph>
    <TTGlyph name="acircumflex.school" xMin="51" yMin="-7" xMax="549" yMax="706">
      <component glyphName="a.school" x="0" y="0" flags="0x204"/>
      <component glyphName="circumflex" x="18" y="0" flags="0x4"/>
    </TTGlyph>
    <TTGlyph name="acute" xMin="247" yMin="584" xMax="483" yMax="706">
      <contour>
        <pt x="382" y="706" on="1"/>
        <pt x="483" y="706" on="1"/>
        <pt x="317" y="584" on="1"/>
        <pt x="247" y="584" on="1"/>
      </contour>
    </TTGlyph>
    <TTGlyph name="adieresis" xMin="29" yMin="-7" xMax="468" yMax="696">
      <component glyphName="a" x="0" y="0" flags="0x204"/>
      <component glyphName="dieresis" x="-25" y="0" flags="0x4"/>
    </TTGlyph>
    <TTGlyph name="adieresis.school" xMin="51" yMin="-7" xMax="549" yMax="696">
      <component glyphName="a.school" x="0" y="0" flags="0x204"/>
      <component glyphName="dieresis" x="8" y="0" flags="0x4"/>
    </TTGlyph>
    <TTGlyph name="ae" xMin="36" yMin="-9" xMax="808" yMax="496">
      <contour>
        <pt x="201" y="-7" on="1"/>
        <pt x="127" y="-7" on="0"/>
        <pt x="36" y="69" on="0"/>
        <pt x="36" y="131" on="1"/>
        <pt x="36" y="200" on="0"/>
        <pt x="138" y="287" on="0"/>
        <pt x="220" y="287" on="1"/>
        <pt x="260" y="287" on="0"/>
        <pt x="334" y="268" on="0"/>
        <pt x="363" y="251" on="1"/>
        <pt x="364" y="261" on="0"/>
        <pt x="369" y="279" on="0"/>
        <pt x="370" y="289" on="1"/>
        <pt x="372" y="300" on="1"/>
        <pt x="384" y="367" on="0"/>
        <pt x="330" y="435" on="0"/>
        <pt x="262" y="435" on="1"/>
        <pt x="232" y="435" on="0"/>
        <pt x="165" y="417" on="0"/>
        <pt x="122" y="398" on="1"/>
        <pt x="102" y="455" on="1"/>
        <pt x="151" y="475" on="0"/>
        <pt x="236" y="495" on="0"/>
        <pt x="276" y="495" on="1"/>
        <pt x="336" y="495" on="0"/>
        <pt x="416" y="450" on="0"/>
        <pt x="432" y="410" on="1"/>
        <pt x="467" y="451" on="0"/>
        <pt x="561" y="496" on="0"/>
        <pt x="613" y="496" on="1"/>
        <pt x="698" y="496" on="0"/>
        <pt x="808" y="374" on="0"/>
        <pt x="808" y="281" on="1"/>
        <pt x="808" y="268" on="0"/>
        <pt x="806" y="242" on="0"/>
        <pt x="805" y="228" on="1"/>
        <pt x="431" y="228" on="1"/>
        <pt x="431" y="218" on="1"/>
        <pt x="431" y="148" on="0"/>
        <pt x="521" y="54" on="0"/>
        <pt x="587" y="54" on="1"/>
        <pt x="621" y="54" on="0"/>
        <pt x="690" y="77" on="0"/>
        <pt x="715" y="97" on="1"/>
        <pt x="753" y="45" on="1"/>
        <pt x="711" y="17" on="0"/>
        <pt x="629" y="-9" on="0"/>
        <pt x="584" y="-9" on="1"/>
        <pt x="525" y="-9" on="0"/>
        <pt x="430" y="38" on="0"/>
        <pt x="401" y="80" on="1"/>
        <pt x="355" y="36" on="0"/>
        <pt x="256" y="-7" on="0"/>
      </contour>
      <contour>
        <pt x="608" y="432" on="1"/>
        <pt x="548" y="432" on="0"/>
        <pt x="454" y="346" on="0"/>
        <pt x="438" y="280" on="1"/>
        <pt x="740" y="280" on="1"/>
        <pt x="741" y="343" on="0"/>
        <pt x="665" y="432" on="0"/>
      </contour>
      <contour>
        <pt x="104" y="138" on="1"/>
        <pt x="104" y="95" on="0"/>
        <pt x="164" y="48" on="0"/>
        <pt x="218" y="48" on="1"/>
        <pt x="260" y="48" on="0"/>
        <pt x="340" y="84" on="0"/>
        <pt x="379" y="120" on="1"/>
        <pt x="372" y="137" on="0"/>
        <pt x="363" y="177" on="0"/>
        <pt x="362" y="198" on="1"/>
        <pt x="334" y="216" on="0"/>
        <pt x="267" y="233" on="0"/>
        <pt x="227" y="233" on="1"/>
        <pt x="173" y="233" on="0"/>
        <pt x="104" y="180" on="0"/>
      </contour>
    </TTGlyph>
    <TTGlyph name="agrave" xMin="29" yMin="-7" xMax="468" yMax="706">
      <component glyphName="a" x="0" y="0" flags="0x204"/>
      <component glyphName="grave" x="-10" y="0" flags="0x4"/>
    </TTGlyph>
    <TTGlyph name="agrave.school" xMin="51" yMin="-7" xMax="549" yMax="706">
      <component glyphName="a.school" x="0" y="0" flags="0x204"/>
      <component glyphName="grave" x="22" y="0" flags="0x4"/>
    </TTGlyph>
    <TTGlyph name="amacron" xMin="29" yMin="-7" xMax="468" yMax="663">
      <component glyphName="a" x="0" y="0" flags="0x204"/>
      <component glyphName="macron" x="-15" y="0" flags="0x4"/>
    </TTGlyph>
    <TTGlyph name="amacron.school" xMin="51" yMin="-7" xMax="549" yMax="663">
      <component glyphName="a.school" x="0" y="0" flags="0x204"/>
      <component glyphName="macron" x="18" y="0" flags="0x4"/>
    </TTGlyph>
    <TTGlyph name="ampersand" xMin="21" yMin="-11" xMax="637" yMax="708">
      <contour>
        <pt x="596" y="39" on="1"/>
        <pt x="547" y="-11" on="1"/>
        <pt x="525" y="7" on="0"/>
        <pt x="480" y="50" on="0"/>
        <pt x="458" y="73" on="1"/>
        <pt x="412" y="33" on="0"/>
        <pt x="301" y="-9" on="0"/>
        <pt x="242" y="-9" on="1"/>
        <pt x="143" y="-9" on="0"/>
        <pt x="21" y="90" on="0"/>
        <pt x="21" y="171" on="1"/>
        <pt x="21" y="238" on="0"/>
        <pt x="99" y="337" on="0"/>
        <pt x="184" y="380" on="1"/>
        <pt x="221" y="398" on="1"/>
        <pt x="202" y="433" on="0"/>
        <pt x="185" y="495" on="0"/>
        <pt x="185" y="526" on="1"/>
        <pt x="185" y="604" on="0"/>
        <pt x="289" y="708" on="0"/>
        <pt x="367" y="708" on="1"/>
        <pt x="431" y="708" on="0"/>
        <pt x="513" y="637" on="0"/>
        <pt x="513" y="582" on="1"/>
        <pt x="513" y="528" on="0"/>
        <pt x="444" y="442" on="0"/>
        <pt x="367" y="404" on="1"/>
        <pt x="311" y="376" on="1"/>
        <pt x="346" y="322" on="0"/>
        <pt x="425" y="217" on="0"/>
        <pt x="465" y="170" on="1"/>
        <pt x="497" y="207" on="0"/>
        <pt x="552" y="300" on="0"/>
        <pt x="572" y="353" on="1"/>
        <pt x="637" y="335" on="1"/>
        <pt x="611" y="272" on="0"/>
        <pt x="546" y="167" on="0"/>
        <pt x="507" y="124" on="1"/>
        <pt x="529" y="101" on="0"/>
        <pt x="574" y="58" on="0"/>
      </contour>
      <contour>
        <pt x="253" y="531" on="1"/>
        <pt x="253" y="506" on="0"/>
        <pt x="268" y="457" on="0"/>
        <pt x="285" y="426" on="1"/>
        <pt x="346" y="456" on="1"/>
        <pt x="396" y="481" on="0"/>
        <pt x="443" y="537" on="0"/>
        <pt x="443" y="573" on="1"/>
        <pt x="443" y="607" on="0"/>
        <pt x="399" y="650" on="0"/>
        <pt x="362" y="650" on="1"/>
        <pt x="315" y="650" on="0"/>
        <pt x="253" y="582" on="0"/>
      </contour>
      <contour>
        <pt x="92" y="184" on="1"/>
        <pt x="92" y="125" on="0"/>
        <pt x="178" y="53" on="0"/>
        <pt x="249" y="53" on="1"/>
        <pt x="294" y="53" on="0"/>
        <pt x="380" y="87" on="0"/>
        <pt x="417" y="118" on="1"/>
        <pt x="372" y="169" on="0"/>
        <pt x="286" y="287" on="0"/>
        <pt x="248" y="347" on="1"/>
        <pt x="215" y="331" on="1"/>
        <pt x="152" y="301" on="0"/>
        <pt x="92" y="228" on="0"/>
      </contour>
    </TTGlyph>
    <TTGlyph name="aogonek" xMin="29" yMin="-232" xMax="468" yMax="495">
      <contour>
        <pt x="191" y="-7" on="1"/>
        <pt x="119" y="-7" on="0"/>
        <pt x="29" y="68" on="0"/>
        <pt x="29" y="130" on="1"/>
        <pt x="29" y="199" on="0"/>
        <pt x="133" y="287" on="0"/>
        <pt x="216" y="287" on="1"/>
        <pt x="263" y="287" on="0"/>
        <pt x="346" y="262" on="0"/>
        <pt x="377" y="240" on="1"/>
        <pt x="390" y="299" on="1"/>
        <pt x="405" y="366" on="0"/>
        <pt x="348" y="435" on="0"/>
        <pt x="279" y="435" on="1"/>
        <pt x="249" y="435" on="0"/>
        <pt x="182" y="417" on="0"/>
        <pt x="139" y="398" on="1"/>
        <pt x="119" y="455" on="1"/>
        <pt x="167" y="475" on="0"/>
        <pt x="252" y="495" on="0"/>
        <pt x="292" y="495" on="1"/>
        <pt x="390" y="495" on="0"/>
        <pt x="481" y="393" on="0"/>
        <pt x="462" y="305" on="1"/>
        <pt x="394" y="0" on="1"/>
        <pt x="328" y="-36" on="0"/>
        <pt x="263" y="-104" on="0"/>
        <pt x="263" y="-139" on="1"/>
        <pt x="263" y="-161" on="0"/>
        <pt x="297" y="-187" on="0"/>
        <pt x="323" y="-187" on="1"/>
        <pt x="333" y="-187" on="0"/>
        <pt x="359" y="-182" on="0"/>
        <pt x="369" y="-178" on="1"/>
        <pt x="373" y="-218" on="1"/>
        <pt x="360" y="-225" on="0"/>
        <pt x="325" y="-232" on="0"/>
        <pt x="307" y="-232" on="1"/>
        <pt x="264" y="-232" on="0"/>
        <pt x="212" y="-189" on="0"/>
        <pt x="212" y="-154" on="1"/>
        <pt x="212" y="-113" on="0"/>
        <pt x="273" y="-36" on="0"/>
        <pt x="334" y="0" on="1"/>
        <pt x="323" y="0" on="1"/>
        <pt x="333" y="46" on="1"/>
        <pt x="299" y="19" on="0"/>
        <pt x="228" y="-7" on="0"/>
      </contour>
      <contour>
        <pt x="98" y="138" on="1"/>
        <pt x="98" y="95" on="0"/>
        <pt x="158" y="48" on="0"/>
        <pt x="212" y="48" on="1"/>
        <pt x="248" y="48" on="0"/>
        <pt x="313" y="73" on="0"/>
        <pt x="345" y="98" on="1"/>
        <pt x="366" y="191" on="1"/>
        <pt x="338" y="213" on="0"/>
        <pt x="268" y="233" on="0"/>
        <pt x="223" y="233" on="1"/>
        <pt x="169" y="233" on="0"/>
        <pt x="98" y="179" on="0"/>
      </contour>
    </TTGlyph>
    <TTGlyph name="aogonek.school" xMin="51" yMin="-232" xMax="549" yMax="493">
      <contour>
        <pt x="371" y="0" on="1"/>
        <pt x="381" y="46" on="1"/>
        <pt x="353" y="21" on="0"/>
        <pt x="284" y="-7" on="0"/>
        <pt x="245" y="-7" on="1"/>
        <pt x="203" y="-7" on="0"/>
        <pt x="132" y="27" on="0"/>
        <pt x="80" y="86" on="0"/>
        <pt x="51" y="167" on="0"/>
        <pt x="51" y="214" on="1"/>
        <pt x="51" y="271" on="0"/>
        <pt x="91" y="373" on="0"/>
        <pt x="159" y="449" on="0"/>
        <pt x="251" y="493" on="0"/>
        <pt x="303" y="493" on="1"/>
        <pt x="354" y="493" on="0"/>
        <pt x="435" y="451" on="0"/>
        <pt x="460" y="411" on="1"/>
        <pt x="477" y="488" on="1"/>
        <pt x="549" y="488" on="1"/>
        <pt x="442" y="1" on="1"/>
        <pt x="443" y="0" on="1"/>
        <pt x="377" y="-36" on="0"/>
        <pt x="312" y="-104" on="0"/>
        <pt x="312" y="-139" on="1"/>
        <pt x="312" y="-161" on="0"/>
        <pt x="346" y="-187" on="0"/>
        <pt x="372" y="-187" on="1"/>
        <pt x="382" y="-187" on="0"/>
        <pt x="408" y="-182" on="0"/>
        <pt x="418" y="-178" on="1"/>
        <pt x="422" y="-218" on="1"/>
        <pt x="409" y="-225" on="0"/>
        <pt x="374" y="-232" on="0"/>
        <pt x="356" y="-232" on="1"/>
        <pt x="313" y="-232" on="0"/>
        <pt x="261" y="-189" on="0"/>
        <pt x="261" y="-154" on="1"/>
        <pt x="261" y="-113" on="0"/>
        <pt x="322" y="-36" on="0"/>
        <pt x="383" y="0" on="1"/>
      </contour>
      <contour>
        <pt x="122" y="220" on="1"/>
        <pt x="122" y="148" on="0"/>
        <pt x="205" y="56" on="0"/>
        <pt x="271" y="56" on="1"/>
        <pt x="305" y="56" on="0"/>
        <pt x="368" y="81" on="0"/>
        <pt x="394" y="105" on="1"/>
        <pt x="448" y="353" on="1"/>
        <pt x="429" y="387" on="0"/>
        <pt x="355" y="429" on="0"/>
        <pt x="312" y="429" on="1"/>
        <pt x="272" y="429" on="0"/>
        <pt x="203" y="396" on="0"/>
        <pt x="152" y="340" on="0"/>
        <pt x="122" y="264" on="0"/>
      </contour>
    </TTGlyph>
    <TTGlyph name="aring" xMin="29" yMin="-7" xMax="468" yMax="794">
      <component glyphName="a" x="0" y="0" flags="0x204"/>
      <component glyphName="ring" x="-15" y="0" flags="0x4"/>
    </TTGlyph>
    <TTGlyph name="aring.school" xMin="51" yMin="-7" xMax="549" yMax="794">
      <component glyphName="a.school" x="0" y="0" flags="0x204"/>
      <component glyphName="ring" x="18" y="0" flags="0x4"/>
    </TTGlyph>
    <TTGlyph name="asciicircum" xMin="80" yMin="350" xMax="489" yMax="700">
      <contour>
        <pt x="80" y="350" on="1"/>
        <pt x="328" y="700" on="1"/>
        <pt x="391" y="700" on="1"/>
        <pt x="489" y="350" on="1"/>
        <pt x="426" y="350" on="1"/>
        <pt x="346" y="634" on="1"/>
        <pt x="147" y="350" on="1"/>
      </contour>
    </TTGlyph>
    <TTGlyph name="asciitilde" xMin="75" yMin="293" xMax="559" yMax="457">
      <contour>
        <pt x="304" y="421" on="1"/>
        <pt x="367" y="379" on="1"/>
        <pt x="389" y="365" on="0"/>
        <pt x="413" y="355" on="0"/>
        <pt x="425" y="355" on="1"/>
        <pt x="451" y="355" on="0"/>
        <pt x="492" y="397" on="0"/>
        <pt x="506" y="439" on="1"/>
        <pt x="559" y="426" on="1"/>
        <pt x="538" y="362" on="0"/>
        <pt x="469" y="293" on="0"/>
        <pt x="426" y="293" on="1"/>
        <pt x="404" y="293" on="0"/>
        <pt x="364" y="309" on="0"/>
        <pt x="330" y="330" on="1"/>
        <pt x="267" y="372" on="1"/>
        <pt x="245" y="386" on="0"/>
        <pt x="221" y="395" on="0"/>
        <pt x="208" y="395" on="1"/>
        <pt x="183" y="395" on="0"/>
        <pt x="142" y="353" on="0"/>
        <pt x="129" y="312" on="1"/>
        <pt x="75" y="325" on="1"/>
        <pt x="96" y="388" on="0"/>
        <pt x="166" y="457" on="0"/>
        <pt x="209" y="457" on="1"/>
        <pt x="229" y="457" on="0"/>
        <pt x="271" y="442" on="0"/>
      </contour>
    </TTGlyph>
    <TTGlyph name="asterisk" xMin="104" yMin="341" xMax="455" yMax="700">
      <contour>
        <pt x="388" y="398" on="1"/>
        <pt x="295" y="478" on="1"/>
        <pt x="267" y="341" on="1"/>
        <pt x="216" y="341" on="1"/>
        <pt x="248" y="480" on="1"/>
        <pt x="124" y="414" on="1"/>
        <pt x="104" y="463" on="1"/>
        <pt x="235" y="528" on="1"/>
        <pt x="138" y="607" on="1"/>
        <pt x="173" y="648" on="1"/>
        <pt x="266" y="568" on="1"/>
        <pt x="292" y="700" on="1"/>
        <pt x="342" y="700" on="1"/>
        <pt x="314" y="569" on="1"/>
        <pt x="434" y="631" on="1"/>
        <pt x="455" y="584" on="1"/>
        <pt x="325" y="520" on="1"/>
        <pt x="425" y="440" on="1"/>
      </contour>
    </TTGlyph>
    <TTGlyph name="at" xMin="52" yMin="-144" xMax="707" yMax="576">
      <contour>
        <pt x="349" y="51" on="1"/>
        <pt x="291" y="51" on="0"/>
        <pt x="212" y="138" on="0"/>
        <pt x="212" y="202" on="1"/>
        <pt x="212" y="239" on="0"/>
        <pt x="237" y="303" on="0"/>
        <pt x="281" y="351" on="0"/>
        <pt x="340" y="379" on="0"/>
        <pt x="374" y="379" on="1"/>
        <pt x="402" y="379" on="0"/>
        <pt x="452" y="359" on="0"/>
        <pt x="469" y="340" on="1"/>
        <pt x="474" y="366" on="1"/>
        <pt x="529" y="366" on="1"/>
        <pt x="491" y="174" on="1"/>
        <pt x="484" y="138" on="0"/>
        <pt x="513" y="99" on="0"/>
        <pt x="544" y="99" on="1"/>
        <pt x="594" y="99" on="0"/>
        <pt x="661" y="196" on="0"/>
        <pt x="661" y="267" on="1"/>
        <pt x="661" y="324" on="0"/>
        <pt x="619" y="421" on="0"/>
        <pt x="546" y="492" on="0"/>
        <pt x="446" y="532" on="0"/>
        <pt x="387" y="532" on="1"/>
        <pt x="327" y="532" on="0"/>
        <pt x="221" y="482" on="0"/>
        <pt x="143" y="395" on="0"/>
        <pt x="98" y="277" on="0"/>
        <pt x="98" y="209" on="1"/>
        <pt x="98" y="143" on="0"/>
        <pt x="143" y="29" on="0"/>
        <pt x="222" y="-53" on="0"/>
        <pt x="332" y="-99" on="0"/>
        <pt x="396" y="-99" on="1"/>
        <pt x="439" y="-99" on="0"/>
        <pt x="522" y="-78" on="0"/>
        <pt x="558" y="-58" on="1"/>
        <pt x="575" y="-99" on="1"/>
        <pt x="534" y="-121" on="0"/>
        <pt x="442" y="-144" on="0"/>
        <pt x="393" y="-144" on="1"/>
        <pt x="320" y="-144" on="0"/>
        <pt x="195" y="-91" on="0"/>
        <pt x="104" y="3" on="0"/>
        <pt x="52" y="132" on="0"/>
        <pt x="52" y="207" on="1"/>
        <pt x="52" y="286" on="0"/>
        <pt x="104" y="421" on="0"/>
        <pt x="193" y="520" on="0"/>
        <pt x="317" y="576" on="0"/>
        <pt x="389" y="576" on="1"/>
        <pt x="457" y="576" on="0"/>
        <pt x="573" y="529" on="0"/>
        <pt x="658" y="447" on="0"/>
        <pt x="707" y="334" on="0"/>
        <pt x="707" y="269" on="1"/>
        <pt x="707" y="223" on="0"/>
        <pt x="681" y="144" on="0"/>
        <pt x="637" y="87" on="0"/>
        <pt x="575" y="55" on="0"/>
        <pt x="539" y="55" on="1"/>
        <pt x="508" y="55" on="0"/>
        <pt x="462" y="77" on="0"/>
        <pt x="450" y="96" on="1"/>
        <pt x="426" y="74" on="0"/>
        <pt x="374" y="51" on="0"/>
      </contour>
      <contour>
        <pt x="266" y="206" on="1"/>
        <pt x="266" y="158" on="0"/>
        <pt x="319" y="98" on="0"/>
        <pt x="360" y="98" on="1"/>
        <pt x="381" y="98" on="0"/>
        <pt x="421" y="117" on="0"/>
        <pt x="437" y="134" on="1"/>
        <pt x="436" y="144" on="0"/>
        <pt x="437" y="166" on="0"/>
        <pt x="439" y="179" on="1"/>
        <pt x="459" y="285" on="1"/>
        <pt x="446" y="307" on="0"/>
        <pt x="400" y="331" on="0"/>
        <pt x="372" y="331" on="1"/>
        <pt x="329" y="331" on="0"/>
        <pt x="266" y="257" on="0"/>
      </contour>
    </TTGlyph>
    <TTGlyph name="at.cap" xMin="80" yMin="-9" xMax="735" yMax="711">
      <component glyphName="at" x="28" y="135" flags="0x4"/>
    </TTGlyph>
    <TTGlyph name="atilde" xMin="29" yMin="-7" xMax="500" yMax="696">
      <component glyphName="a" x="0" y="0" flags="0x204"/>
      <component glyphName="tilde" x="-10" y="0" flags="0x4"/>
    </TTGlyph>
    <TTGlyph name="atilde.school" xMin="51" yMin="-7" xMax="549" yMax="696">
      <component glyphName="a.school" x="0" y="0" flags="0x204"/>
      <component glyphName="tilde" x="22" y="0" flags="0x4"/>
    </TTGlyph>
    <TTGlyph name="b" xMin="21" yMin="-8" xMax="520" yMax="730">
      <contour>
        <pt x="520" y="271" on="1"/>
        <pt x="520" y="214" on="0"/>
        <pt x="480" y="112" on="0"/>
        <pt x="411" y="36" on="0"/>
        <pt x="319" y="-8" on="0"/>
        <pt x="267" y="-8" on="1"/>
        <pt x="216" y="-8" on="0"/>
        <pt x="134" y="37" on="0"/>
        <pt x="109" y="78" on="1"/>
        <pt x="92" y="0" on="1"/>
        <pt x="21" y="0" on="1"/>
        <pt x="171" y="715" on="1"/>
        <pt x="245" y="730" on="1"/>
        <pt x="183" y="433" on="1"/>
        <pt x="212" y="461" on="0"/>
        <pt x="284" y="492" on="0"/>
        <pt x="325" y="492" on="1"/>
        <pt x="367" y="492" on="0"/>
        <pt x="439" y="459" on="0"/>
        <pt x="490" y="400" on="0"/>
        <pt x="520" y="318" on="0"/>
      </contour>
      <contour>
        <pt x="299" y="430" on="1"/>
        <pt x="263" y="430" on="0"/>
        <pt x="198" y="402" on="0"/>
        <pt x="171" y="375" on="1"/>
        <pt x="121" y="136" on="1"/>
        <pt x="140" y="100" on="0"/>
        <pt x="215" y="56" on="0"/>
        <pt x="258" y="56" on="1"/>
        <pt x="298" y="56" on="0"/>
        <pt x="368" y="89" on="0"/>
        <pt x="419" y="145" on="0"/>
        <pt x="449" y="221" on="0"/>
        <pt x="449" y="265" on="1"/>
        <pt x="449" y="338" on="0"/>
        <pt x="365" y="430" on="0"/>
      </contour>
    </TTGlyph>
    <TTGlyph name="backslash" xMin="115" yMin="-205" xMax="384" yMax="700">
      <contour>
        <pt x="384" y="-205" on="1"/>
        <pt x="315" y="-205" on="1"/>
        <pt x="115" y="700" on="1"/>
        <pt x="184" y="700" on="1"/>
      </contour>
    </TTGlyph>
    <TTGlyph name="bar" xMin="14" yMin="-206" xMax="272" yMax="700">
      <contour>
        <pt x="14" y="-206" on="1"/>
        <pt x="206" y="700" on="1"/>
        <pt x="272" y="700" on="1"/>
        <pt x="79" y="-206" on="1"/>
      </contour>
    </TTGlyph>
    <TTGlyph name="braceleft" xMin="32" yMin="-225" xMax="428" yMax="707">
      <contour>
        <pt x="213" y="78" on="1"/>
        <pt x="144" y="-39" on="1"/>
        <pt x="113" y="-90" on="0"/>
        <pt x="133" y="-161" on="0"/>
        <pt x="179" y="-165" on="1"/>
        <pt x="193" y="-166" on="0"/>
        <pt x="220" y="-162" on="0"/>
        <pt x="236" y="-157" on="1"/>
        <pt x="237" y="-215" on="1"/>
        <pt x="215" y="-221" on="0"/>
        <pt x="180" y="-225" on="0"/>
        <pt x="163" y="-224" on="1"/>
        <pt x="122" y="-222" on="0"/>
        <pt x="68" y="-187" on="0"/>
        <pt x="47" y="-132" on="0"/>
        <pt x="61" y="-59" on="0"/>
        <pt x="86" y="-18" on="1"/>
        <pt x="146" y="79" on="1"/>
        <pt x="180" y="133" on="0"/>
        <pt x="156" y="213" on="0"/>
        <pt x="106" y="213" on="1"/>
        <pt x="32" y="213" on="1"/>
        <pt x="45" y="274" on="1"/>
        <pt x="119" y="274" on="1"/>
        <pt x="171" y="274" on="0"/>
        <pt x="225" y="348" on="0"/>
        <pt x="215" y="404" on="1"/>
        <pt x="194" y="517" on="1"/>
        <pt x="186" y="559" on="0"/>
        <pt x="203" y="631" on="0"/>
        <pt x="245" y="682" on="0"/>
        <pt x="311" y="710" on="0"/>
        <pt x="352" y="707" on="1"/>
        <pt x="373" y="706" on="0"/>
        <pt x="409" y="697" on="0"/>
        <pt x="428" y="688" on="1"/>
        <pt x="402" y="632" on="1"/>
        <pt x="388" y="639" on="0"/>
        <pt x="360" y="646" on="0"/>
        <pt x="346" y="647" on="1"/>
        <pt x="298" y="649" on="0"/>
        <pt x="248" y="584" on="0"/>
        <pt x="257" y="530" on="1"/>
        <pt x="279" y="396" on="1"/>
        <pt x="288" y="340" on="0"/>
        <pt x="227" y="252" on="0"/>
        <pt x="172" y="239" on="1"/>
        <pt x="221" y="220" on="0"/>
        <pt x="244" y="129" on="0"/>
      </contour>
    </TTGlyph>
    <TTGlyph name="braceright" xMin="-46" yMin="-221" xMax="350" yMax="711">
      <contour>
        <pt x="169" y="408" on="1"/>
        <pt x="238" y="525" on="1"/>
        <pt x="269" y="576" on="0"/>
        <pt x="249" y="647" on="0"/>
        <pt x="203" y="651" on="1"/>
        <pt x="189" y="652" on="0"/>
        <pt x="162" y="648" on="0"/>
        <pt x="146" y="643" on="1"/>
        <pt x="145" y="701" on="1"/>
        <pt x="167" y="707" on="0"/>
        <pt x="202" y="711" on="0"/>
        <pt x="219" y="710" on="1"/>
        <pt x="260" y="708" on="0"/>
        <pt x="314" y="673" on="0"/>
        <pt x="335" y="618" on="0"/>
        <pt x="321" y="545" on="0"/>
        <pt x="296" y="504" on="1"/>
        <pt x="236" y="407" on="1"/>
        <pt x="202" y="353" on="0"/>
        <pt x="226" y="273" on="0"/>
        <pt x="276" y="273" on="1"/>
        <pt x="350" y="273" on="1"/>
        <pt x="337" y="212" on="1"/>
        <pt x="263" y="212" on="1"/>
        <pt x="211" y="212" on="0"/>
        <pt x="157" y="138" on="0"/>
        <pt x="167" y="82" on="1"/>
        <pt x="188" y="-31" on="1"/>
        <pt x="196" y="-73" on="0"/>
        <pt x="179" y="-145" on="0"/>
        <pt x="137" y="-196" on="0"/>
        <pt x="71" y="-224" on="0"/>
        <pt x="30" y="-221" on="1"/>
        <pt x="9" y="-220" on="0"/>
        <pt x="-27" y="-211" on="0"/>
        <pt x="-46" y="-202" on="1"/>
        <pt x="-20" y="-146" on="1"/>
        <pt x="-6" y="-153" on="0"/>
        <pt x="22" y="-160" on="0"/>
        <pt x="36" y="-161" on="1"/>
        <pt x="84" y="-163" on="0"/>
        <pt x="134" y="-98" on="0"/>
        <pt x="125" y="-44" on="1"/>
        <pt x="103" y="90" on="1"/>
        <pt x="94" y="146" on="0"/>
        <pt x="155" y="234" on="0"/>
        <pt x="210" y="247" on="1"/>
        <pt x="161" y="266" on="0"/>
        <pt x="138" y="357" on="0"/>
      </contour>
    </TTGlyph>
    <TTGlyph name="bracketleft" xMin="-32" yMin="-215" xMax="399" yMax="700">
      <contour>
        <pt x="204" y="-215" on="1"/>
        <pt x="-32" y="-215" on="1"/>
        <pt x="163" y="700" on="1"/>
        <pt x="399" y="700" on="1"/>
        <pt x="386" y="640" on="1"/>
        <pt x="219" y="640" on="1"/>
        <pt x="50" y="-155" on="1"/>
        <pt x="217" y="-155" on="1"/>
      </contour>
    </TTGlyph>
    <TTGlyph name="bracketright" xMin="-49" yMin="-215" xMax="382" yMax="700">
      <contour>
        <pt x="146" y="700" on="1"/>
        <pt x="382" y="700" on="1"/>
        <pt x="187" y="-215" on="1"/>
        <pt x="-49" y="-215" on="1"/>
        <pt x="-36" y="-155" on="1"/>
        <pt x="131" y="-155" on="1"/>
        <pt x="300" y="640" on="1"/>
        <pt x="133" y="640" on="1"/>
      </contour>
    </TTGlyph>
    <TTGlyph name="breve" xMin="199" yMin="578" xMax="507" yMax="719">
      <contour>
        <pt x="339" y="624" on="1"/>
        <pt x="378" y="624" on="0"/>
        <pt x="439" y="671" on="0"/>
        <pt x="458" y="716" on="1"/>
        <pt x="507" y="700" on="1"/>
        <pt x="482" y="643" on="0"/>
        <pt x="393" y="578" on="0"/>
        <pt x="337" y="578" on="1"/>
        <pt x="276" y="578" on="0"/>
        <pt x="200" y="650" on="0"/>
        <pt x="199" y="710" on="1"/>
        <pt x="247" y="719" on="1"/>
        <pt x="248" y="673" on="0"/>
        <pt x="296" y="624" on="0"/>
      </contour>
    </TTGlyph>
    <TTGlyph name="bullet" xMin="92" yMin="254" xMax="287" yMax="454">
      <contour>
        <pt x="179" y="254" on="1"/>
        <pt x="142" y="254" on="0"/>
        <pt x="92" y="305" on="0"/>
        <pt x="92" y="342" on="1"/>
        <pt x="92" y="387" on="0"/>
        <pt x="157" y="454" on="0"/>
        <pt x="201" y="454" on="1"/>
        <pt x="238" y="454" on="0"/>
        <pt x="287" y="404" on="0"/>
        <pt x="287" y="367" on="1"/>
        <pt x="287" y="321" on="0"/>
        <pt x="222" y="254" on="0"/>
      </contour>
    </TTGlyph>
    <TTGlyph name="c" xMin="51" yMin="-9" xMax="499" yMax="494">
      <contour>
        <pt x="272" y="55" on="1"/>
        <pt x="308" y="55" on="0"/>
        <pt x="376" y="81" on="0"/>
        <pt x="404" y="103" on="1"/>
        <pt x="438" y="56" on="1"/>
        <pt x="400" y="24" on="0"/>
        <pt x="308" y="-9" on="0"/>
        <pt x="261" y="-9" on="1"/>
        <pt x="216" y="-9" on="0"/>
        <pt x="139" y="24" on="0"/>
        <pt x="83" y="82" on="0"/>
        <pt x="51" y="163" on="0"/>
        <pt x="51" y="210" on="1"/>
        <pt x="51" y="268" on="0"/>
        <pt x="93" y="372" on="0"/>
        <pt x="166" y="449" on="0"/>
        <pt x="262" y="494" on="0"/>
        <pt x="316" y="494" on="1"/>
        <pt x="370" y="494" on="0"/>
        <pt x="471" y="444" on="0"/>
        <pt x="499" y="401" on="1"/>
        <pt x="445" y="356" on="1"/>
        <pt x="422" y="391" on="0"/>
        <pt x="354" y="428" on="0"/>
        <pt x="313" y="428" on="1"/>
        <pt x="275" y="428" on="0"/>
        <pt x="205" y="394" on="0"/>
        <pt x="153" y="335" on="0"/>
        <pt x="122" y="257" on="0"/>
        <pt x="122" y="214" on="1"/>
        <pt x="122" y="147" on="0"/>
        <pt x="209" y="55" on="0"/>
      </contour>
    </TTGlyph>
    <TTGlyph name="cacute" xMin="51" yMin="-9" xMax="524" yMax="706">
      <component glyphName="c" x="0" y="0" flags="0x204"/>
      <component glyphName="acute" x="41" y="0" flags="0x4"/>
    </TTGlyph>
    <TTGlyph name="caron" xMin="203" yMin="583" xMax="503" yMax="710">
      <contour>
        <pt x="260" y="710" on="1"/>
        <pt x="333" y="622" on="1"/>
        <pt x="441" y="710" on="1"/>
        <pt x="503" y="710" on="1"/>
        <pt x="366" y="583" on="1"/>
        <pt x="289" y="583" on="1"/>
        <pt x="203" y="710" on="1"/>
      </contour>
    </TTGlyph>
    <TTGlyph name="caronSlovak" xMin="246" yMin="504" xMax="370" yMax="714">
      <contour>
        <pt x="295" y="714" on="1"/>
        <pt x="370" y="714" on="1"/>
        <pt x="307" y="504" on="1"/>
        <pt x="246" y="504" on="1"/>
      </contour>
    </TTGlyph>
    <TTGlyph name="ccaron" xMin="51" yMin="-9" xMax="509" yMax="710">
      <component glyphName="c" x="0" y="0" flags="0x204"/>
      <component glyphName="caron" x="6" y="0" flags="0x4"/>
    </TTGlyph>
    <TTGlyph name="ccedilla" xMin="51" yMin="-239" xMax="499" yMax="494">
      <contour>
        <pt x="272" y="55" on="1"/>
        <pt x="308" y="55" on="0"/>
        <pt x="376" y="81" on="0"/>
        <pt x="404" y="103" on="1"/>
        <pt x="438" y="56" on="1"/>
        <pt x="401" y="25" on="0"/>
        <pt x="314" y="-8" on="0"/>
        <pt x="269" y="-9" on="1"/>
        <pt x="244" y="-66" on="1"/>
        <pt x="282" y="-70" on="0"/>
        <pt x="325" y="-107" on="0"/>
        <pt x="325" y="-138" on="1"/>
        <pt x="325" y="-181" on="0"/>
        <pt x="258" y="-239" on="0"/>
        <pt x="209" y="-239" on="1"/>
        <pt x="175" y="-239" on="0"/>
        <pt x="119" y="-217" on="0"/>
        <pt x="103" y="-197" on="1"/>
        <pt x="134" y="-167" on="1"/>
        <pt x="149" y="-183" on="0"/>
        <pt x="185" y="-199" on="0"/>
        <pt x="207" y="-199" on="1"/>
        <pt x="240" y="-199" on="0"/>
        <pt x="279" y="-169" on="0"/>
        <pt x="279" y="-144" on="1"/>
        <pt x="279" y="-123" on="0"/>
        <pt x="245" y="-99" on="0"/>
        <pt x="215" y="-99" on="1"/>
        <pt x="187" y="-99" on="1"/>
        <pt x="228" y="-7" on="1"/>
        <pt x="150" y="4" on="0"/>
        <pt x="51" y="124" on="0"/>
        <pt x="51" y="210" on="1"/>
        <pt x="51" y="268" on="0"/>
        <pt x="93" y="372" on="0"/>
        <pt x="166" y="449" on="0"/>
        <pt x="262" y="494" on="0"/>
        <pt x="316" y="494" on="1"/>
        <pt x="370" y="494" on="0"/>
        <pt x="471" y="444" on="0"/>
        <pt x="499" y="401" on="1"/>
        <pt x="445" y="356" on="1"/>
        <pt x="422" y="391" on="0"/>
        <pt x="354" y="428" on="0"/>
        <pt x="313" y="428" on="1"/>
        <pt x="275" y="428" on="0"/>
        <pt x="205" y="394" on="0"/>
        <pt x="153" y="335" on="0"/>
        <pt x="122" y="257" on="0"/>
        <pt x="122" y="214" on="1"/>
        <pt x="122" y="147" on="0"/>
        <pt x="209" y="55" on="0"/>
      </contour>
    </TTGlyph>
    <TTGlyph name="ccircumflex" xMin="51" yMin="-9" xMax="499" yMax="706">
      <component glyphName="c" x="0" y="0" flags="0x204"/>
      <component glyphName="circumflex" x="5" y="0" flags="0x4"/>
    </TTGlyph>
    <TTGlyph name="cdotaccent" xMin="51" yMin="-9" xMax="499" yMax="703">
      <component glyphName="c" x="0" y="0" flags="0x204"/>
      <component glyphName="dotaccent" x="122" y="0" flags="0x4"/>
    </TTGlyph>
    <TTGlyph name="cedilla" xMin="84" yMin="-239" xMax="306" yMax="0">
      <contour>
        <pt x="306" y="-138" on="1"/>
        <pt x="306" y="-181" on="0"/>
        <pt x="239" y="-239" on="0"/>
        <pt x="190" y="-239" on="1"/>
        <pt x="156" y="-239" on="0"/>
        <pt x="100" y="-217" on="0"/>
        <pt x="84" y="-197" on="1"/>
        <pt x="115" y="-167" on="1"/>
        <pt x="130" y="-183" on="0"/>
        <pt x="166" y="-199" on="0"/>
        <pt x="188" y="-199" on="1"/>
        <pt x="221" y="-199" on="0"/>
        <pt x="260" y="-169" on="0"/>
        <pt x="260" y="-144" on="1"/>
        <pt x="260" y="-123" on="0"/>
        <pt x="226" y="-99" on="0"/>
        <pt x="196" y="-99" on="1"/>
        <pt x="168" y="-99" on="1"/>
        <pt x="212" y="0" on="1"/>
        <pt x="254" y="0" on="1"/>
        <pt x="225" y="-66" on="1"/>
        <pt x="263" y="-70" on="0"/>
        <pt x="306" y="-107" on="0"/>
      </contour>
    </TTGlyph>
    <TTGlyph name="cent" xMin="51" yMin="-118" xMax="499" yMax="609">
      <contour>
        <pt x="182" y="-118" on="1"/>
        <pt x="206" y="-2" on="1"/>
        <pt x="137" y="15" on="0"/>
        <pt x="51" y="130" on="0"/>
        <pt x="51" y="210" on="1"/>
        <pt x="51" y="268" on="0"/>
        <pt x="93" y="372" on="0"/>
        <pt x="165" y="449" on="0"/>
        <pt x="260" y="494" on="0"/>
        <pt x="312" y="494" on="1"/>
        <pt x="336" y="609" on="1"/>
        <pt x="385" y="609" on="1"/>
        <pt x="360" y="490" on="1"/>
        <pt x="403" y="482" on="0"/>
        <pt x="477" y="435" on="0"/>
        <pt x="499" y="401" on="1"/>
        <pt x="445" y="356" on="1"/>
        <pt x="426" y="384" on="0"/>
        <pt x="376" y="419" on="0"/>
        <pt x="346" y="425" on="1"/>
        <pt x="267" y="55" on="1"/>
        <pt x="272" y="55" on="1"/>
        <pt x="308" y="55" on="0"/>
        <pt x="376" y="81" on="0"/>
        <pt x="404" y="103" on="1"/>
        <pt x="438" y="56" on="1"/>
        <pt x="400" y="24" on="0"/>
        <pt x="308" y="-9" on="0"/>
        <pt x="261" y="-9" on="1"/>
        <pt x="253" y="-9" on="1"/>
        <pt x="230" y="-118" on="1"/>
      </contour>
      <contour>
        <pt x="122" y="214" on="1"/>
        <pt x="122" y="161" on="0"/>
        <pt x="178" y="80" on="0"/>
        <pt x="221" y="64" on="1"/>
        <pt x="297" y="427" on="1"/>
        <pt x="261" y="424" on="0"/>
        <pt x="197" y="387" on="0"/>
        <pt x="150" y="330" on="0"/>
        <pt x="122" y="255" on="0"/>
      </contour>
    </TTGlyph>
    <TTGlyph name="circumflex" xMin="179" yMin="579" xMax="480" yMax="706">
      <contour>
        <pt x="424" y="579" on="1"/>
        <pt x="350" y="667" on="1"/>
        <pt x="240" y="579" on="1"/>
        <pt x="179" y="579" on="1"/>
        <pt x="316" y="706" on="1"/>
        <pt x="393" y="706" on="1"/>
        <pt x="480" y="579" on="1"/>
      </contour>
    </TTGlyph>
    <TTGlyph name="colon" xMin="13" yMin="-8" xMax="202" yMax="498">
      <component glyphName="period" x="2" y="0" flags="0x4"/>
      <component glyphName="period" x="87" y="397" flags="0x4"/>
    </TTGlyph>
    <TTGlyph name="comma" xMin="-57" yMin="-157" xMax="125" yMax="74">
      <contour>
        <pt x="47" y="74" on="1"/>
        <pt x="125" y="74" on="1"/>
        <pt x="0" y="-157" on="1"/>
        <pt x="-57" y="-157" on="1"/>
      </contour>
    </TTGlyph>
    <TTGlyph name="commaaccent" xMin="-63" yMin="-274" xMax="97" yMax="-87">
      <contour>
        <pt x="24" y="-87" on="1"/>
        <pt x="97" y="-87" on="1"/>
        <pt x="-10" y="-274" on="1"/>
        <pt x="-63" y="-274" on="1"/>
      </contour>
    </TTGlyph>
    <TTGlyph name="copyright" xMin="73" yMin="-9" xMax="754" yMax="706">
      <contour>
        <pt x="73" y="311" on="1"/>
        <pt x="73" y="391" on="0"/>
        <pt x="132" y="535" on="0"/>
        <pt x="233" y="643" on="0"/>
        <pt x="368" y="706" on="0"/>
        <pt x="443" y="706" on="1"/>
        <pt x="510" y="706" on="0"/>
        <pt x="624" y="658" on="0"/>
        <pt x="707" y="573" on="0"/>
        <pt x="754" y="455" on="0"/>
        <pt x="754" y="386" on="1"/>
        <pt x="754" y="306" on="0"/>
        <pt x="695" y="162" on="0"/>
        <pt x="594" y="54" on="0"/>
        <pt x="459" y="-9" on="0"/>
        <pt x="384" y="-9" on="1"/>
        <pt x="317" y="-9" on="0"/>
        <pt x="203" y="39" on="0"/>
        <pt x="120" y="124" on="0"/>
        <pt x="73" y="242" on="0"/>
      </contour>
      <contour>
        <pt x="709" y="381" on="1"/>
        <pt x="709" y="442" on="0"/>
        <pt x="668" y="546" on="0"/>
        <pt x="597" y="621" on="0"/>
        <pt x="498" y="663" on="0"/>
        <pt x="440" y="663" on="1"/>
        <pt x="375" y="663" on="0"/>
        <pt x="258" y="607" on="0"/>
        <pt x="171" y="512" on="0"/>
        <pt x="119" y="385" on="0"/>
        <pt x="119" y="315" on="1"/>
        <pt x="119" y="255" on="0"/>
        <pt x="159" y="151" on="0"/>
        <pt x="230" y="76" on="0"/>
        <pt x="327" y="33" on="0"/>
        <pt x="384" y="33" on="1"/>
        <pt x="450" y="33" on="0"/>
        <pt x="568" y="90" on="0"/>
        <pt x="657" y="185" on="0"/>
        <pt x="709" y="311" on="0"/>
      </contour>
      <contour>
        <pt x="249" y="328" on="1"/>
        <pt x="249" y="369" on="0"/>
        <pt x="280" y="444" on="0"/>
        <pt x="333" y="500" on="0"/>
        <pt x="403" y="533" on="0"/>
        <pt x="441" y="533" on="1"/>
        <pt x="483" y="533" on="0"/>
        <pt x="557" y="495" on="0"/>
        <pt x="577" y="462" on="1"/>
        <pt x="535" y="426" on="1"/>
        <pt x="519" y="452" on="0"/>
        <pt x="466" y="482" on="0"/>
        <pt x="438" y="482" on="1"/>
        <pt x="411" y="482" on="0"/>
        <pt x="362" y="458" on="0"/>
        <pt x="325" y="416" on="0"/>
        <pt x="303" y="362" on="0"/>
        <pt x="303" y="332" on="1"/>
        <pt x="303" y="283" on="0"/>
        <pt x="363" y="219" on="0"/>
        <pt x="409" y="219" on="1"/>
        <pt x="431" y="219" on="0"/>
        <pt x="476" y="237" on="0"/>
        <pt x="499" y="254" on="1"/>
        <pt x="522" y="212" on="1"/>
        <pt x="496" y="190" on="0"/>
        <pt x="433" y="167" on="0"/>
        <pt x="401" y="167" on="1"/>
        <pt x="336" y="167" on="0"/>
        <pt x="249" y="259" on="0"/>
      </contour>
    </TTGlyph>
    <TTGlyph name="cordinal" xMin="90" yMin="317" xMax="445" yMax="709">
      <contour>
        <pt x="267" y="372" on="1"/>
        <pt x="295" y="372" on="0"/>
        <pt x="347" y="393" on="0"/>
        <pt x="372" y="412" on="1"/>
        <pt x="402" y="369" on="1"/>
        <pt x="371" y="344" on="0"/>
        <pt x="298" y="317" on="0"/>
        <pt x="261" y="317" on="1"/>
        <pt x="188" y="317" on="0"/>
        <pt x="90" y="415" on="0"/>
        <pt x="90" y="490" on="1"/>
        <pt x="90" y="534" on="0"/>
        <pt x="123" y="614" on="0"/>
        <pt x="180" y="674" on="0"/>
        <pt x="256" y="709" on="0"/>
        <pt x="299" y="709" on="1"/>
        <pt x="342" y="709" on="0"/>
        <pt x="422" y="669" on="0"/>
        <pt x="445" y="636" on="1"/>
        <pt x="402" y="596" on="1"/>
        <pt x="382" y="624" on="0"/>
        <pt x="328" y="652" on="0"/>
        <pt x="297" y="652" on="1"/>
        <pt x="268" y="652" on="0"/>
        <pt x="214" y="626" on="0"/>
        <pt x="174" y="583" on="0"/>
        <pt x="150" y="525" on="0"/>
        <pt x="150" y="493" on="1"/>
        <pt x="150" y="442" on="0"/>
        <pt x="218" y="372" on="0"/>
      </contour>
    </TTGlyph>
    <TTGlyph name="d" xMin="51" yMin="-7" xMax="594" yMax="730">
      <contour>
        <pt x="371" y="0" on="1"/>
        <pt x="381" y="46" on="1"/>
        <pt x="353" y="21" on="0"/>
        <pt x="284" y="-7" on="0"/>
        <pt x="245" y="-7" on="1"/>
        <pt x="203" y="-7" on="0"/>
        <pt x="132" y="27" on="0"/>
        <pt x="80" y="86" on="0"/>
        <pt x="51" y="167" on="0"/>
        <pt x="51" y="214" on="1"/>
        <pt x="51" y="271" on="0"/>
        <pt x="91" y="373" on="0"/>
        <pt x="159" y="449" on="0"/>
        <pt x="251" y="493" on="0"/>
        <pt x="303" y="493" on="1"/>
        <pt x="352" y="493" on="0"/>
        <pt x="432" y="452" on="0"/>
        <pt x="458" y="415" on="1"/>
        <pt x="520" y="715" on="1"/>
        <pt x="594" y="730" on="1"/>
        <pt x="442" y="0" on="1"/>
      </contour>
      <contour>
        <pt x="122" y="220" on="1"/>
        <pt x="122" y="148" on="0"/>
        <pt x="205" y="56" on="0"/>
        <pt x="271" y="56" on="1"/>
        <pt x="305" y="56" on="0"/>
        <pt x="367" y="81" on="0"/>
        <pt x="393" y="104" on="1"/>
        <pt x="445" y="356" on="1"/>
        <pt x="426" y="389" on="0"/>
        <pt x="354" y="429" on="0"/>
        <pt x="312" y="429" on="1"/>
        <pt x="272" y="429" on="0"/>
        <pt x="203" y="396" on="0"/>
        <pt x="152" y="340" on="0"/>
        <pt x="122" y="264" on="0"/>
      </contour>
    </TTGlyph>
    <TTGlyph name="dagger" xMin="90" yMin="0" xMax="430" yMax="700">
      <contour>
        <pt x="128" y="0" on="1"/>
        <pt x="222" y="443" on="1"/>
        <pt x="90" y="443" on="1"/>
        <pt x="103" y="500" on="1"/>
        <pt x="234" y="500" on="1"/>
        <pt x="277" y="700" on="1"/>
        <pt x="340" y="700" on="1"/>
        <pt x="297" y="500" on="1"/>
        <pt x="430" y="500" on="1"/>
        <pt x="417" y="443" on="1"/>
        <pt x="285" y="443" on="1"/>
        <pt x="191" y="0" on="1"/>
      </contour>
    </TTGlyph>
    <TTGlyph name="daggerdbl" xMin="38" yMin="0" xMax="430" yMax="700">
      <contour>
        <pt x="128" y="0" on="1"/>
        <pt x="171" y="200" on="1"/>
        <pt x="38" y="200" on="1"/>
        <pt x="52" y="257" on="1"/>
        <pt x="183" y="257" on="1"/>
        <pt x="222" y="443" on="1"/>
        <pt x="90" y="443" on="1"/>
        <pt x="103" y="500" on="1"/>
        <pt x="234" y="500" on="1"/>
        <pt x="277" y="700" on="1"/>
        <pt x="340" y="700" on="1"/>
        <pt x="297" y="500" on="1"/>
        <pt x="430" y="500" on="1"/>
        <pt x="417" y="443" on="1"/>
        <pt x="285" y="443" on="1"/>
        <pt x="246" y="257" on="1"/>
        <pt x="378" y="257" on="1"/>
        <pt x="365" y="200" on="1"/>
        <pt x="234" y="200" on="1"/>
        <pt x="191" y="0" on="1"/>
      </contour>
    </TTGlyph>
    <TTGlyph name="dcaron" xMin="54" yMin="-7" xMax="773" yMax="730">
      <component glyphName="d" x="3" y="0" flags="0x4"/>
      <component glyphName="caronSlovak" x="403" y="0" flags="0x4"/>
    </TTGlyph>
    <TTGlyph name="dcroat" xMin="51" yMin="-7" xMax="640" yMax="730">
      <contour>
        <pt x="371" y="0" on="1"/>
        <pt x="381" y="46" on="1"/>
        <pt x="353" y="21" on="0"/>
        <pt x="284" y="-7" on="0"/>
        <pt x="245" y="-7" on="1"/>
        <pt x="203" y="-7" on="0"/>
        <pt x="132" y="27" on="0"/>
        <pt x="80" y="86" on="0"/>
        <pt x="51" y="167" on="0"/>
        <pt x="51" y="214" on="1"/>
        <pt x="51" y="271" on="0"/>
        <pt x="91" y="373" on="0"/>
        <pt x="159" y="449" on="0"/>
        <pt x="251" y="493" on="0"/>
        <pt x="303" y="493" on="1"/>
        <pt x="352" y="493" on="0"/>
        <pt x="432" y="452" on="0"/>
        <pt x="458" y="415" on="1"/>
        <pt x="490" y="573" on="1"/>
        <pt x="354" y="573" on="1"/>
        <pt x="366" y="623" on="1"/>
        <pt x="501" y="623" on="1"/>
        <pt x="520" y="715" on="1"/>
        <pt x="594" y="730" on="1"/>
        <pt x="572" y="623" on="1"/>
        <pt x="640" y="623" on="1"/>
        <pt x="628" y="573" on="1"/>
        <pt x="561" y="573" on="1"/>
        <pt x="442" y="0" on="1"/>
      </contour>
      <contour>
        <pt x="122" y="220" on="1"/>
        <pt x="122" y="148" on="0"/>
        <pt x="205" y="56" on="0"/>
        <pt x="271" y="56" on="1"/>
        <pt x="305" y="56" on="0"/>
        <pt x="367" y="81" on="0"/>
        <pt x="393" y="104" on="1"/>
        <pt x="445" y="356" on="1"/>
        <pt x="426" y="389" on="0"/>
        <pt x="354" y="429" on="0"/>
        <pt x="312" y="429" on="1"/>
        <pt x="272" y="429" on="0"/>
        <pt x="203" y="396" on="0"/>
        <pt x="152" y="340" on="0"/>
        <pt x="122" y="264" on="0"/>
      </contour>
    </TTGlyph>
    <TTGlyph name="degree" xMin="123" yMin="423" xMax="404" yMax="707">
      <contour>
        <pt x="249" y="423" on="1"/>
        <pt x="195" y="423" on="0"/>
        <pt x="123" y="496" on="0"/>
        <pt x="123" y="551" on="1"/>
        <pt x="123" y="582" on="0"/>
        <pt x="148" y="639" on="0"/>
        <pt x="190" y="682" on="0"/>
        <pt x="247" y="707" on="0"/>
        <pt x="278" y="707" on="1"/>
        <pt x="332" y="707" on="0"/>
        <pt x="404" y="634" on="0"/>
        <pt x="404" y="579" on="1"/>
        <pt x="404" y="548" on="0"/>
        <pt x="379" y="491" on="0"/>
        <pt x="337" y="448" on="0"/>
        <pt x="280" y="423" on="0"/>
      </contour>
      <contour>
        <pt x="252" y="471" on="1"/>
        <pt x="294" y="471" on="0"/>
        <pt x="354" y="532" on="0"/>
        <pt x="354" y="574" on="1"/>
        <pt x="354" y="611" on="0"/>
        <pt x="309" y="659" on="0"/>
        <pt x="275" y="659" on="1"/>
        <pt x="233" y="659" on="0"/>
        <pt x="173" y="599" on="0"/>
        <pt x="173" y="556" on="1"/>
        <pt x="173" y="519" on="0"/>
        <pt x="218" y="471" on="0"/>
      </contour>
    </TTGlyph>
    <TTGlyph name="dieresis" xMin="213" yMin="593" xMax="489" yMax="696">
      <contour>
        <pt x="256" y="593" on="1"/>
        <pt x="238" y="593" on="0"/>
        <pt x="213" y="620" on="0"/>
        <pt x="213" y="639" on="1"/>
        <pt x="213" y="661" on="0"/>
        <pt x="246" y="696" on="0"/>
        <pt x="268" y="696" on="1"/>
        <pt x="286" y="696" on="0"/>
        <pt x="312" y="669" on="0"/>
        <pt x="312" y="650" on="1"/>
        <pt x="312" y="628" on="0"/>
        <pt x="278" y="593" on="0"/>
      </contour>
      <contour>
        <pt x="434" y="593" on="1"/>
        <pt x="416" y="593" on="0"/>
        <pt x="390" y="620" on="0"/>
        <pt x="390" y="639" on="1"/>
        <pt x="390" y="661" on="0"/>
        <pt x="424" y="696" on="0"/>
        <pt x="445" y="696" on="1"/>
        <pt x="463" y="696" on="0"/>
        <pt x="489" y="669" on="0"/>
        <pt x="489" y="650" on="1"/>
        <pt x="489" y="628" on="0"/>
        <pt x="456" y="593" on="0"/>
      </contour>
    </TTGlyph>
    <TTGlyph name="divide" xMin="82" yMin="120" xMax="482" yMax="598">
      <contour>
        <pt x="315" y="492" on="1"/>
        <pt x="296" y="492" on="0"/>
        <pt x="269" y="520" on="0"/>
        <pt x="269" y="539" on="1"/>
        <pt x="269" y="562" on="0"/>
        <pt x="304" y="598" on="0"/>
        <pt x="327" y="598" on="1"/>
        <pt x="346" y="598" on="0"/>
        <pt x="373" y="570" on="0"/>
        <pt x="373" y="551" on="1"/>
        <pt x="373" y="528" on="0"/>
        <pt x="337" y="492" on="0"/>
      </contour>
      <contour>
        <pt x="82" y="327" on="1"/>
        <pt x="95" y="389" on="1"/>
        <pt x="482" y="389" on="1"/>
        <pt x="469" y="327" on="1"/>
      </contour>
      <contour>
        <pt x="236" y="120" on="1"/>
        <pt x="216" y="120" on="0"/>
        <pt x="189" y="148" on="0"/>
        <pt x="189" y="168" on="1"/>
        <pt x="189" y="191" on="0"/>
        <pt x="224" y="226" on="0"/>
        <pt x="247" y="226" on="1"/>
        <pt x="266" y="226" on="0"/>
        <pt x="293" y="199" on="0"/>
        <pt x="293" y="179" on="1"/>
        <pt x="293" y="156" on="0"/>
        <pt x="258" y="120" on="0"/>
      </contour>
    </TTGlyph>
    <TTGlyph name="dollar" xMin="21" yMin="-75" xMax="543" yMax="759">
      <contour>
        <pt x="175" y="-75" on="1"/>
        <pt x="196" y="25" on="1"/>
        <pt x="148" y="33" on="0"/>
        <pt x="61" y="80" on="0"/>
        <pt x="21" y="117" on="1"/>
        <pt x="63" y="167" on="1"/>
        <pt x="98" y="134" on="0"/>
        <pt x="171" y="93" on="0"/>
        <pt x="209" y="86" on="1"/>
        <pt x="261" y="331" on="1"/>
        <pt x="216" y="347" on="1"/>
        <pt x="163" y="368" on="0"/>
        <pt x="102" y="446" on="0"/>
        <pt x="102" y="493" on="1"/>
        <pt x="102" y="580" on="0"/>
        <pt x="225" y="681" on="0"/>
        <pt x="329" y="681" on="1"/>
        <pt x="335" y="681" on="1"/>
        <pt x="352" y="759" on="1"/>
        <pt x="400" y="759" on="1"/>
        <pt x="382" y="676" on="1"/>
        <pt x="425" y="667" on="0"/>
        <pt x="508" y="621" on="0"/>
        <pt x="543" y="587" on="1"/>
        <pt x="497" y="539" on="1"/>
        <pt x="469" y="568" on="0"/>
        <pt x="403" y="607" on="0"/>
        <pt x="369" y="615" on="1"/>
        <pt x="320" y="383" on="1"/>
        <pt x="356" y="370" on="1"/>
        <pt x="422" y="344" on="0"/>
        <pt x="485" y="272" on="0"/>
        <pt x="485" y="222" on="1"/>
        <pt x="485" y="132" on="0"/>
        <pt x="354" y="20" on="0"/>
        <pt x="250" y="20" on="1"/>
        <pt x="243" y="20" on="1"/>
        <pt x="223" y="-75" on="1"/>
      </contour>
      <contour>
        <pt x="243" y="408" on="1"/>
        <pt x="275" y="396" on="1"/>
        <pt x="323" y="621" on="1"/>
        <pt x="319" y="621" on="1"/>
        <pt x="250" y="621" on="0"/>
        <pt x="169" y="556" on="0"/>
        <pt x="169" y="502" on="1"/>
        <pt x="169" y="471" on="0"/>
        <pt x="207" y="423" on="0"/>
      </contour>
      <contour>
        <pt x="327" y="309" on="1"/>
        <pt x="306" y="317" on="1"/>
        <pt x="256" y="82" on="1"/>
        <pt x="328" y="83" on="0"/>
        <pt x="418" y="154" on="0"/>
        <pt x="418" y="210" on="1"/>
        <pt x="418" y="243" on="0"/>
        <pt x="374" y="290" on="0"/>
      </contour>
    </TTGlyph>
    <TTGlyph name="dotaccent" xMin="177" yMin="601" xMax="276" yMax="703">
      <contour>
        <pt x="221" y="601" on="1"/>
        <pt x="202" y="601" on="0"/>
        <pt x="177" y="627" on="0"/>
        <pt x="177" y="647" on="1"/>
        <pt x="177" y="669" on="0"/>
        <pt x="210" y="703" on="0"/>
        <pt x="232" y="703" on="1"/>
        <pt x="251" y="703" on="0"/>
        <pt x="276" y="677" on="0"/>
        <pt x="276" y="658" on="1"/>
        <pt x="276" y="636" on="0"/>
        <pt x="243" y="601" on="0"/>
      </contour>
    </TTGlyph>
    <TTGlyph name="dotlessi" xMin="21" yMin="0" xMax="199" yMax="488">
      <contour>
        <pt x="199" y="488" on="1"/>
        <pt x="93" y="0" on="1"/>
        <pt x="21" y="0" on="1"/>
        <pt x="128" y="488" on="1"/>
      </contour>
    </TTGlyph>
    <TTGlyph name="dotlessj" xMin="-114" yMin="-212" xMax="200" yMax="488">
      <contour>
        <pt x="-114" y="-204" on="1"/>
        <pt x="-100" y="-141" on="1"/>
        <pt x="-93" y="-144" on="0"/>
        <pt x="-74" y="-147" on="0"/>
        <pt x="-61" y="-147" on="1"/>
        <pt x="-33" y="-147" on="0"/>
        <pt x="-2" y="-119" on="0"/>
        <pt x="5" y="-86" on="1"/>
        <pt x="128" y="488" on="1"/>
        <pt x="200" y="488" on="1"/>
        <pt x="74" y="-92" on="1"/>
        <pt x="63" y="-149" on="0"/>
        <pt x="-9" y="-212" on="0"/>
        <pt x="-63" y="-212" on="1"/>
        <pt x="-76" y="-212" on="0"/>
        <pt x="-104" y="-208" on="0"/>
      </contour>
    </TTGlyph>
    <TTGlyph name="e" xMin="51" yMin="-9" xMax="498" yMax="496">
      <contour>
        <pt x="443" y="45" on="1"/>
        <pt x="400" y="17" on="0"/>
        <pt x="318" y="-9" on="0"/>
        <pt x="273" y="-9" on="1"/>
        <pt x="175" y="-9" on="0"/>
        <pt x="51" y="117" on="0"/>
        <pt x="51" y="216" on="1"/>
        <pt x="51" y="273" on="0"/>
        <pt x="91" y="376" on="0"/>
        <pt x="158" y="452" on="0"/>
        <pt x="250" y="496" on="0"/>
        <pt x="302" y="496" on="1"/>
        <pt x="387" y="496" on="0"/>
        <pt x="498" y="374" on="0"/>
        <pt x="498" y="281" on="1"/>
        <pt x="498" y="268" on="0"/>
        <pt x="496" y="242" on="0"/>
        <pt x="495" y="228" on="1"/>
        <pt x="121" y="228" on="1"/>
        <pt x="121" y="218" on="1"/>
        <pt x="121" y="148" on="0"/>
        <pt x="210" y="54" on="0"/>
        <pt x="276" y="54" on="1"/>
        <pt x="311" y="54" on="0"/>
        <pt x="380" y="77" on="0"/>
        <pt x="405" y="97" on="1"/>
      </contour>
      <contour>
        <pt x="297" y="432" on="1"/>
        <pt x="237" y="432" on="0"/>
        <pt x="144" y="346" on="0"/>
        <pt x="128" y="280" on="1"/>
        <pt x="430" y="280" on="1"/>
        <pt x="431" y="343" on="0"/>
        <pt x="354" y="432" on="0"/>
      </contour>
    </TTGlyph>
    <TTGlyph name="eacute" xMin="51" yMin="-9" xMax="509" yMax="706">
      <component glyphName="e" x="0" y="0" flags="0x204"/>
      <component glyphName="acute" x="26" y="0" flags="0x4"/>
    </TTGlyph>
    <TTGlyph name="ebreve" xMin="51" yMin="-9" xMax="498" yMax="719">
      <component glyphName="e" x="0" y="0" flags="0x204"/>
      <component glyphName="breve" x="-9" y="0" flags="0x4"/>
    </TTGlyph>
    <TTGlyph name="ecaron" xMin="51" yMin="-9" xMax="498" yMax="710">
      <component glyphName="e" x="0" y="0" flags="0x204"/>
      <component glyphName="caron" x="-8" y="0" flags="0x4"/>
    </TTGlyph>
    <TTGlyph name="ecircumflex" xMin="51" yMin="-9" xMax="498" yMax="706">
      <component glyphName="e" x="0" y="0" flags="0x204"/>
      <component glyphName="circumflex" x="-9" y="0" flags="0x4"/>
    </TTGlyph>
    <TTGlyph name="edieresis" xMin="51" yMin="-9" xMax="498" yMax="696">
      <component glyphName="e" x="0" y="0" flags="0x204"/>
      <component glyphName="dieresis" x="-19" y="0" flags="0x4"/>
    </TTGlyph>
    <TTGlyph name="edotaccent" xMin="51" yMin="-9" xMax="498" yMax="703">
      <component glyphName="e" x="0" y="0" flags="0x204"/>
      <component glyphName="dotaccent" x="108" y="0" flags="0x4"/>
    </TTGlyph>
    <TTGlyph name="egrave" xMin="51" yMin="-9" xMax="498" yMax="706">
      <component glyphName="e" x="0" y="0" flags="0x204"/>
      <component glyphName="grave" x="-5" y="0" flags="0x4"/>
    </TTGlyph>
    <TTGlyph name="eight" xMin="43" yMin="-9" xMax="578" yMax="710">
      <contour>
        <pt x="274" y="-9" on="1"/>
        <pt x="173" y="-9" on="0"/>
        <pt x="43" y="94" on="0"/>
        <pt x="43" y="173" on="1"/>
        <pt x="43" y="210" on="0"/>
        <pt x="74" y="277" on="0"/>
        <pt x="127" y="331" on="0"/>
        <pt x="200" y="369" on="0"/>
        <pt x="243" y="375" on="1"/>
        <pt x="195" y="394" on="0"/>
        <pt x="140" y="467" on="0"/>
        <pt x="140" y="513" on="1"/>
        <pt x="140" y="554" on="0"/>
        <pt x="177" y="626" on="0"/>
        <pt x="240" y="679" on="0"/>
        <pt x="326" y="710" on="0"/>
        <pt x="375" y="710" on="1"/>
        <pt x="462" y="710" on="0"/>
        <pt x="578" y="614" on="0"/>
        <pt x="578" y="541" on="1"/>
        <pt x="578" y="478" on="0"/>
        <pt x="481" y="379" on="0"/>
        <pt x="409" y="363" on="1"/>
        <pt x="466" y="344" on="0"/>
        <pt x="535" y="259" on="0"/>
        <pt x="535" y="206" on="1"/>
        <pt x="535" y="161" on="0"/>
        <pt x="494" y="82" on="0"/>
        <pt x="424" y="24" on="0"/>
        <pt x="328" y="-9" on="0"/>
      </contour>
      <contour>
        <pt x="347" y="398" on="1"/>
        <pt x="414" y="398" on="0"/>
        <pt x="509" y="479" on="0"/>
        <pt x="509" y="536" on="1"/>
        <pt x="509" y="585" on="0"/>
        <pt x="428" y="653" on="0"/>
        <pt x="369" y="653" on="1"/>
        <pt x="303" y="653" on="0"/>
        <pt x="208" y="572" on="0"/>
        <pt x="208" y="515" on="1"/>
        <pt x="208" y="465" on="0"/>
        <pt x="287" y="398" on="0"/>
      </contour>
      <contour>
        <pt x="278" y="50" on="1"/>
        <pt x="316" y="50" on="0"/>
        <pt x="385" y="75" on="0"/>
        <pt x="436" y="117" on="0"/>
        <pt x="466" y="174" on="0"/>
        <pt x="466" y="206" on="1"/>
        <pt x="466" y="263" on="0"/>
        <pt x="371" y="339" on="0"/>
        <pt x="300" y="339" on="1"/>
        <pt x="262" y="339" on="0"/>
        <pt x="194" y="314" on="0"/>
        <pt x="144" y="272" on="0"/>
        <pt x="114" y="216" on="0"/>
        <pt x="114" y="184" on="1"/>
        <pt x="114" y="127" on="0"/>
        <pt x="207" y="50" on="0"/>
      </contour>
    </TTGlyph>
    <TTGlyph name="ellipsis" xMin="11" yMin="-8" xMax="552" yMax="101">
      <component glyphName="period" x="0" y="0" flags="0x4"/>
      <component glyphName="period" x="219" y="0" flags="0x4"/>
      <component glyphName="period" x="437" y="0" flags="0x4"/>
    </TTGlyph>
    <TTGlyph name="emacron" xMin="51" yMin="-9" xMax="498" yMax="663">
      <component glyphName="e" x="0" y="0" flags="0x204"/>
      <component glyphName="macron" x="-9" y="0" flags="0x4"/>
    </TTGlyph>
    <TTGlyph name="emdash" xMin="59" yMin="250" xMax="632" yMax="313">
      <contour>
        <pt x="74" y="313" on="1"/>
        <pt x="632" y="313" on="1"/>
        <pt x="617" y="250" on="1"/>
        <pt x="59" y="250" on="1"/>
      </contour>
    </TTGlyph>
    <TTGlyph name="emdash.cap" xMin="76" yMin="315" xMax="649" yMax="378">
      <component glyphName="emdash" x="17" y="65" flags="0x4"/>
    </TTGlyph>
    <TTGlyph name="endash" xMin="59" yMin="250" xMax="492" yMax="313">
      <contour>
        <pt x="74" y="313" on="1"/>
        <pt x="492" y="313" on="1"/>
        <pt x="478" y="250" on="1"/>
        <pt x="59" y="250" on="1"/>
      </contour>
    </TTGlyph>
    <TTGlyph name="endash.cap" xMin="74" yMin="315" xMax="507" yMax="378">
      <component glyphName="endash" x="15" y="65" flags="0x4"/>
    </TTGlyph>
    <TTGlyph name="eng" xMin="21" yMin="-212" xMax="489" yMax="495">
      <contour>
        <pt x="21" y="0" on="1"/>
        <pt x="128" y="488" on="1"/>
        <pt x="199" y="488" on="1"/>
        <pt x="184" y="417" on="1"/>
        <pt x="216" y="456" on="0"/>
        <pt x="294" y="495" on="0"/>
        <pt x="337" y="495" on="1"/>
        <pt x="419" y="495" on="0"/>
        <pt x="502" y="386" on="0"/>
        <pt x="483" y="303" on="1"/>
        <pt x="399" y="-92" on="1"/>
        <pt x="387" y="-149" on="0"/>
        <pt x="315" y="-212" on="0"/>
        <pt x="262" y="-212" on="1"/>
        <pt x="249" y="-212" on="0"/>
        <pt x="221" y="-208" on="0"/>
        <pt x="211" y="-204" on="1"/>
        <pt x="224" y="-140" on="1"/>
        <pt x="232" y="-143" on="0"/>
        <pt x="251" y="-146" on="0"/>
        <pt x="264" y="-146" on="1"/>
        <pt x="292" y="-146" on="0"/>
        <pt x="322" y="-117" on="0"/>
        <pt x="329" y="-85" on="1"/>
        <pt x="408" y="286" on="1"/>
        <pt x="422" y="352" on="0"/>
        <pt x="366" y="435" on="0"/>
        <pt x="306" y="435" on="1"/>
        <pt x="269" y="435" on="0"/>
        <pt x="201" y="400" on="0"/>
        <pt x="173" y="367" on="1"/>
        <pt x="93" y="0" on="1"/>
      </contour>
    </TTGlyph>
    <TTGlyph name="eogonek" xMin="51" yMin="-232" xMax="498" yMax="496">
      <contour>
        <pt x="347" y="0" on="1"/>
        <pt x="281" y="-36" on="0"/>
        <pt x="216" y="-104" on="0"/>
        <pt x="216" y="-139" on="1"/>
        <pt x="216" y="-161" on="0"/>
        <pt x="250" y="-187" on="0"/>
        <pt x="276" y="-187" on="1"/>
        <pt x="286" y="-187" on="0"/>
        <pt x="312" y="-182" on="0"/>
        <pt x="322" y="-178" on="1"/>
        <pt x="326" y="-218" on="1"/>
        <pt x="313" y="-225" on="0"/>
        <pt x="278" y="-232" on="0"/>
        <pt x="260" y="-232" on="1"/>
        <pt x="217" y="-232" on="0"/>
        <pt x="165" y="-189" on="0"/>
        <pt x="165" y="-154" on="1"/>
        <pt x="165" y="-115" on="0"/>
        <pt x="219" y="-43" on="0"/>
        <pt x="272" y="-9" on="1"/>
        <pt x="175" y="-9" on="0"/>
        <pt x="51" y="117" on="0"/>
        <pt x="51" y="216" on="1"/>
        <pt x="51" y="273" on="0"/>
        <pt x="91" y="376" on="0"/>
        <pt x="158" y="452" on="0"/>
        <pt x="250" y="496" on="0"/>
        <pt x="302" y="496" on="1"/>
        <pt x="387" y="496" on="0"/>
        <pt x="498" y="374" on="0"/>
        <pt x="498" y="281" on="1"/>
        <pt x="498" y="268" on="0"/>
        <pt x="496" y="242" on="0"/>
        <pt x="495" y="228" on="1"/>
        <pt x="121" y="228" on="1"/>
        <pt x="121" y="218" on="1"/>
        <pt x="121" y="148" on="0"/>
        <pt x="210" y="54" on="0"/>
        <pt x="276" y="54" on="1"/>
        <pt x="311" y="54" on="0"/>
        <pt x="380" y="77" on="0"/>
        <pt x="405" y="97" on="1"/>
        <pt x="443" y="45" on="1"/>
        <pt x="418" y="29" on="0"/>
        <pt x="371" y="7" on="0"/>
      </contour>
      <contour>
        <pt x="297" y="432" on="1"/>
        <pt x="237" y="432" on="0"/>
        <pt x="144" y="346" on="0"/>
        <pt x="128" y="280" on="1"/>
        <pt x="430" y="280" on="1"/>
        <pt x="431" y="343" on="0"/>
        <pt x="354" y="432" on="0"/>
      </contour>
    </TTGlyph>
    <TTGlyph name="equal" xMin="65" yMin="244" xMax="500" yMax="469">
      <component glyphName="minus" x="-17" y="-83" flags="0x4"/>
      <component glyphName="minus" x="18" y="80" flags="0x4"/>
    </TTGlyph>
    <TTGlyph name="eth" xMin="52" yMin="-9" xMax="582" yMax="729">
      <contour>
        <pt x="316" y="527" on="1"/>
        <pt x="298" y="573" on="1"/>
        <pt x="391" y="618" on="1"/>
        <pt x="372" y="637" on="0"/>
        <pt x="328" y="668" on="0"/>
        <pt x="302" y="679" on="1"/>
        <pt x="341" y="729" on="1"/>
        <pt x="374" y="713" on="0"/>
        <pt x="429" y="672" on="0"/>
        <pt x="451" y="647" on="1"/>
        <pt x="565" y="703" on="1"/>
        <pt x="582" y="658" on="1"/>
        <pt x="481" y="608" on="1"/>
        <pt x="511" y="563" on="0"/>
        <pt x="542" y="451" on="0"/>
        <pt x="542" y="385" on="1"/>
        <pt x="542" y="298" on="0"/>
        <pt x="500" y="153" on="0"/>
        <pt x="426" y="49" on="0"/>
        <pt x="322" y="-9" on="0"/>
        <pt x="260" y="-9" on="1"/>
        <pt x="169" y="-9" on="0"/>
        <pt x="52" y="113" on="0"/>
        <pt x="52" y="208" on="1"/>
        <pt x="52" y="265" on="0"/>
        <pt x="90" y="364" on="0"/>
        <pt x="156" y="437" on="0"/>
        <pt x="246" y="478" on="0"/>
        <pt x="297" y="478" on="1"/>
        <pt x="364" y="479" on="0"/>
        <pt x="463" y="407" on="0"/>
        <pt x="479" y="351" on="1"/>
        <pt x="482" y="418" on="0"/>
        <pt x="454" y="534" on="0"/>
        <pt x="423" y="580" on="1"/>
      </contour>
      <contour>
        <pt x="264" y="55" on="1"/>
        <pt x="301" y="55" on="0"/>
        <pt x="369" y="89" on="0"/>
        <pt x="420" y="145" on="0"/>
        <pt x="450" y="220" on="0"/>
        <pt x="450" y="261" on="1"/>
        <pt x="450" y="329" on="0"/>
        <pt x="367" y="419" on="0"/>
        <pt x="304" y="419" on="1"/>
        <pt x="267" y="419" on="0"/>
        <pt x="200" y="386" on="0"/>
        <pt x="150" y="330" on="0"/>
        <pt x="120" y="254" on="0"/>
        <pt x="120" y="213" on="1"/>
        <pt x="120" y="144" on="0"/>
        <pt x="201" y="55" on="0"/>
      </contour>
    </TTGlyph>
    <TTGlyph name="exclam" xMin="11" yMin="-8" xMax="244" yMax="717">
      <contour>
        <pt x="67" y="205" on="1"/>
        <pt x="170" y="717" on="1"/>
        <pt x="244" y="717" on="1"/>
        <pt x="124" y="205" on="1"/>
      </contour>
      <contour>
        <pt x="58" y="-8" on="1"/>
        <pt x="38" y="-8" on="0"/>
        <pt x="11" y="20" on="0"/>
        <pt x="11" y="40" on="1"/>
        <pt x="11" y="63" on="0"/>
        <pt x="46" y="98" on="0"/>
        <pt x="69" y="98" on="1"/>
        <pt x="89" y="98" on="0"/>
        <pt x="115" y="70" on="0"/>
        <pt x="115" y="51" on="1"/>
        <pt x="115" y="28" on="0"/>
        <pt x="80" y="-8" on="0"/>
      </contour>
    </TTGlyph>
    <TTGlyph name="exclamdown" xMin="13" yMin="-13" xMax="246" yMax="712">
      <contour>
        <pt x="190" y="499" on="1"/>
        <pt x="87" y="-13" on="1"/>
        <pt x="13" y="-13" on="1"/>
        <pt x="133" y="499" on="1"/>
      </contour>
      <contour>
        <pt x="199" y="712" on="1"/>
        <pt x="219" y="712" on="0"/>
        <pt x="246" y="684" on="0"/>
        <pt x="246" y="664" on="1"/>
        <pt x="246" y="641" on="0"/>
        <pt x="211" y="606" on="0"/>
        <pt x="188" y="606" on="1"/>
        <pt x="168" y="606" on="0"/>
        <pt x="142" y="634" on="0"/>
        <pt x="142" y="653" on="1"/>
        <pt x="142" y="676" on="0"/>
        <pt x="177" y="712" on="0"/>
      </contour>
    </TTGlyph>
    <TTGlyph name="f" xMin="66" yMin="0" xMax="444" yMax="745">
      <contour>
        <pt x="80" y="488" on="1"/>
        <pt x="184" y="488" on="1"/>
        <pt x="209" y="605" on="1"/>
        <pt x="224" y="672" on="0"/>
        <pt x="306" y="745" on="0"/>
        <pt x="368" y="745" on="1"/>
        <pt x="390" y="745" on="0"/>
        <pt x="428" y="738" on="0"/>
        <pt x="444" y="731" on="1"/>
        <pt x="431" y="666" on="1"/>
        <pt x="415" y="673" on="0"/>
        <pt x="384" y="679" on="0"/>
        <pt x="366" y="679" on="1"/>
        <pt x="329" y="679" on="0"/>
        <pt x="289" y="642" on="0"/>
        <pt x="280" y="599" on="1"/>
        <pt x="256" y="488" on="1"/>
        <pt x="395" y="488" on="1"/>
        <pt x="381" y="428" on="1"/>
        <pt x="243" y="428" on="1"/>
        <pt x="152" y="0" on="1"/>
        <pt x="80" y="0" on="1"/>
        <pt x="171" y="428" on="1"/>
        <pt x="66" y="428" on="1"/>
      </contour>
    </TTGlyph>
    <TTGlyph name="fi" xMin="66" yMin="0" xMax="608" yMax="745">
      <component glyphName="f" x="0" y="0" flags="0x4"/>
      <component glyphName="i" x="362" y="0" flags="0x4"/>
    </TTGlyph>
    <TTGlyph name="five" xMin="6" yMin="-9" xMax="568" yMax="700">
      <contour>
        <pt x="90" y="363" on="1"/>
        <pt x="175" y="700" on="1"/>
        <pt x="568" y="700" on="1"/>
        <pt x="554" y="637" on="1"/>
        <pt x="223" y="637" on="1"/>
        <pt x="163" y="403" on="1"/>
        <pt x="198" y="418" on="0"/>
        <pt x="260" y="431" on="0"/>
        <pt x="294" y="431" on="1"/>
        <pt x="390" y="431" on="0"/>
        <pt x="504" y="328" on="0"/>
        <pt x="504" y="240" on="1"/>
        <pt x="504" y="189" on="0"/>
        <pt x="462" y="98" on="0"/>
        <pt x="391" y="30" on="0"/>
        <pt x="294" y="-9" on="0"/>
        <pt x="240" y="-9" on="1"/>
        <pt x="167" y="-9" on="0"/>
        <pt x="45" y="49" on="0"/>
        <pt x="6" y="102" on="1"/>
        <pt x="55" y="148" on="1"/>
        <pt x="93" y="99" on="0"/>
        <pt x="186" y="53" on="0"/>
        <pt x="244" y="53" on="1"/>
        <pt x="324" y="53" on="0"/>
        <pt x="431" y="157" on="0"/>
        <pt x="431" y="233" on="1"/>
        <pt x="431" y="299" on="0"/>
        <pt x="347" y="375" on="0"/>
        <pt x="272" y="375" on="1"/>
        <pt x="241" y="375" on="0"/>
        <pt x="175" y="359" on="0"/>
        <pt x="135" y="343" on="1"/>
      </contour>
    </TTGlyph>
    <TTGlyph name="fl" xMin="66" yMin="0" xMax="607" yMax="745">
      <component glyphName="f" x="0" y="0" flags="0x4"/>
      <component glyphName="l" x="362" y="0" flags="0x4"/>
    </TTGlyph>
    <TTGlyph name="four" xMin="24" yMin="0" xMax="573" yMax="700">
      <contour>
        <pt x="573" y="700" on="1"/>
        <pt x="477" y="250" on="1"/>
        <pt x="573" y="250" on="1"/>
        <pt x="559" y="187" on="1"/>
        <pt x="464" y="187" on="1"/>
        <pt x="424" y="0" on="1"/>
        <pt x="354" y="0" on="1"/>
        <pt x="394" y="187" on="1"/>
        <pt x="24" y="187" on="1"/>
        <pt x="37" y="244" on="1"/>
        <pt x="498" y="700" on="1"/>
      </contour>
      <contour>
        <pt x="123" y="250" on="1"/>
        <pt x="407" y="250" on="1"/>
        <pt x="483" y="607" on="1"/>
      </contour>
    </TTGlyph>
    <TTGlyph name="fraction" xMin="5" yMin="0" xMax="596" yMax="700">
      <contour>
        <pt x="59" y="0" on="1"/>
        <pt x="5" y="0" on="1"/>
        <pt x="539" y="700" on="1"/>
        <pt x="596" y="700" on="1"/>
      </contour>
    </TTGlyph>
    <TTGlyph name="g" xMin="23" yMin="-216" xMax="544" yMax="493">
      <contour>
        <pt x="246" y="-6" on="1"/>
        <pt x="204" y="-6" on="0"/>
        <pt x="132" y="27" on="0"/>
        <pt x="80" y="86" on="0"/>
        <pt x="51" y="167" on="0"/>
        <pt x="51" y="214" on="1"/>
        <pt x="51" y="271" on="0"/>
        <pt x="91" y="373" on="0"/>
        <pt x="159" y="449" on="0"/>
        <pt x="252" y="493" on="0"/>
        <pt x="303" y="493" on="1"/>
        <pt x="352" y="493" on="0"/>
        <pt x="433" y="452" on="0"/>
        <pt x="458" y="415" on="1"/>
        <pt x="473" y="488" on="1"/>
        <pt x="544" y="488" on="1"/>
        <pt x="432" y="-49" on="1"/>
        <pt x="415" y="-130" on="0"/>
        <pt x="311" y="-216" on="0"/>
        <pt x="232" y="-216" on="1"/>
        <pt x="179" y="-216" on="0"/>
        <pt x="65" y="-176" on="0"/>
        <pt x="23" y="-143" on="1"/>
        <pt x="61" y="-90" on="1"/>
        <pt x="104" y="-121" on="0"/>
        <pt x="187" y="-152" on="0"/>
        <pt x="228" y="-152" on="1"/>
        <pt x="282" y="-152" on="0"/>
        <pt x="352" y="-95" on="0"/>
        <pt x="363" y="-43" on="1"/>
        <pt x="382" y="48" on="1"/>
        <pt x="354" y="22" on="0"/>
        <pt x="285" y="-6" on="0"/>
      </contour>
      <contour>
        <pt x="122" y="220" on="1"/>
        <pt x="122" y="148" on="0"/>
        <pt x="205" y="56" on="0"/>
        <pt x="271" y="56" on="1"/>
        <pt x="305" y="56" on="0"/>
        <pt x="368" y="81" on="0"/>
        <pt x="394" y="105" on="1"/>
        <pt x="446" y="357" on="1"/>
        <pt x="426" y="390" on="0"/>
        <pt x="353" y="429" on="0"/>
        <pt x="312" y="429" on="1"/>
        <pt x="272" y="429" on="0"/>
        <pt x="203" y="396" on="0"/>
        <pt x="152" y="340" on="0"/>
        <pt x="122" y="264" on="0"/>
      </contour>
    </TTGlyph>
    <TTGlyph name="g.alt" xMin="-30" yMin="-208" xMax="583" yMax="520">
      <contour>
        <pt x="75" y="299" on="1"/>
        <pt x="75" y="338" on="0"/>
        <pt x="110" y="409" on="0"/>
        <pt x="170" y="463" on="0"/>
        <pt x="249" y="495" on="0"/>
        <pt x="292" y="495" on="1"/>
        <pt x="338" y="495" on="0"/>
        <pt x="413" y="460" on="0"/>
        <pt x="437" y="431" on="1"/>
        <pt x="450" y="473" on="0"/>
        <pt x="507" y="520" on="0"/>
        <pt x="547" y="520" on="1"/>
        <pt x="555" y="520" on="0"/>
        <pt x="575" y="517" on="0"/>
        <pt x="583" y="515" on="1"/>
        <pt x="569" y="446" on="1"/>
        <pt x="559" y="449" on="0"/>
        <pt x="536" y="453" on="0"/>
        <pt x="523" y="453" on="1"/>
        <pt x="499" y="453" on="0"/>
        <pt x="462" y="428" on="0"/>
        <pt x="453" y="408" on="1"/>
        <pt x="462" y="392" on="0"/>
        <pt x="472" y="355" on="0"/>
        <pt x="472" y="335" on="1"/>
        <pt x="472" y="294" on="0"/>
        <pt x="438" y="222" on="0"/>
        <pt x="380" y="168" on="0"/>
        <pt x="301" y="137" on="0"/>
        <pt x="256" y="137" on="1"/>
        <pt x="236" y="137" on="0"/>
        <pt x="198" y="144" on="0"/>
        <pt x="181" y="150" on="1"/>
        <pt x="150" y="146" on="0"/>
        <pt x="110" y="115" on="0"/>
        <pt x="110" y="95" on="1"/>
        <pt x="110" y="79" on="0"/>
        <pt x="136" y="60" on="0"/>
        <pt x="161" y="57" on="1"/>
        <pt x="342" y="33" on="1"/>
        <pt x="395" y="26" on="0"/>
        <pt x="449" y="-19" on="0"/>
        <pt x="449" y="-56" on="1"/>
        <pt x="449" y="-125" on="0"/>
        <pt x="318" y="-208" on="0"/>
        <pt x="210" y="-208" on="1"/>
        <pt x="101" y="-208" on="0"/>
        <pt x="-30" y="-145" on="0"/>
        <pt x="-30" y="-92" on="1"/>
        <pt x="-30" y="-58" on="0"/>
        <pt x="31" y="-8" on="0"/>
        <pt x="88" y="6" on="1"/>
        <pt x="66" y="16" on="0"/>
        <pt x="43" y="49" on="0"/>
        <pt x="43" y="70" on="1"/>
        <pt x="43" y="104" on="0"/>
        <pt x="103" y="158" on="0"/>
        <pt x="149" y="167" on="1"/>
        <pt x="115" y="189" on="0"/>
        <pt x="75" y="257" on="0"/>
      </contour>
      <contour>
        <pt x="402" y="328" on="1"/>
        <pt x="402" y="375" on="0"/>
        <pt x="337" y="439" on="0"/>
        <pt x="288" y="439" on="1"/>
        <pt x="231" y="439" on="0"/>
        <pt x="145" y="357" on="0"/>
        <pt x="145" y="302" on="1"/>
        <pt x="145" y="255" on="0"/>
        <pt x="211" y="193" on="0"/>
        <pt x="261" y="193" on="1"/>
        <pt x="318" y="193" on="0"/>
        <pt x="402" y="273" on="0"/>
      </contour>
      <contour>
        <pt x="40" y="-78" on="1"/>
        <pt x="40" y="-113" on="0"/>
        <pt x="134" y="-155" on="0"/>
        <pt x="214" y="-155" on="1"/>
        <pt x="285" y="-155" on="0"/>
        <pt x="374" y="-110" on="0"/>
        <pt x="374" y="-75" on="1"/>
        <pt x="374" y="-58" on="0"/>
        <pt x="347" y="-35" on="0"/>
        <pt x="322" y="-31" on="1"/>
        <pt x="145" y="-10" on="1"/>
        <pt x="140" y="-9" on="0"/>
        <pt x="129" y="-7" on="0"/>
        <pt x="124" y="-6" on="1"/>
        <pt x="85" y="-16" on="0"/>
        <pt x="40" y="-53" on="0"/>
      </contour>
    </TTGlyph>
    <TTGlyph name="gbreve" xMin="23" yMin="-216" xMax="544" yMax="718">
      <component glyphName="g" x="0" y="0" flags="0x204"/>
      <component glyphName="breve" x="13" y="-1" flags="0x4"/>
    </TTGlyph>
    <TTGlyph name="gbreve.alt" xMin="-30" yMin="-208" xMax="583" yMax="718">
      <component glyphName="g.alt" x="0" y="0" flags="0x204"/>
      <component glyphName="breve" x="-15" y="-1" flags="0x4"/>
    </TTGlyph>
    <TTGlyph name="gcircumflex" xMin="23" yMin="-216" xMax="544" yMax="705">
      <component glyphName="g" x="0" y="0" flags="0x204"/>
      <component glyphName="circumflex" x="14" y="-1" flags="0x4"/>
    </TTGlyph>
    <TTGlyph name="gcircumflex.alt" xMin="-30" yMin="-208" xMax="583" yMax="705">
      <component glyphName="g.alt" x="0" y="0" flags="0x204"/>
      <component glyphName="circumflex" x="-15" y="-1" flags="0x4"/>
    </TTGlyph>
    <TTGlyph name="gcommaaccent" xMin="23" yMin="-216" xMax="544" yMax="797">
      <contour>
        <pt x="367" y="610" on="1"/>
        <pt x="294" y="610" on="1"/>
        <pt x="401" y="797" on="1"/>
        <pt x="454" y="797" on="1"/>
      </contour>
      <contour>
        <pt x="246" y="-6" on="1"/>
        <pt x="204" y="-6" on="0"/>
        <pt x="132" y="27" on="0"/>
        <pt x="80" y="86" on="0"/>
        <pt x="51" y="167" on="0"/>
        <pt x="51" y="214" on="1"/>
        <pt x="51" y="271" on="0"/>
        <pt x="91" y="373" on="0"/>
        <pt x="159" y="449" on="0"/>
        <pt x="252" y="493" on="0"/>
        <pt x="303" y="493" on="1"/>
        <pt x="352" y="493" on="0"/>
        <pt x="433" y="452" on="0"/>
        <pt x="458" y="415" on="1"/>
        <pt x="473" y="488" on="1"/>
        <pt x="544" y="488" on="1"/>
        <pt x="432" y="-49" on="1"/>
        <pt x="415" y="-130" on="0"/>
        <pt x="311" y="-216" on="0"/>
        <pt x="232" y="-216" on="1"/>
        <pt x="179" y="-216" on="0"/>
        <pt x="65" y="-176" on="0"/>
        <pt x="23" y="-143" on="1"/>
        <pt x="61" y="-90" on="1"/>
        <pt x="104" y="-121" on="0"/>
        <pt x="187" y="-152" on="0"/>
        <pt x="228" y="-152" on="1"/>
        <pt x="282" y="-152" on="0"/>
        <pt x="352" y="-95" on="0"/>
        <pt x="363" y="-43" on="1"/>
        <pt x="382" y="48" on="1"/>
        <pt x="354" y="22" on="0"/>
        <pt x="285" y="-6" on="0"/>
      </contour>
      <contour>
        <pt x="122" y="220" on="1"/>
        <pt x="122" y="148" on="0"/>
        <pt x="205" y="56" on="0"/>
        <pt x="271" y="56" on="1"/>
        <pt x="305" y="56" on="0"/>
        <pt x="368" y="81" on="0"/>
        <pt x="394" y="105" on="1"/>
        <pt x="446" y="357" on="1"/>
        <pt x="426" y="390" on="0"/>
        <pt x="353" y="429" on="0"/>
        <pt x="312" y="429" on="1"/>
        <pt x="272" y="429" on="0"/>
        <pt x="203" y="396" on="0"/>
        <pt x="152" y="340" on="0"/>
        <pt x="122" y="264" on="0"/>
      </contour>
    </TTGlyph>
    <TTGlyph name="gcommaaccent.alt" xMin="-30" yMin="-208" xMax="583" yMax="798">
      <contour>
        <pt x="342" y="611" on="1"/>
        <pt x="269" y="611" on="1"/>
        <pt x="376" y="798" on="1"/>
        <pt x="429" y="798" on="1"/>
      </contour>
      <contour>
        <pt x="75" y="299" on="1"/>
        <pt x="75" y="338" on="0"/>
        <pt x="110" y="409" on="0"/>
        <pt x="170" y="463" on="0"/>
        <pt x="249" y="495" on="0"/>
        <pt x="292" y="495" on="1"/>
        <pt x="338" y="495" on="0"/>
        <pt x="413" y="460" on="0"/>
        <pt x="437" y="431" on="1"/>
        <pt x="450" y="473" on="0"/>
        <pt x="507" y="520" on="0"/>
        <pt x="547" y="520" on="1"/>
        <pt x="555" y="520" on="0"/>
        <pt x="575" y="517" on="0"/>
        <pt x="583" y="515" on="1"/>
        <pt x="569" y="446" on="1"/>
        <pt x="559" y="449" on="0"/>
        <pt x="536" y="453" on="0"/>
        <pt x="523" y="453" on="1"/>
        <pt x="499" y="453" on="0"/>
        <pt x="462" y="428" on="0"/>
        <pt x="453" y="408" on="1"/>
        <pt x="462" y="392" on="0"/>
        <pt x="472" y="355" on="0"/>
        <pt x="472" y="335" on="1"/>
        <pt x="472" y="294" on="0"/>
        <pt x="438" y="222" on="0"/>
        <pt x="380" y="168" on="0"/>
        <pt x="301" y="137" on="0"/>
        <pt x="256" y="137" on="1"/>
        <pt x="236" y="137" on="0"/>
        <pt x="198" y="144" on="0"/>
        <pt x="181" y="150" on="1"/>
        <pt x="150" y="146" on="0"/>
        <pt x="110" y="115" on="0"/>
        <pt x="110" y="95" on="1"/>
        <pt x="110" y="79" on="0"/>
        <pt x="136" y="60" on="0"/>
        <pt x="161" y="57" on="1"/>
        <pt x="342" y="33" on="1"/>
        <pt x="395" y="26" on="0"/>
        <pt x="449" y="-19" on="0"/>
        <pt x="449" y="-56" on="1"/>
        <pt x="449" y="-125" on="0"/>
        <pt x="318" y="-208" on="0"/>
        <pt x="210" y="-208" on="1"/>
        <pt x="101" y="-208" on="0"/>
        <pt x="-30" y="-145" on="0"/>
        <pt x="-30" y="-92" on="1"/>
        <pt x="-30" y="-58" on="0"/>
        <pt x="31" y="-8" on="0"/>
        <pt x="88" y="6" on="1"/>
        <pt x="66" y="16" on="0"/>
        <pt x="43" y="49" on="0"/>
        <pt x="43" y="70" on="1"/>
        <pt x="43" y="104" on="0"/>
        <pt x="103" y="158" on="0"/>
        <pt x="149" y="167" on="1"/>
        <pt x="115" y="189" on="0"/>
        <pt x="75" y="257" on="0"/>
      </contour>
      <contour>
        <pt x="402" y="328" on="1"/>
        <pt x="402" y="375" on="0"/>
        <pt x="337" y="439" on="0"/>
        <pt x="288" y="439" on="1"/>
        <pt x="231" y="439" on="0"/>
        <pt x="145" y="357" on="0"/>
        <pt x="145" y="302" on="1"/>
        <pt x="145" y="255" on="0"/>
        <pt x="211" y="193" on="0"/>
        <pt x="261" y="193" on="1"/>
        <pt x="318" y="193" on="0"/>
        <pt x="402" y="273" on="0"/>
      </contour>
      <contour>
        <pt x="40" y="-78" on="1"/>
        <pt x="40" y="-113" on="0"/>
        <pt x="134" y="-155" on="0"/>
        <pt x="214" y="-155" on="1"/>
        <pt x="285" y="-155" on="0"/>
        <pt x="374" y="-110" on="0"/>
        <pt x="374" y="-75" on="1"/>
        <pt x="374" y="-58" on="0"/>
        <pt x="347" y="-35" on="0"/>
        <pt x="322" y="-31" on="1"/>
        <pt x="145" y="-10" on="1"/>
        <pt x="140" y="-9" on="0"/>
        <pt x="129" y="-7" on="0"/>
        <pt x="124" y="-6" on="1"/>
        <pt x="85" y="-16" on="0"/>
        <pt x="40" y="-53" on="0"/>
      </contour>
    </TTGlyph>
    <TTGlyph name="gdotaccent" xMin="23" yMin="-216" xMax="544" yMax="702">
      <component glyphName="g" x="0" y="0" flags="0x204"/>
      <component glyphName="dotaccent" x="130" y="-1" flags="0x4"/>
    </TTGlyph>
    <TTGlyph name="gdotaccent.alt" xMin="-30" yMin="-208" xMax="583" yMax="702">
      <component glyphName="g.alt" x="0" y="0" flags="0x204"/>
      <component glyphName="dotaccent" x="102" y="-1" flags="0x4"/>
    </TTGlyph>
    <TTGlyph name="germandbls" xMin="20" yMin="-12" xMax="582" yMax="765">
      <contour>
        <pt x="359" y="361" on="1"/>
        <pt x="359" y="344" on="0"/>
        <pt x="380" y="317" on="0"/>
        <pt x="402" y="307" on="1"/>
        <pt x="466" y="276" on="1"/>
        <pt x="520" y="251" on="0"/>
        <pt x="570" y="189" on="0"/>
        <pt x="570" y="146" on="1"/>
        <pt x="570" y="78" on="0"/>
        <pt x="469" y="-12" on="0"/>
        <pt x="394" y="-12" on="1"/>
        <pt x="336" y="-12" on="0"/>
        <pt x="243" y="32" on="0"/>
        <pt x="209" y="75" on="1"/>
        <pt x="257" y="118" on="1"/>
        <pt x="281" y="83" on="0"/>
        <pt x="352" y="46" on="0"/>
        <pt x="395" y="46" on="1"/>
        <pt x="444" y="46" on="0"/>
        <pt x="503" y="98" on="0"/>
        <pt x="503" y="141" on="1"/>
        <pt x="503" y="168" on="0"/>
        <pt x="468" y="206" on="0"/>
        <pt x="426" y="225" on="1"/>
        <pt x="360" y="254" on="1"/>
        <pt x="324" y="270" on="0"/>
        <pt x="289" y="320" on="0"/>
        <pt x="289" y="351" on="1"/>
        <pt x="289" y="406" on="0"/>
        <pt x="359" y="460" on="0"/>
        <pt x="441" y="500" on="0"/>
        <pt x="511" y="550" on="0"/>
        <pt x="511" y="601" on="1"/>
        <pt x="511" y="642" on="0"/>
        <pt x="436" y="701" on="0"/>
        <pt x="384" y="701" on="1"/>
        <pt x="310" y="701" on="0"/>
        <pt x="216" y="613" on="0"/>
        <pt x="198" y="527" on="1"/>
        <pt x="90" y="0" on="1"/>
        <pt x="20" y="0" on="1"/>
        <pt x="128" y="533" on="1"/>
        <pt x="150" y="643" on="0"/>
        <pt x="285" y="765" on="0"/>
        <pt x="386" y="765" on="1"/>
        <pt x="471" y="765" on="0"/>
        <pt x="582" y="674" on="0"/>
        <pt x="582" y="603" on="1"/>
        <pt x="582" y="539" on="0"/>
        <pt x="512" y="472" on="0"/>
        <pt x="429" y="431" on="0"/>
        <pt x="359" y="395" on="0"/>
      </contour>
    </TTGlyph>
    <TTGlyph name="grave" xMin="157" yMin="584" xMax="366" yMax="706">
      <contour>
        <pt x="257" y="706" on="1"/>
        <pt x="366" y="584" on="1"/>
        <pt x="299" y="584" on="1"/>
        <pt x="157" y="706" on="1"/>
      </contour>
    </TTGlyph>
    <TTGlyph name="greater" xMin="74" yMin="103" xMax="467" yMax="594">
      <contour>
        <pt x="208" y="594" on="1"/>
        <pt x="467" y="348" on="1"/>
        <pt x="103" y="103" on="1"/>
        <pt x="74" y="152" on="1"/>
        <pt x="376" y="351" on="1"/>
        <pt x="162" y="549" on="1"/>
      </contour>
    </TTGlyph>
    <TTGlyph name="guillemotleft" xMin="43" yMin="0" xMax="617" yMax="488">
      <component glyphName="guilsinglleft" x="0" y="0" flags="0x4"/>
      <component glyphName="guilsinglleft" x="224" y="0" flags="0x4"/>
    </TTGlyph>
    <TTGlyph name="guillemotright" xMin="8" yMin="0" xMax="581" yMax="488">
      <contour>
        <pt x="231" y="0" on="1"/>
        <pt x="501" y="247" on="1"/>
        <pt x="341" y="488" on="1"/>
        <pt x="416" y="488" on="1"/>
        <pt x="581" y="243" on="1"/>
        <pt x="309" y="0" on="1"/>
      </contour>
      <contour>
        <pt x="8" y="0" on="1"/>
        <pt x="278" y="247" on="1"/>
        <pt x="118" y="488" on="1"/>
        <pt x="193" y="488" on="1"/>
        <pt x="358" y="243" on="1"/>
        <pt x="86" y="0" on="1"/>
      </contour>
    </TTGlyph>
    <TTGlyph name="guilsinglleft" xMin="43" yMin="0" xMax="393" yMax="488">
      <contour>
        <pt x="393" y="488" on="1"/>
        <pt x="123" y="241" on="1"/>
        <pt x="283" y="0" on="1"/>
        <pt x="208" y="0" on="1"/>
        <pt x="43" y="245" on="1"/>
        <pt x="315" y="488" on="1"/>
      </contour>
    </TTGlyph>
    <TTGlyph name="guilsinglright" xMin="8" yMin="0" xMax="358" yMax="488">
      <contour>
        <pt x="8" y="0" on="1"/>
        <pt x="278" y="247" on="1"/>
        <pt x="118" y="488" on="1"/>
        <pt x="193" y="488" on="1"/>
        <pt x="358" y="243" on="1"/>
        <pt x="86" y="0" on="1"/>
      </contour>
    </TTGlyph>
    <TTGlyph name="h" xMin="21" yMin="0" xMax="488" yMax="730">
      <contour>
        <pt x="21" y="0" on="1"/>
        <pt x="170" y="715" on="1"/>
        <pt x="245" y="730" on="1"/>
        <pt x="179" y="411" on="1"/>
        <pt x="213" y="453" on="0"/>
        <pt x="292" y="495" on="0"/>
        <pt x="337" y="495" on="1"/>
        <pt x="419" y="495" on="0"/>
        <pt x="501" y="384" on="0"/>
        <pt x="482" y="300" on="1"/>
        <pt x="418" y="0" on="1"/>
        <pt x="346" y="0" on="1"/>
        <pt x="408" y="285" on="1"/>
        <pt x="423" y="352" on="0"/>
        <pt x="366" y="435" on="0"/>
        <pt x="306" y="435" on="1"/>
        <pt x="266" y="435" on="0"/>
        <pt x="194" y="396" on="0"/>
        <pt x="168" y="361" on="1"/>
        <pt x="93" y="0" on="1"/>
      </contour>
    </TTGlyph>
    <TTGlyph name="hbar" xMin="27" yMin="0" xMax="494" yMax="730">
      <contour>
        <pt x="27" y="0" on="1"/>
        <pt x="146" y="573" on="1"/>
        <pt x="89" y="573" on="1"/>
        <pt x="101" y="623" on="1"/>
        <pt x="157" y="623" on="1"/>
        <pt x="176" y="715" on="1"/>
        <pt x="251" y="730" on="1"/>
        <pt x="229" y="623" on="1"/>
        <pt x="375" y="623" on="1"/>
        <pt x="363" y="573" on="1"/>
        <pt x="218" y="573" on="1"/>
        <pt x="185" y="411" on="1"/>
        <pt x="219" y="453" on="0"/>
        <pt x="298" y="495" on="0"/>
        <pt x="343" y="495" on="1"/>
        <pt x="425" y="495" on="0"/>
        <pt x="507" y="384" on="0"/>
        <pt x="488" y="300" on="1"/>
        <pt x="424" y="0" on="1"/>
        <pt x="352" y="0" on="1"/>
        <pt x="414" y="285" on="1"/>
        <pt x="429" y="352" on="0"/>
        <pt x="372" y="435" on="0"/>
        <pt x="312" y="435" on="1"/>
        <pt x="272" y="435" on="0"/>
        <pt x="200" y="396" on="0"/>
        <pt x="174" y="361" on="1"/>
        <pt x="99" y="0" on="1"/>
      </contour>
    </TTGlyph>
    <TTGlyph name="hcircumflex" xMin="21" yMin="0" xMax="488" yMax="918">
      <contour>
        <pt x="317" y="791" on="1"/>
        <pt x="243" y="879" on="1"/>
        <pt x="133" y="791" on="1"/>
        <pt x="72" y="791" on="1"/>
        <pt x="209" y="918" on="1"/>
        <pt x="286" y="918" on="1"/>
        <pt x="373" y="791" on="1"/>
      </contour>
      <contour>
        <pt x="21" y="0" on="1"/>
        <pt x="170" y="714" on="1"/>
        <pt x="242" y="714" on="1"/>
        <pt x="179" y="411" on="1"/>
        <pt x="213" y="453" on="0"/>
        <pt x="292" y="495" on="0"/>
        <pt x="337" y="495" on="1"/>
        <pt x="418" y="495" on="0"/>
        <pt x="501" y="384" on="0"/>
        <pt x="482" y="300" on="1"/>
        <pt x="418" y="0" on="1"/>
        <pt x="346" y="0" on="1"/>
        <pt x="408" y="285" on="1"/>
        <pt x="423" y="352" on="0"/>
        <pt x="366" y="435" on="0"/>
        <pt x="306" y="435" on="1"/>
        <pt x="266" y="435" on="0"/>
        <pt x="194" y="396" on="0"/>
        <pt x="168" y="362" on="1"/>
        <pt x="93" y="0" on="1"/>
      </contour>
    </TTGlyph>
    <TTGlyph name="hungarumlaut" xMin="184" yMin="582" xMax="589" yMax="706">
      <contour>
        <pt x="335" y="706" on="1"/>
        <pt x="419" y="706" on="1"/>
        <pt x="254" y="582" on="1"/>
        <pt x="184" y="582" on="1"/>
      </contour>
      <contour>
        <pt x="505" y="706" on="1"/>
        <pt x="589" y="706" on="1"/>
        <pt x="422" y="582" on="1"/>
        <pt x="354" y="582" on="1"/>
      </contour>
    </TTGlyph>
    <TTGlyph name="hyphen" xMin="59" yMin="250" xMax="399" yMax="313">
      <contour>
        <pt x="74" y="313" on="1"/>
        <pt x="399" y="313" on="1"/>
        <pt x="385" y="250" on="1"/>
        <pt x="59" y="250" on="1"/>
      </contour>
    </TTGlyph>
    <TTGlyph name="hyphen.cap" xMin="73" yMin="315" xMax="413" yMax="378">
      <component glyphName="hyphen" x="14" y="65" flags="0x4"/>
    </TTGlyph>
    <TTGlyph name="i" xMin="21" yMin="0" xMax="246" yMax="713">
      <contour>
        <pt x="189" y="608" on="1"/>
        <pt x="169" y="608" on="0"/>
        <pt x="143" y="635" on="0"/>
        <pt x="143" y="655" on="1"/>
        <pt x="143" y="677" on="0"/>
        <pt x="178" y="713" on="0"/>
        <pt x="200" y="713" on="1"/>
        <pt x="219" y="713" on="0"/>
        <pt x="246" y="685" on="0"/>
        <pt x="246" y="666" on="1"/>
        <pt x="246" y="643" on="0"/>
        <pt x="212" y="608" on="0"/>
      </contour>
      <contour>
        <pt x="199" y="488" on="1"/>
        <pt x="93" y="0" on="1"/>
        <pt x="21" y="0" on="1"/>
        <pt x="128" y="488" on="1"/>
      </contour>
    </TTGlyph>
    <TTGlyph name="iacute" xMin="21" yMin="0" xMax="372" yMax="706">
      <component glyphName="dotlessi" x="0" y="0" flags="0x204"/>
      <component glyphName="acute" x="-111" y="0" flags="0x4"/>
    </TTGlyph>
    <TTGlyph name="ibreve" xMin="21" yMin="0" xMax="361" yMax="719">
      <component glyphName="dotlessi" x="0" y="0" flags="0x204"/>
      <component glyphName="breve" x="-146" y="0" flags="0x4"/>
    </TTGlyph>
    <TTGlyph name="icircumflex" xMin="21" yMin="0" xMax="334" yMax="706">
      <component glyphName="dotlessi" x="0" y="0" flags="0x204"/>
      <component glyphName="circumflex" x="-146" y="0" flags="0x4"/>
    </TTGlyph>
    <TTGlyph name="idieresis" xMin="21" yMin="0" xMax="333" yMax="696">
      <component glyphName="dotlessi" x="0" y="0" flags="0x204"/>
      <component glyphName="dieresis" x="-156" y="0" flags="0x4"/>
    </TTGlyph>
    <TTGlyph name="idotaccent" xMin="21" yMin="0" xMax="246" yMax="713">
      <component glyphName="i" x="0" y="0" flags="0x4"/>
    </TTGlyph>
    <TTGlyph name="igrave" xMin="15" yMin="0" xMax="224" yMax="706">
      <component glyphName="dotlessi" x="0" y="0" flags="0x204"/>
      <component glyphName="grave" x="-142" y="0" flags="0x4"/>
    </TTGlyph>
    <TTGlyph name="ij" xMin="21" yMin="-212" xMax="467" yMax="713">
      <component glyphName="i" x="0" y="0" flags="0x4"/>
      <component glyphName="j" x="221" y="0" flags="0x4"/>
    </TTGlyph>
    <TTGlyph name="imacron" xMin="21" yMin="0" xMax="337" yMax="663">
      <component glyphName="dotlessi" x="0" y="0" flags="0x204"/>
      <component glyphName="macron" x="-146" y="0" flags="0x4"/>
    </TTGlyph>
    <TTGlyph name="iogonek" xMin="-89" yMin="-232" xMax="246" yMax="713">
      <contour>
        <pt x="189" y="608" on="1"/>
        <pt x="169" y="608" on="0"/>
        <pt x="143" y="635" on="0"/>
        <pt x="143" y="655" on="1"/>
        <pt x="143" y="677" on="0"/>
        <pt x="178" y="713" on="0"/>
        <pt x="200" y="713" on="1"/>
        <pt x="219" y="713" on="0"/>
        <pt x="246" y="685" on="0"/>
        <pt x="246" y="666" on="1"/>
        <pt x="246" y="643" on="0"/>
        <pt x="212" y="608" on="0"/>
      </contour>
      <contour>
        <pt x="93" y="0" on="1"/>
        <pt x="27" y="-36" on="0"/>
        <pt x="-38" y="-104" on="0"/>
        <pt x="-38" y="-139" on="1"/>
        <pt x="-38" y="-161" on="0"/>
        <pt x="-4" y="-187" on="0"/>
        <pt x="22" y="-187" on="1"/>
        <pt x="32" y="-187" on="0"/>
        <pt x="58" y="-182" on="0"/>
        <pt x="68" y="-178" on="1"/>
        <pt x="72" y="-218" on="1"/>
        <pt x="59" y="-225" on="0"/>
        <pt x="24" y="-232" on="0"/>
        <pt x="6" y="-232" on="1"/>
        <pt x="-37" y="-232" on="0"/>
        <pt x="-89" y="-189" on="0"/>
        <pt x="-89" y="-154" on="1"/>
        <pt x="-89" y="-113" on="0"/>
        <pt x="-28" y="-36" on="0"/>
        <pt x="33" y="0" on="1"/>
        <pt x="21" y="0" on="1"/>
        <pt x="128" y="488" on="1"/>
        <pt x="199" y="488" on="1"/>
      </contour>
    </TTGlyph>
    <TTGlyph name="itilde" xMin="18" yMin="0" xMax="368" yMax="696">
      <component glyphName="dotlessi" x="0" y="0" flags="0x204"/>
      <component glyphName="tilde" x="-142" y="0" flags="0x4"/>
    </TTGlyph>
    <TTGlyph name="j" xMin="-114" yMin="-212" xMax="246" yMax="713">
      <contour>
        <pt x="189" y="608" on="1"/>
        <pt x="169" y="608" on="0"/>
        <pt x="143" y="635" on="0"/>
        <pt x="143" y="655" on="1"/>
        <pt x="143" y="677" on="0"/>
        <pt x="178" y="713" on="0"/>
        <pt x="200" y="713" on="1"/>
        <pt x="219" y="713" on="0"/>
        <pt x="246" y="685" on="0"/>
        <pt x="246" y="666" on="1"/>
        <pt x="246" y="643" on="0"/>
        <pt x="212" y="608" on="0"/>
      </contour>
      <contour>
        <pt x="-62" y="-212" on="1"/>
        <pt x="-75" y="-212" on="0"/>
        <pt x="-104" y="-208" on="0"/>
        <pt x="-114" y="-204" on="1"/>
        <pt x="-100" y="-141" on="1"/>
        <pt x="-93" y="-144" on="0"/>
        <pt x="-73" y="-147" on="0"/>
        <pt x="-60" y="-147" on="1"/>
        <pt x="-33" y="-147" on="0"/>
        <pt x="-2" y="-119" on="0"/>
        <pt x="5" y="-86" on="1"/>
        <pt x="128" y="488" on="1"/>
        <pt x="200" y="488" on="1"/>
        <pt x="74" y="-93" on="1"/>
        <pt x="63" y="-150" on="0"/>
        <pt x="-9" y="-212" on="0"/>
      </contour>
    </TTGlyph>
    <TTGlyph name="jcircumflex" xMin="-114" yMin="-212" xMax="334" yMax="706">
      <component glyphName="dotlessj" x="0" y="0" flags="0x204"/>
      <component glyphName="circumflex" x="-146" y="0" flags="0x4"/>
    </TTGlyph>
    <TTGlyph name="k" xMin="21" yMin="0" xMax="517" yMax="730">
      <contour>
        <pt x="21" y="0" on="1"/>
        <pt x="171" y="715" on="1"/>
        <pt x="245" y="730" on="1"/>
        <pt x="150" y="273" on="1"/>
        <pt x="421" y="488" on="1"/>
        <pt x="517" y="488" on="1"/>
        <pt x="213" y="250" on="1"/>
        <pt x="415" y="0" on="1"/>
        <pt x="330" y="0" on="1"/>
        <pt x="142" y="236" on="1"/>
        <pt x="93" y="0" on="1"/>
      </contour>
    </TTGlyph>
    <TTGlyph name="kcommaaccent" xMin="21" yMin="-274" xMax="517" yMax="730">
      <component glyphName="k" x="0" y="0" flags="0x204"/>
      <component glyphName="commaaccent" x="143" y="0" flags="0x4"/>
    </TTGlyph>
    <TTGlyph name="kgreenlandic" xMin="21" yMin="0" xMax="521" yMax="488">
      <contour>
        <pt x="21" y="0" on="1"/>
        <pt x="128" y="488" on="1"/>
        <pt x="199" y="488" on="1"/>
        <pt x="152" y="270" on="1"/>
        <pt x="425" y="488" on="1"/>
        <pt x="521" y="488" on="1"/>
        <pt x="213" y="247" on="1"/>
        <pt x="408" y="0" on="1"/>
        <pt x="321" y="0" on="1"/>
        <pt x="143" y="230" on="1"/>
        <pt x="93" y="0" on="1"/>
      </contour>
    </TTGlyph>
    <TTGlyph name="l" xMin="21" yMin="0" xMax="245" yMax="730">
      <contour>
        <pt x="245" y="730" on="1"/>
        <pt x="93" y="0" on="1"/>
        <pt x="21" y="0" on="1"/>
        <pt x="171" y="715" on="1"/>
      </contour>
    </TTGlyph>
    <TTGlyph name="lacute" xMin="21" yMin="0" xMax="412" yMax="917">
      <contour>
        <pt x="311" y="917" on="1"/>
        <pt x="412" y="917" on="1"/>
        <pt x="246" y="795" on="1"/>
        <pt x="176" y="795" on="1"/>
      </contour>
      <contour>
        <pt x="21" y="0" on="1"/>
        <pt x="170" y="714" on="1"/>
        <pt x="241" y="714" on="1"/>
        <pt x="93" y="0" on="1"/>
      </contour>
    </TTGlyph>
    <TTGlyph name="lcaron" xMin="36" yMin="0" xMax="420" yMax="730">
      <component glyphName="l" x="15" y="0" flags="0x4"/>
      <component glyphName="caronSlovak" x="50" y="0" flags="0x4"/>
    </TTGlyph>
    <TTGlyph name="lcommaaccent" xMin="-70" yMin="-274" xMax="245" yMax="730">
      <component glyphName="l" x="0" y="0" flags="0x204"/>
      <component glyphName="commaaccent" x="-7" y="0" flags="0x4"/>
    </TTGlyph>
    <TTGlyph name="ldot" xMin="36" yMin="0" xMax="339" yMax="730">
      <component glyphName="l" x="15" y="0" flags="0x4"/>
      <component glyphName="dotaccent" x="63" y="-299" flags="0x4"/>
    </TTGlyph>
    <TTGlyph name="less" xMin="46" yMin="103" xMax="439" yMax="594">
      <contour>
        <pt x="305" y="103" on="1"/>
        <pt x="46" y="349" on="1"/>
        <pt x="410" y="594" on="1"/>
        <pt x="439" y="545" on="1"/>
        <pt x="137" y="346" on="1"/>
        <pt x="351" y="148" on="1"/>
      </contour>
    </TTGlyph>
    <TTGlyph name="lslash" xMin="4" yMin="0" xMax="319" yMax="730">
      <contour>
        <pt x="21" y="305" on="1"/>
        <pt x="125" y="378" on="1"/>
        <pt x="196" y="715" on="1"/>
        <pt x="270" y="730" on="1"/>
        <pt x="209" y="436" on="1"/>
        <pt x="319" y="513" on="1"/>
        <pt x="302" y="436" on="1"/>
        <pt x="193" y="359" on="1"/>
        <pt x="118" y="0" on="1"/>
        <pt x="46" y="0" on="1"/>
        <pt x="109" y="301" on="1"/>
        <pt x="4" y="227" on="1"/>
      </contour>
    </TTGlyph>
    <TTGlyph name="m" xMin="21" yMin="0" xMax="775" yMax="495">
      <contour>
        <pt x="21" y="0" on="1"/>
        <pt x="128" y="488" on="1"/>
        <pt x="199" y="488" on="1"/>
        <pt x="183" y="413" on="1"/>
        <pt x="217" y="454" on="0"/>
        <pt x="291" y="495" on="0"/>
        <pt x="332" y="495" on="1"/>
        <pt x="383" y="495" on="0"/>
        <pt x="453" y="441" on="0"/>
        <pt x="465" y="396" on="1"/>
        <pt x="505" y="446" on="0"/>
        <pt x="592" y="495" on="0"/>
        <pt x="639" y="495" on="1"/>
        <pt x="713" y="495" on="0"/>
        <pt x="787" y="387" on="0"/>
        <pt x="769" y="306" on="1"/>
        <pt x="703" y="0" on="1"/>
        <pt x="632" y="0" on="1"/>
        <pt x="696" y="298" on="1"/>
        <pt x="709" y="358" on="0"/>
        <pt x="658" y="435" on="0"/>
        <pt x="606" y="435" on="1"/>
        <pt x="570" y="435" on="0"/>
        <pt x="503" y="396" on="0"/>
        <pt x="470" y="354" on="1"/>
        <pt x="470" y="343" on="0"/>
        <pt x="468" y="319" on="0"/>
        <pt x="465" y="306" on="1"/>
        <pt x="399" y="0" on="1"/>
        <pt x="327" y="0" on="1"/>
        <pt x="390" y="291" on="1"/>
        <pt x="404" y="354" on="0"/>
        <pt x="354" y="435" on="0"/>
        <pt x="301" y="435" on="1"/>
        <pt x="265" y="435" on="0"/>
        <pt x="200" y="399" on="0"/>
        <pt x="172" y="363" on="1"/>
        <pt x="93" y="0" on="1"/>
      </contour>
    </TTGlyph>
    <TTGlyph name="macron" xMin="205" yMin="611" xMax="483" yMax="663">
      <contour>
        <pt x="483" y="663" on="1"/>
        <pt x="472" y="611" on="1"/>
        <pt x="205" y="611" on="1"/>
        <pt x="216" y="663" on="1"/>
      </contour>
    </TTGlyph>
    <TTGlyph name="minus" xMin="82" yMin="327" xMax="482" yMax="389">
      <contour>
        <pt x="482" y="389" on="1"/>
        <pt x="469" y="327" on="1"/>
        <pt x="82" y="327" on="1"/>
        <pt x="95" y="389" on="1"/>
      </contour>
    </TTGlyph>
    <TTGlyph name="multiply" xMin="75" yMin="161" xMax="506" yMax="556">
      <contour>
        <pt x="107" y="161" on="1"/>
        <pt x="75" y="203" on="1"/>
        <pt x="254" y="361" on="1"/>
        <pt x="142" y="519" on="1"/>
        <pt x="187" y="556" on="1"/>
        <pt x="298" y="400" on="1"/>
        <pt x="474" y="556" on="1"/>
        <pt x="506" y="514" on="1"/>
        <pt x="328" y="357" on="1"/>
        <pt x="440" y="199" on="1"/>
        <pt x="394" y="162" on="1"/>
        <pt x="284" y="318" on="1"/>
      </contour>
    </TTGlyph>
    <TTGlyph name="n" xMin="21" yMin="0" xMax="488" yMax="495">
      <contour>
        <pt x="21" y="0" on="1"/>
        <pt x="128" y="488" on="1"/>
        <pt x="199" y="488" on="1"/>
        <pt x="184" y="417" on="1"/>
        <pt x="216" y="456" on="0"/>
        <pt x="294" y="495" on="0"/>
        <pt x="337" y="495" on="1"/>
        <pt x="419" y="495" on="0"/>
        <pt x="501" y="384" on="0"/>
        <pt x="482" y="300" on="1"/>
        <pt x="418" y="0" on="1"/>
        <pt x="346" y="0" on="1"/>
        <pt x="408" y="285" on="1"/>
        <pt x="423" y="352" on="0"/>
        <pt x="366" y="435" on="0"/>
        <pt x="306" y="435" on="1"/>
        <pt x="269" y="435" on="0"/>
        <pt x="201" y="400" on="0"/>
        <pt x="173" y="367" on="1"/>
        <pt x="93" y="0" on="1"/>
      </contour>
    </TTGlyph>
    <TTGlyph name="nacute" xMin="21" yMin="0" xMax="530" yMax="706">
      <component glyphName="n" x="0" y="0" flags="0x204"/>
      <component glyphName="acute" x="47" y="0" flags="0x4"/>
    </TTGlyph>
    <TTGlyph name="ncaron" xMin="21" yMin="0" xMax="515" yMax="710">
      <component glyphName="n" x="0" y="0" flags="0x204"/>
      <component glyphName="caron" x="12" y="0" flags="0x4"/>
    </TTGlyph>
    <TTGlyph name="ncommaaccent" xMin="21" yMin="-274" xMax="488" yMax="495">
      <component glyphName="n" x="0" y="0" flags="0x204"/>
      <component glyphName="commaaccent" x="153" y="0" flags="0x4"/>
    </TTGlyph>
    <TTGlyph name="nine" xMin="32" yMin="-8" xMax="577" yMax="705">
      <contour>
        <pt x="348" y="705" on="1"/>
        <pt x="451" y="705" on="0"/>
        <pt x="577" y="558" on="0"/>
        <pt x="577" y="438" on="1"/>
        <pt x="577" y="348" on="0"/>
        <pt x="518" y="185" on="0"/>
        <pt x="419" y="64" on="0"/>
        <pt x="285" y="-8" on="0"/>
        <pt x="211" y="-8" on="1"/>
        <pt x="161" y="-8" on="0"/>
        <pt x="69" y="22" on="0"/>
        <pt x="32" y="50" on="1"/>
        <pt x="79" y="103" on="1"/>
        <pt x="109" y="81" on="0"/>
        <pt x="182" y="56" on="0"/>
        <pt x="219" y="56" on="1"/>
        <pt x="269" y="56" on="0"/>
        <pt x="360" y="101" on="0"/>
        <pt x="434" y="179" on="0"/>
        <pt x="486" y="287" on="0"/>
        <pt x="498" y="350" on="1"/>
        <pt x="455" y="307" on="0"/>
        <pt x="349" y="261" on="0"/>
        <pt x="297" y="261" on="1"/>
        <pt x="208" y="261" on="0"/>
        <pt x="92" y="373" on="0"/>
        <pt x="92" y="457" on="1"/>
        <pt x="92" y="508" on="0"/>
        <pt x="133" y="598" on="0"/>
        <pt x="202" y="666" on="0"/>
        <pt x="296" y="705" on="0"/>
      </contour>
      <contour>
        <pt x="507" y="443" on="1"/>
        <pt x="507" y="534" on="0"/>
        <pt x="418" y="642" on="0"/>
        <pt x="343" y="642" on="1"/>
        <pt x="306" y="642" on="0"/>
        <pt x="240" y="614" on="0"/>
        <pt x="192" y="566" on="0"/>
        <pt x="163" y="501" on="0"/>
        <pt x="163" y="466" on="1"/>
        <pt x="163" y="403" on="0"/>
        <pt x="249" y="319" on="0"/>
        <pt x="312" y="319" on="1"/>
        <pt x="363" y="319" on="0"/>
        <pt x="463" y="364" on="0"/>
        <pt x="506" y="404" on="1"/>
        <pt x="506" y="414" on="0"/>
        <pt x="507" y="433" on="0"/>
      </contour>
    </TTGlyph>
    <TTGlyph name="notequal" xMin="50" yMin="123" xMax="513" yMax="589">
      <contour>
        <pt x="50" y="123" on="1"/>
        <pt x="157" y="246" on="1"/>
        <pt x="64" y="246" on="1"/>
        <pt x="78" y="306" on="1"/>
        <pt x="209" y="306" on="1"/>
        <pt x="296" y="407" on="1"/>
        <pt x="99" y="407" on="1"/>
        <pt x="112" y="467" on="1"/>
        <pt x="348" y="467" on="1"/>
        <pt x="454" y="589" on="1"/>
        <pt x="513" y="589" on="1"/>
        <pt x="407" y="467" on="1"/>
        <pt x="499" y="467" on="1"/>
        <pt x="486" y="407" on="1"/>
        <pt x="356" y="407" on="1"/>
        <pt x="268" y="306" on="1"/>
        <pt x="465" y="306" on="1"/>
        <pt x="452" y="246" on="1"/>
        <pt x="216" y="246" on="1"/>
        <pt x="110" y="123" on="1"/>
      </contour>
    </TTGlyph>
    <TTGlyph name="ntilde" xMin="21" yMin="0" xMax="526" yMax="696">
      <component glyphName="n" x="0" y="0" flags="0x204"/>
      <component glyphName="tilde" x="16" y="0" flags="0x4"/>
    </TTGlyph>
    <TTGlyph name="numbersign" xMin="-8" yMin="0" xMax="690" yMax="700">
      <contour>
        <pt x="-8" y="0" on="1"/>
        <pt x="112" y="219" on="1"/>
        <pt x="18" y="219" on="1"/>
        <pt x="30" y="277" on="1"/>
        <pt x="144" y="277" on="1"/>
        <pt x="224" y="423" on="1"/>
        <pt x="108" y="423" on="1"/>
        <pt x="121" y="481" on="1"/>
        <pt x="256" y="481" on="1"/>
        <pt x="376" y="700" on="1"/>
        <pt x="443" y="700" on="1"/>
        <pt x="323" y="481" on="1"/>
        <pt x="504" y="481" on="1"/>
        <pt x="624" y="700" on="1"/>
        <pt x="690" y="700" on="1"/>
        <pt x="570" y="481" on="1"/>
        <pt x="664" y="481" on="1"/>
        <pt x="651" y="423" on="1"/>
        <pt x="538" y="423" on="1"/>
        <pt x="458" y="277" on="1"/>
        <pt x="573" y="277" on="1"/>
        <pt x="561" y="219" on="1"/>
        <pt x="426" y="219" on="1"/>
        <pt x="306" y="0" on="1"/>
        <pt x="240" y="0" on="1"/>
        <pt x="360" y="219" on="1"/>
        <pt x="178" y="219" on="1"/>
        <pt x="58" y="0" on="1"/>
      </contour>
      <contour>
        <pt x="210" y="277" on="1"/>
        <pt x="392" y="277" on="1"/>
        <pt x="472" y="423" on="1"/>
        <pt x="291" y="423" on="1"/>
      </contour>
    </TTGlyph>
    <TTGlyph name="o" xMin="51" yMin="-10" xMax="518" yMax="497">
      <contour>
        <pt x="51" y="218" on="1"/>
        <pt x="51" y="275" on="0"/>
        <pt x="92" y="378" on="0"/>
        <pt x="161" y="453" on="0"/>
        <pt x="254" y="497" on="0"/>
        <pt x="307" y="497" on="1"/>
        <pt x="400" y="497" on="0"/>
        <pt x="518" y="369" on="0"/>
        <pt x="518" y="269" on="1"/>
        <pt x="518" y="212" on="0"/>
        <pt x="477" y="110" on="0"/>
        <pt x="408" y="34" on="0"/>
        <pt x="314" y="-10" on="0"/>
        <pt x="261" y="-10" on="1"/>
        <pt x="215" y="-10" on="0"/>
        <pt x="138" y="24" on="0"/>
        <pt x="82" y="84" on="0"/>
        <pt x="51" y="168" on="0"/>
      </contour>
      <contour>
        <pt x="265" y="55" on="1"/>
        <pt x="303" y="55" on="0"/>
        <pt x="369" y="89" on="0"/>
        <pt x="418" y="146" on="0"/>
        <pt x="446" y="225" on="0"/>
        <pt x="446" y="269" on="1"/>
        <pt x="446" y="341" on="0"/>
        <pt x="367" y="433" on="0"/>
        <pt x="304" y="433" on="1"/>
        <pt x="266" y="433" on="0"/>
        <pt x="200" y="399" on="0"/>
        <pt x="151" y="341" on="0"/>
        <pt x="122" y="263" on="0"/>
        <pt x="122" y="219" on="1"/>
        <pt x="122" y="147" on="0"/>
        <pt x="202" y="55" on="0"/>
      </contour>
    </TTGlyph>
    <TTGlyph name="oacute" xMin="51" yMin="-10" xMax="518" yMax="706">
      <component glyphName="o" x="0" y="0" flags="0x204"/>
      <component glyphName="acute" x="35" y="0" flags="0x4"/>
    </TTGlyph>
    <TTGlyph name="obreve" xMin="51" yMin="-10" xMax="518" yMax="719">
      <component glyphName="o" x="0" y="0" flags="0x204"/>
      <component glyphName="breve" x="-1" y="0" flags="0x4"/>
    </TTGlyph>
    <TTGlyph name="ocircumflex" xMin="51" yMin="-10" xMax="518" yMax="706">
      <component glyphName="o" x="0" y="0" flags="0x204"/>
      <component glyphName="circumflex" x="0" y="0" flags="0x4"/>
    </TTGlyph>
    <TTGlyph name="odieresis" xMin="51" yMin="-10" xMax="518" yMax="696">
      <component glyphName="o" x="0" y="0" flags="0x204"/>
      <component glyphName="dieresis" x="-10" y="0" flags="0x4"/>
    </TTGlyph>
    <TTGlyph name="oe" xMin="51" yMin="-10" xMax="895" yMax="497">
      <contour>
        <pt x="51" y="218" on="1"/>
        <pt x="51" y="275" on="0"/>
        <pt x="92" y="378" on="0"/>
        <pt x="161" y="453" on="0"/>
        <pt x="254" y="497" on="0"/>
        <pt x="307" y="497" on="1"/>
        <pt x="372" y="497" on="0"/>
        <pt x="470" y="432" on="0"/>
        <pt x="495" y="377" on="1"/>
        <pt x="529" y="431" on="0"/>
        <pt x="636" y="496" on="0"/>
        <pt x="699" y="496" on="1"/>
        <pt x="784" y="496" on="0"/>
        <pt x="895" y="374" on="0"/>
        <pt x="895" y="281" on="1"/>
        <pt x="895" y="268" on="0"/>
        <pt x="893" y="242" on="0"/>
        <pt x="892" y="228" on="1"/>
        <pt x="518" y="228" on="1"/>
        <pt x="518" y="218" on="1"/>
        <pt x="518" y="148" on="0"/>
        <pt x="607" y="54" on="0"/>
        <pt x="673" y="54" on="1"/>
        <pt x="708" y="54" on="0"/>
        <pt x="777" y="77" on="0"/>
        <pt x="802" y="97" on="1"/>
        <pt x="840" y="45" on="1"/>
        <pt x="797" y="17" on="0"/>
        <pt x="715" y="-9" on="0"/>
        <pt x="670" y="-9" on="1"/>
        <pt x="601" y="-9" on="0"/>
        <pt x="496" y="56" on="0"/>
        <pt x="471" y="111" on="1"/>
        <pt x="437" y="57" on="0"/>
        <pt x="326" y="-10" on="0"/>
        <pt x="261" y="-10" on="1"/>
        <pt x="215" y="-10" on="0"/>
        <pt x="138" y="24" on="0"/>
        <pt x="82" y="84" on="0"/>
        <pt x="51" y="168" on="0"/>
      </contour>
      <contour>
        <pt x="265" y="55" on="1"/>
        <pt x="303" y="55" on="0"/>
        <pt x="369" y="89" on="0"/>
        <pt x="418" y="146" on="0"/>
        <pt x="446" y="225" on="0"/>
        <pt x="446" y="269" on="1"/>
        <pt x="446" y="341" on="0"/>
        <pt x="367" y="433" on="0"/>
        <pt x="304" y="433" on="1"/>
        <pt x="266" y="433" on="0"/>
        <pt x="200" y="399" on="0"/>
        <pt x="151" y="341" on="0"/>
        <pt x="122" y="263" on="0"/>
        <pt x="122" y="219" on="1"/>
        <pt x="122" y="147" on="0"/>
        <pt x="202" y="55" on="0"/>
      </contour>
      <contour>
        <pt x="694" y="432" on="1"/>
        <pt x="634" y="432" on="0"/>
        <pt x="541" y="346" on="0"/>
        <pt x="525" y="280" on="1"/>
        <pt x="827" y="280" on="1"/>
        <pt x="828" y="343" on="0"/>
        <pt x="751" y="432" on="0"/>
      </contour>
    </TTGlyph>
    <TTGlyph name="ogonek" xMin="76" yMin="-232" xMax="258" yMax="18">
      <contour>
        <pt x="258" y="0" on="1"/>
        <pt x="192" y="-36" on="0"/>
        <pt x="127" y="-104" on="0"/>
        <pt x="127" y="-139" on="1"/>
        <pt x="127" y="-161" on="0"/>
        <pt x="161" y="-187" on="0"/>
        <pt x="187" y="-187" on="1"/>
        <pt x="197" y="-187" on="0"/>
        <pt x="223" y="-182" on="0"/>
        <pt x="233" y="-178" on="1"/>
        <pt x="237" y="-218" on="1"/>
        <pt x="224" y="-225" on="0"/>
        <pt x="189" y="-232" on="0"/>
        <pt x="171" y="-232" on="1"/>
        <pt x="128" y="-232" on="0"/>
        <pt x="76" y="-189" on="0"/>
        <pt x="76" y="-154" on="1"/>
        <pt x="76" y="-108" on="0"/>
        <pt x="153" y="-22" on="0"/>
        <pt x="230" y="18" on="1"/>
      </contour>
    </TTGlyph>
    <TTGlyph name="ograve" xMin="51" yMin="-10" xMax="518" yMax="706">
      <component glyphName="o" x="0" y="0" flags="0x204"/>
      <component glyphName="grave" x="4" y="0" flags="0x4"/>
    </TTGlyph>
    <TTGlyph name="ohungarumlaut" xMin="51" yMin="-10" xMax="600" yMax="706">
      <component glyphName="o" x="0" y="0" flags="0x204"/>
      <component glyphName="hungarumlaut" x="11" y="0" flags="0x4"/>
    </TTGlyph>
    <TTGlyph name="omacron" xMin="51" yMin="-10" xMax="518" yMax="663">
      <component glyphName="o" x="0" y="0" flags="0x204"/>
      <component glyphName="macron" x="-1" y="0" flags="0x4"/>
    </TTGlyph>
    <TTGlyph name="one" xMin="97" yMin="0" xMax="316" yMax="700">
      <contour>
        <pt x="316" y="700" on="1"/>
        <pt x="167" y="0" on="1"/>
        <pt x="97" y="0" on="1"/>
        <pt x="228" y="622" on="1"/>
        <pt x="108" y="572" on="1"/>
        <pt x="122" y="638" on="1"/>
        <pt x="272" y="700" on="1"/>
      </contour>
    </TTGlyph>
    <TTGlyph name="onehalf" xMin="-9" yMin="0" xMax="607" yMax="700">
      <component glyphName="onesuperior" x="0" y="0" flags="0x4"/>
      <component glyphName="fraction" x="-14" y="0" flags="0x4"/>
      <component glyphName="uni2082" x="346" y="0" flags="0x4"/>
    </TTGlyph>
    <TTGlyph name="onequarter" xMin="-4" yMin="0" xMax="587" yMax="700">
      <component glyphName="uni2084" x="273" y="0" flags="0x4"/>
      <component glyphName="onesuperior" x="0" y="0" flags="0x4"/>
      <component glyphName="fraction" x="-9" y="0" flags="0x4"/>
    </TTGlyph>
    <TTGlyph name="onesuperior" xMin="99" yMin="350" xMax="228" yMax="700">
      <component glyphName="uni2081" x="74" y="350" flags="0x4"/>
    </TTGlyph>
    <TTGlyph name="ordfeminine" xMin="75" yMin="319" xMax="421" yMax="709">
      <contour>
        <pt x="203" y="319" on="1"/>
        <pt x="146" y="319" on="0"/>
        <pt x="75" y="377" on="0"/>
        <pt x="75" y="425" on="1"/>
        <pt x="75" y="481" on="0"/>
        <pt x="161" y="549" on="0"/>
        <pt x="230" y="549" on="1"/>
        <pt x="261" y="549" on="0"/>
        <pt x="323" y="532" on="0"/>
        <pt x="348" y="517" on="1"/>
        <pt x="357" y="559" on="1"/>
        <pt x="368" y="608" on="0"/>
        <pt x="323" y="657" on="0"/>
        <pt x="269" y="657" on="1"/>
        <pt x="247" y="657" on="0"/>
        <pt x="194" y="644" on="0"/>
        <pt x="157" y="629" on="1"/>
        <pt x="141" y="677" on="1"/>
        <pt x="180" y="693" on="0"/>
        <pt x="249" y="709" on="0"/>
        <pt x="280" y="709" on="1"/>
        <pt x="358" y="709" on="0"/>
        <pt x="431" y="630" on="0"/>
        <pt x="417" y="562" on="1"/>
        <pt x="366" y="325" on="1"/>
        <pt x="307" y="325" on="1"/>
        <pt x="313" y="355" on="1"/>
        <pt x="288" y="336" on="0"/>
        <pt x="233" y="319" on="0"/>
      </contour>
      <contour>
        <pt x="134" y="431" on="1"/>
        <pt x="134" y="400" on="0"/>
        <pt x="180" y="366" on="0"/>
        <pt x="221" y="366" on="1"/>
        <pt x="249" y="366" on="0"/>
        <pt x="301" y="384" on="0"/>
        <pt x="324" y="403" on="1"/>
        <pt x="338" y="471" on="1"/>
        <pt x="316" y="487" on="0"/>
        <pt x="263" y="504" on="0"/>
        <pt x="231" y="504" on="1"/>
        <pt x="188" y="504" on="0"/>
        <pt x="134" y="463" on="0"/>
      </contour>
    </TTGlyph>
    <TTGlyph name="ordmasculine" xMin="92" yMin="317" xMax="474" yMax="710">
      <contour>
        <pt x="92" y="498" on="1"/>
        <pt x="92" y="541" on="0"/>
        <pt x="125" y="618" on="0"/>
        <pt x="181" y="676" on="0"/>
        <pt x="256" y="710" on="0"/>
        <pt x="297" y="710" on="1"/>
        <pt x="372" y="710" on="0"/>
        <pt x="474" y="607" on="0"/>
        <pt x="474" y="529" on="1"/>
        <pt x="474" y="486" on="0"/>
        <pt x="441" y="409" on="0"/>
        <pt x="385" y="351" on="0"/>
        <pt x="311" y="317" on="0"/>
        <pt x="270" y="317" on="1"/>
        <pt x="194" y="317" on="0"/>
        <pt x="92" y="420" on="0"/>
      </contour>
      <contour>
        <pt x="414" y="526" on="1"/>
        <pt x="414" y="581" on="0"/>
        <pt x="344" y="655" on="0"/>
        <pt x="293" y="655" on="1"/>
        <pt x="236" y="655" on="0"/>
        <pt x="152" y="564" on="0"/>
        <pt x="152" y="501" on="1"/>
        <pt x="152" y="446" on="0"/>
        <pt x="222" y="372" on="0"/>
        <pt x="273" y="372" on="1"/>
        <pt x="330" y="372" on="0"/>
        <pt x="414" y="464" on="0"/>
      </contour>
    </TTGlyph>
    <TTGlyph name="oslash" xMin="3" yMin="-10" xMax="568" yMax="497">
      <contour>
        <pt x="3" y="-5" on="1"/>
        <pt x="89" y="81" on="1"/>
        <pt x="71" y="109" on="0"/>
        <pt x="51" y="178" on="0"/>
        <pt x="51" y="218" on="1"/>
        <pt x="51" y="275" on="0"/>
        <pt x="92" y="378" on="0"/>
        <pt x="161" y="453" on="0"/>
        <pt x="254" y="497" on="0"/>
        <pt x="307" y="497" on="1"/>
        <pt x="350" y="497" on="0"/>
        <pt x="423" y="468" on="0"/>
        <pt x="451" y="442" on="1"/>
        <pt x="502" y="493" on="1"/>
        <pt x="568" y="493" on="1"/>
        <pt x="481" y="406" on="1"/>
        <pt x="499" y="378" on="0"/>
        <pt x="518" y="309" on="0"/>
        <pt x="518" y="269" on="1"/>
        <pt x="518" y="212" on="0"/>
        <pt x="477" y="110" on="0"/>
        <pt x="408" y="34" on="0"/>
        <pt x="314" y="-10" on="0"/>
        <pt x="261" y="-10" on="1"/>
        <pt x="218" y="-10" on="0"/>
        <pt x="146" y="19" on="0"/>
        <pt x="119" y="46" on="1"/>
        <pt x="68" y="-5" on="1"/>
      </contour>
      <contour>
        <pt x="122" y="219" on="1"/>
        <pt x="122" y="194" on="0"/>
        <pt x="132" y="151" on="0"/>
        <pt x="141" y="132" on="1"/>
        <pt x="402" y="393" on="1"/>
        <pt x="383" y="412" on="0"/>
        <pt x="334" y="433" on="0"/>
        <pt x="304" y="433" on="1"/>
        <pt x="266" y="433" on="0"/>
        <pt x="200" y="399" on="0"/>
        <pt x="151" y="341" on="0"/>
        <pt x="122" y="263" on="0"/>
      </contour>
      <contour>
        <pt x="265" y="55" on="1"/>
        <pt x="303" y="55" on="0"/>
        <pt x="369" y="89" on="0"/>
        <pt x="418" y="146" on="0"/>
        <pt x="446" y="225" on="0"/>
        <pt x="446" y="269" on="1"/>
        <pt x="446" y="293" on="0"/>
        <pt x="437" y="336" on="0"/>
        <pt x="428" y="354" on="1"/>
        <pt x="168" y="94" on="1"/>
        <pt x="186" y="75" on="0"/>
        <pt x="236" y="55" on="0"/>
      </contour>
    </TTGlyph>
    <TTGlyph name="otilde" xMin="51" yMin="-10" xMax="518" yMax="696">
      <component glyphName="o" x="0" y="0" flags="0x204"/>
      <component glyphName="tilde" x="4" y="0" flags="0x4"/>
    </TTGlyph>
    <TTGlyph name="p" xMin="-22" yMin="-209" xMax="520" yMax="492">
      <contour>
        <pt x="-22" y="-209" on="1"/>
        <pt x="128" y="488" on="1"/>
        <pt x="198" y="488" on="1"/>
        <pt x="187" y="436" on="1"/>
        <pt x="215" y="463" on="0"/>
        <pt x="285" y="492" on="0"/>
        <pt x="325" y="492" on="1"/>
        <pt x="367" y="492" on="0"/>
        <pt x="439" y="459" on="0"/>
        <pt x="490" y="400" on="0"/>
        <pt x="520" y="318" on="0"/>
        <pt x="520" y="271" on="1"/>
        <pt x="520" y="214" on="0"/>
        <pt x="480" y="112" on="0"/>
        <pt x="411" y="36" on="0"/>
        <pt x="319" y="-8" on="0"/>
        <pt x="267" y="-8" on="1"/>
        <pt x="217" y="-8" on="0"/>
        <pt x="136" y="34" on="0"/>
        <pt x="111" y="74" on="1"/>
        <pt x="50" y="-209" on="1"/>
      </contour>
      <contour>
        <pt x="299" y="430" on="1"/>
        <pt x="265" y="430" on="0"/>
        <pt x="202" y="404" on="0"/>
        <pt x="176" y="380" on="1"/>
        <pt x="123" y="133" on="1"/>
        <pt x="142" y="99" on="0"/>
        <pt x="215" y="56" on="0"/>
        <pt x="258" y="56" on="1"/>
        <pt x="298" y="56" on="0"/>
        <pt x="368" y="89" on="0"/>
        <pt x="419" y="145" on="0"/>
        <pt x="449" y="221" on="0"/>
        <pt x="449" y="265" on="1"/>
        <pt x="449" y="338" on="0"/>
        <pt x="365" y="430" on="0"/>
      </contour>
    </TTGlyph>
    <TTGlyph name="paragraph" xMin="102" yMin="0" xMax="647" yMax="700">
      <contour>
        <pt x="258" y="0" on="1"/>
        <pt x="319" y="289" on="1"/>
        <pt x="288" y="289" on="1"/>
        <pt x="204" y="289" on="0"/>
        <pt x="102" y="388" on="0"/>
        <pt x="102" y="468" on="1"/>
        <pt x="102" y="518" on="0"/>
        <pt x="136" y="604" on="0"/>
        <pt x="196" y="665" on="0"/>
        <pt x="280" y="700" on="0"/>
        <pt x="330" y="700" on="1"/>
        <pt x="647" y="700" on="1"/>
        <pt x="498" y="0" on="1"/>
        <pt x="433" y="0" on="1"/>
        <pt x="495" y="289" on="1"/>
        <pt x="384" y="289" on="1"/>
        <pt x="323" y="0" on="1"/>
      </contour>
      <contour>
        <pt x="508" y="352" on="1"/>
        <pt x="569" y="637" on="1"/>
        <pt x="458" y="637" on="1"/>
        <pt x="398" y="352" on="1"/>
      </contour>
      <contour>
        <pt x="294" y="352" on="1"/>
        <pt x="333" y="352" on="1"/>
        <pt x="393" y="637" on="1"/>
        <pt x="324" y="637" on="1"/>
        <pt x="256" y="637" on="0"/>
        <pt x="169" y="546" on="0"/>
        <pt x="169" y="476" on="1"/>
        <pt x="169" y="419" on="0"/>
        <pt x="237" y="352" on="0"/>
      </contour>
    </TTGlyph>
    <TTGlyph name="parenleft" xMin="61" yMin="-216" xMax="427" yMax="711">
      <contour>
        <pt x="61" y="137" on="1"/>
        <pt x="61" y="230" on="0"/>
        <pt x="109" y="405" on="0"/>
        <pt x="196" y="554" on="0"/>
        <pt x="322" y="673" on="0"/>
        <pt x="399" y="711" on="1"/>
        <pt x="427" y="657" on="1"/>
        <pt x="362" y="626" on="0"/>
        <pt x="252" y="519" on="0"/>
        <pt x="174" y="383" on="0"/>
        <pt x="130" y="225" on="0"/>
        <pt x="130" y="143" on="1"/>
        <pt x="130" y="42" on="0"/>
        <pt x="195" y="-119" on="0"/>
        <pt x="258" y="-170" on="1"/>
        <pt x="210" y="-216" on="1"/>
        <pt x="136" y="-156" on="0"/>
        <pt x="61" y="24" on="0"/>
      </contour>
    </TTGlyph>
    <TTGlyph name="parenright" xMin="-35" yMin="-216" xMax="331" yMax="711">
      <contour>
        <pt x="331" y="358" on="1"/>
        <pt x="331" y="265" on="0"/>
        <pt x="283" y="90" on="0"/>
        <pt x="196" y="-59" on="0"/>
        <pt x="70" y="-178" on="0"/>
        <pt x="-7" y="-216" on="1"/>
        <pt x="-35" y="-162" on="1"/>
        <pt x="30" y="-131" on="0"/>
        <pt x="140" y="-24" on="0"/>
        <pt x="218" y="112" on="0"/>
        <pt x="262" y="270" on="0"/>
        <pt x="262" y="352" on="1"/>
        <pt x="262" y="453" on="0"/>
        <pt x="197" y="614" on="0"/>
        <pt x="134" y="665" on="1"/>
        <pt x="182" y="711" on="1"/>
        <pt x="256" y="651" on="0"/>
        <pt x="331" y="471" on="0"/>
      </contour>
    </TTGlyph>
    <TTGlyph name="percent" xMin="83" yMin="-5" xMax="719" yMax="705">
      <component glyphName="uni2070" x="0" y="0" flags="0x4"/>
      <component glyphName="fraction" x="102" y="0" flags="0x4"/>
      <component glyphName="uni2080" x="413" y="0" flags="0x4"/>
    </TTGlyph>
    <TTGlyph name="period" xMin="11" yMin="-8" xMax="115" yMax="101">
      <contour>
        <pt x="69" y="101" on="1"/>
        <pt x="88" y="101" on="0"/>
        <pt x="115" y="73" on="0"/>
        <pt x="115" y="52" on="1"/>
        <pt x="115" y="29" on="0"/>
        <pt x="80" y="-8" on="0"/>
        <pt x="58" y="-8" on="1"/>
        <pt x="38" y="-8" on="0"/>
        <pt x="11" y="20" on="0"/>
        <pt x="11" y="41" on="1"/>
        <pt x="11" y="65" on="0"/>
        <pt x="46" y="101" on="0"/>
      </contour>
    </TTGlyph>
    <TTGlyph name="periodcentered" xMin="67" yMin="229" xMax="171" yMax="338">
      <component glyphName="period" x="56" y="237" flags="0x4"/>
    </TTGlyph>
    <TTGlyph name="periodcentered.cap" xMin="120" yMin="294" xMax="224" yMax="403">
      <component glyphName="periodcentered" x="53" y="65" flags="0x4"/>
    </TTGlyph>
    <TTGlyph name="perthousand" xMin="83" yMin="-5" xMax="1059" yMax="705">
      <component glyphName="uni2070" x="0" y="0" flags="0x4"/>
      <component glyphName="fraction" x="102" y="0" flags="0x4"/>
      <component glyphName="uni2080" x="413" y="0" flags="0x4"/>
      <component glyphName="uni2080" x="753" y="0" flags="0x4"/>
    </TTGlyph>
    <TTGlyph name="plus" xMin="82" yMin="145" xMax="482" yMax="567">
      <contour>
        <pt x="266" y="145" on="1"/>
        <pt x="207" y="145" on="1"/>
        <pt x="246" y="327" on="1"/>
        <pt x="82" y="327" on="1"/>
        <pt x="95" y="389" on="1"/>
        <pt x="259" y="389" on="1"/>
        <pt x="297" y="567" on="1"/>
        <pt x="356" y="567" on="1"/>
        <pt x="318" y="389" on="1"/>
        <pt x="482" y="389" on="1"/>
        <pt x="469" y="327" on="1"/>
        <pt x="305" y="327" on="1"/>
      </contour>
    </TTGlyph>
    <TTGlyph name="plusminus" xMin="12" yMin="-1" xMax="487" yMax="585">
      <contour>
        <pt x="272" y="173" on="1"/>
        <pt x="213" y="173" on="1"/>
        <pt x="251" y="350" on="1"/>
        <pt x="87" y="350" on="1"/>
        <pt x="100" y="412" on="1"/>
        <pt x="264" y="412" on="1"/>
        <pt x="301" y="585" on="1"/>
        <pt x="360" y="585" on="1"/>
        <pt x="323" y="412" on="1"/>
        <pt x="487" y="412" on="1"/>
        <pt x="474" y="350" on="1"/>
        <pt x="310" y="350" on="1"/>
      </contour>
      <contour>
        <pt x="412" y="60" on="1"/>
        <pt x="400" y="-1" on="1"/>
        <pt x="12" y="-1" on="1"/>
        <pt x="25" y="60" on="1"/>
      </contour>
    </TTGlyph>
    <TTGlyph name="q" xMin="51" yMin="-209" xMax="549" yMax="493">
      <contour>
        <pt x="245" y="-7" on="1"/>
        <pt x="203" y="-7" on="0"/>
        <pt x="132" y="27" on="0"/>
        <pt x="80" y="86" on="0"/>
        <pt x="51" y="167" on="0"/>
        <pt x="51" y="214" on="1"/>
        <pt x="51" y="271" on="0"/>
        <pt x="91" y="373" on="0"/>
        <pt x="159" y="449" on="0"/>
        <pt x="251" y="493" on="0"/>
        <pt x="303" y="493" on="1"/>
        <pt x="353" y="493" on="0"/>
        <pt x="434" y="450" on="0"/>
        <pt x="460" y="410" on="1"/>
        <pt x="477" y="488" on="1"/>
        <pt x="549" y="488" on="1"/>
        <pt x="399" y="-209" on="1"/>
        <pt x="327" y="-209" on="1"/>
        <pt x="382" y="47" on="1"/>
        <pt x="354" y="21" on="0"/>
        <pt x="285" y="-7" on="0"/>
      </contour>
      <contour>
        <pt x="122" y="220" on="1"/>
        <pt x="122" y="148" on="0"/>
        <pt x="205" y="56" on="0"/>
        <pt x="271" y="56" on="1"/>
        <pt x="305" y="56" on="0"/>
        <pt x="369" y="81" on="0"/>
        <pt x="395" y="106" on="1"/>
        <pt x="448" y="353" on="1"/>
        <pt x="429" y="387" on="0"/>
        <pt x="355" y="429" on="0"/>
        <pt x="312" y="429" on="1"/>
        <pt x="272" y="429" on="0"/>
        <pt x="203" y="396" on="0"/>
        <pt x="152" y="340" on="0"/>
        <pt x="122" y="264" on="0"/>
      </contour>
    </TTGlyph>
    <TTGlyph name="question" xMin="107" yMin="-8" xMax="511" yMax="707">
      <contour>
        <pt x="385" y="371" on="1"/>
        <pt x="326" y="336" on="1"/>
        <pt x="286" y="313" on="0"/>
        <pt x="245" y="253" on="0"/>
        <pt x="238" y="207" on="1"/>
        <pt x="177" y="207" on="1"/>
        <pt x="187" y="273" on="0"/>
        <pt x="242" y="355" on="0"/>
        <pt x="293" y="385" on="1"/>
        <pt x="355" y="421" on="1"/>
        <pt x="395" y="446" on="0"/>
        <pt x="440" y="511" on="0"/>
        <pt x="440" y="545" on="1"/>
        <pt x="440" y="587" on="0"/>
        <pt x="371" y="641" on="0"/>
        <pt x="317" y="641" on="1"/>
        <pt x="274" y="641" on="0"/>
        <pt x="189" y="599" on="0"/>
        <pt x="152" y="562" on="1"/>
        <pt x="107" y="603" on="1"/>
        <pt x="155" y="653" on="0"/>
        <pt x="269" y="707" on="0"/>
        <pt x="327" y="707" on="1"/>
        <pt x="408" y="707" on="0"/>
        <pt x="511" y="622" on="0"/>
        <pt x="511" y="554" on="1"/>
        <pt x="511" y="499" on="0"/>
        <pt x="451" y="411" on="0"/>
      </contour>
      <contour>
        <pt x="184" y="98" on="1"/>
        <pt x="203" y="98" on="0"/>
        <pt x="229" y="70" on="0"/>
        <pt x="229" y="51" on="1"/>
        <pt x="229" y="28" on="0"/>
        <pt x="194" y="-8" on="0"/>
        <pt x="172" y="-8" on="1"/>
        <pt x="152" y="-8" on="0"/>
        <pt x="126" y="20" on="0"/>
        <pt x="126" y="40" on="1"/>
        <pt x="126" y="63" on="0"/>
        <pt x="161" y="98" on="0"/>
      </contour>
    </TTGlyph>
    <TTGlyph name="questiondown" xMin="38" yMin="-4" xMax="442" yMax="711">
      <contour>
        <pt x="164" y="332" on="1"/>
        <pt x="223" y="367" on="1"/>
        <pt x="263" y="390" on="0"/>
        <pt x="304" y="450" on="0"/>
        <pt x="311" y="496" on="1"/>
        <pt x="372" y="496" on="1"/>
        <pt x="362" y="430" on="0"/>
        <pt x="307" y="348" on="0"/>
        <pt x="256" y="318" on="1"/>
        <pt x="194" y="282" on="1"/>
        <pt x="154" y="257" on="0"/>
        <pt x="109" y="192" on="0"/>
        <pt x="109" y="158" on="1"/>
        <pt x="109" y="116" on="0"/>
        <pt x="178" y="62" on="0"/>
        <pt x="232" y="62" on="1"/>
        <pt x="275" y="62" on="0"/>
        <pt x="360" y="104" on="0"/>
        <pt x="397" y="141" on="1"/>
        <pt x="442" y="100" on="1"/>
        <pt x="394" y="50" on="0"/>
        <pt x="280" y="-4" on="0"/>
        <pt x="222" y="-4" on="1"/>
        <pt x="141" y="-4" on="0"/>
        <pt x="38" y="81" on="0"/>
        <pt x="38" y="149" on="1"/>
        <pt x="38" y="204" on="0"/>
        <pt x="98" y="292" on="0"/>
      </contour>
      <contour>
        <pt x="365" y="605" on="1"/>
        <pt x="346" y="605" on="0"/>
        <pt x="320" y="633" on="0"/>
        <pt x="320" y="652" on="1"/>
        <pt x="320" y="675" on="0"/>
        <pt x="355" y="711" on="0"/>
        <pt x="377" y="711" on="1"/>
        <pt x="397" y="711" on="0"/>
        <pt x="423" y="683" on="0"/>
        <pt x="423" y="663" on="1"/>
        <pt x="423" y="640" on="0"/>
        <pt x="388" y="605" on="0"/>
      </contour>
    </TTGlyph>
    <TTGlyph name="quotedbl" xMin="129" yMin="530" xMax="377" yMax="750">
      <component glyphName="quotesingle" x="0" y="0" flags="0x4"/>
      <component glyphName="quotesingle" x="143" y="0" flags="0x4"/>
    </TTGlyph>
    <TTGlyph name="quotedblbase" xMin="-57" yMin="-157" xMax="288" yMax="74">
      <component glyphName="comma" x="163" y="0" flags="0x4"/>
      <component glyphName="comma" x="0" y="0" flags="0x4"/>
    </TTGlyph>
    <TTGlyph name="quotedblleft" xMin="101" yMin="519" xMax="442" yMax="750">
      <contour>
        <pt x="179" y="519" on="1"/>
        <pt x="101" y="519" on="1"/>
        <pt x="226" y="750" on="1"/>
        <pt x="283" y="750" on="1"/>
      </contour>
      <contour>
        <pt x="338" y="519" on="1"/>
        <pt x="260" y="519" on="1"/>
        <pt x="385" y="750" on="1"/>
        <pt x="442" y="750" on="1"/>
      </contour>
    </TTGlyph>
    <TTGlyph name="quotedblright" xMin="109" yMin="519" xMax="451" yMax="750">
      <component glyphName="comma" x="326" y="676" flags="0x4"/>
      <component glyphName="comma" x="166" y="676" flags="0x4"/>
    </TTGlyph>
</ttFont>
